<?xml version="1.0" encoding="UTF-8" standalone="no" ?>
<!DOCTYPE svg PUBLIC "-//W3C//DTD SVG 1.1//EN" "http://www.w3.org/Graphics/SVG/1.1/DTD/svg11.dtd">
<svg xmlns="http://www.w3.org/2000/svg" xmlns:xlink="http://www.w3.org/1999/xlink" version="1.1" width="500" height="500" viewBox="0 0 500 500" xml:space="preserve">
<desc>Created with Fabric.js 4.6.0</desc>
<defs>
</defs>
<g transform="matrix(0.84 0 0 0.82 249.54 194.93)" id="b8ofEc-sjF8LT7tMkKDiz"  >
<path style="stroke: rgb(0,0,0); stroke-width: 10; stroke-dasharray: none; stroke-linecap: butt; stroke-dashoffset: 0; stroke-linejoin: miter; stroke-miterlimit: 4; fill: rgb(0,0,0); fill-opacity: 0; fill-rule: nonzero; opacity: 1;" vector-effect="non-scaling-stroke"  transform=" translate(0, 0)" d="M -100.86885 11.42473 C -100.86885 11.42473 -100.57891 118.95161 -1.1032399999999996 118.95161 C 98.37243 118.95161 102.08813 11.424729999999997 102.08813 11.424729999999997 C 102.08813 11.424729999999997 107.4291 -53.09140000000001 89.95598000000001 -81.31721 C 72.48286000000002 -109.54302 51.01286000000001 -118.95162 51.01286000000001 -118.95162 C 51.01286000000001 -118.95162 22.712050000000012 -89.04571000000001 -0.042479999999990525 -81.31721 C -22.79700999999999 -73.58872000000001 -17.79245999999999 -77.62097 -66.5332 -71.90861000000001 C -115.27394 -66.19624000000002 -100.86885999999998 11.424719999999994 -100.86885999999998 11.424719999999994 z" stroke-linecap="round" />
</g>
<g transform="matrix(0.83 0 0 0.82 250.06 357.84)" id="UyEV0O1jnNtEHOesOWbh-"  >
<path style="stroke: rgb(0,0,0); stroke-width: 10; stroke-dasharray: none; stroke-linecap: butt; stroke-dashoffset: 0; stroke-linejoin: miter; stroke-miterlimit: 4; fill: rgb(0,0,0); fill-rule: nonzero; opacity: 1;" vector-effect="non-scaling-stroke"  transform=" translate(0, 0)" d="M -187.49063 73.32543 C -187.49063 73.32543 -208.07114 -54.50805 -65.59802 -73.32526 C -65.46621 -73.34267 -27.409950000000002 -57.63459 -0.6226800000000026 -57.16257 C 29.91069 -56.62454 63.950869999999995 -73.38725 64.48228 -73.32526 C 208.03728 -56.57963 187.50937 73.32543 187.50937 73.32543 z" stroke-linecap="round" />
</g>
<g transform="matrix(0.83 0 0 0.82 250.03 108.7)" id="LEBK96TF2_cWk5D-Kb96r"  >
<path style="stroke: rgb(0,0,0); stroke-width: 10; stroke-dasharray: none; stroke-linecap: butt; stroke-dashoffset: 0; stroke-linejoin: miter; stroke-miterlimit: 4; fill: rgb(0,0,0); fill-rule: nonzero; opacity: 1;" vector-effect="non-scaling-stroke"  transform=" translate(0, 0)" d="M -109.46705 83.94227 C -109.46705 83.94227 -109.46705 83.94227 -109.46705 83.94225999999999 C -109.46704 83.94227 -109.46704 83.94228 -109.46704 83.94228 z M -117.21693 -39.71363 C -86.30295000000001 -96.16524000000001 -34.59491 -108.17748 5.727669999999989 -104.14522 C 41.72844999999999 -100.54513999999999 59.01091999999999 -71.29871 62.30204999999999 -65.07075 L 62.30204999999999 -65.07075 L 62.30204999999999 -65.07075 C 67.75393999999999 -49.09443 65.48960999999998 -31.465670000000003 56.18137999999999 -17.418690000000005 C 55.35152999999999 -16.166370000000004 53.66667999999999 -13.623770000000006 53.66667999999999 -13.623770000000006 C 53.48197999999999 -13.765950000000005 53.385059999999996 -13.839260000000007 53.385059999999996 -13.839260000000007 C 53.385059999999996 -13.839260000000007 34.21800999999999 11.971599999999995 5.727669999999996 22.62822999999999 C -22.762670000000004 33.284859999999995 -49.02501 23.26431999999999 -76.89477 36.89925999999999 C -104.75774999999999 50.53088999999999 -109.46475 104.84039999999999 -109.46704 104.85665 C -109.48876 104.81888000000001 -148.12221 16.72211 -117.21692999999999 -39.713629999999995 z M 62.8906 -63.90718 C 62.8906 -63.90718 98.75795 -63.52348 115.30995 -38.483999999999995 C 131.86195 -13.444509999999994 129.96549 -0.9692199999999929 127.79033 22.628230000000002 C 124.71574 55.98322 109.32263 83.94228000000001 109.32263 83.94228000000001 C 109.32263 83.94228000000001 101.79367 41.344690000000014 89.32263 22.62823000000001 C 78.084 5.761350000000011 57.91566 -10.321479999999994 54.039300000000004 -13.335409999999989 C 54.039300000000004 -13.335409999999989 55.130680000000005 -14.95794999999999 55.668220000000005 -15.75711999999999 L 55.668220000000005 -15.75711999999999 C 65.31296 -30.09586999999999 67.85081000000001 -48.12504999999999 62.54430000000001 -64.60555 L 62.54430000000001 -64.60555 C 62.77640000000001 -64.1527 62.890600000000006 -63.90718 62.890600000000006 -63.90718 z M 53.1357 -10.46036 L 54.0393 -13.33541 C 53.89067 -13.45098 62.40136 -13.547329999999999 62.302049999999994 -13.62377 z M 62.5443 -66.514 L 62.30205 -65.07074999999999 C 62.39359 -64.89751999999999 62.47431 -64.74211 62.5443 -64.60553999999999 z" stroke-linecap="round" />
</g>
<g transform="matrix(0.96 0 0 0.96 250 250)" id="OVxV3SMcfJxqdPFEoBDGp"  >
<path style="stroke: rgb(0,0,0); stroke-width: 10; stroke-dasharray: none; stroke-linecap: butt; stroke-dashoffset: 0; stroke-linejoin: miter; stroke-miterlimit: 4; fill: rgb(255,255,255); fill-opacity: 0; fill-rule: nonzero; opacity: 1;" vector-effect="non-scaling-stroke"  transform=" translate(0, 0)" d="M 0 -255 C 140.76 -255 255 -140.76 255 0 C 255 140.76 140.76 255 0 255 C -140.76 255 -255 140.76 -255 0 C -255 -140.76 -140.76 -255 0 -255 z" stroke-linecap="round" />
</g>
</svg>