<?xml version="1.0" encoding="UTF-8"?>
<!-- Generator: Blender, SVG Export for Grease Pencil - v1.0 -->
<!DOCTYPE svg PUBLIC "-//W3C//DTD SVG 1.1//EN" "http://www.w3.org/Graphics/SVG/1.1/DTD/svg11.dtd">
<svg version="1.0" x="0px" y="0px" xmlns="http://www.w3.org/2000/svg" width="399px" height="99px" viewBox="0 0 399 99">
	<g id="blender_frame_1">
		<g id="blender_object_Hide">
			<!--Layer: Hide_Layer-->
			<g id="Hide_Layer">
				<path fill-opacity="1" fill="#000000" stroke="none" d="M8.814106,40.821716L8.831646,40.813202L9.965790,40.265717L11.041790,39.737427L12.119450,39.203918L13.213093,38.662567L13.229141,38.654633L14.336292,38.111176L14.367447,38.096039L15.501602,37.548523L15.546146,37.527283L16.720753,36.973663L16.776394,36.947815L18.004955,36.386078L18.069126,36.357269L19.365139,35.785309L19.435066,35.755066L20.812023,35.170898L20.885231,35.140472L22.356621,34.542084L22.412575,34.519684L24.092556,33.858612L24.134403,33.842346L25.727432,33.231018L25.773117,33.213745L27.299995,32.643860L27.348114,32.626160L28.829697,32.089478L28.878403,32.072113L30.335464,31.560333L30.382614,31.544006L31.835999,31.048828L31.879539,31.034210L33.350090,30.547363L33.388138,30.534912L34.896660,30.048126L34.927994,30.038086L36.495300,29.543060L36.519455,29.535492L38.166389,29.023926L38.183296,29.018707L39.930687,28.482300L39.940926,28.479187L41.809570,27.909698L41.823730,27.905396L43.855461,27.292419L43.880096,27.285065L45.795555,26.717285L45.823097,26.709198L47.647903,26.179016L47.677650,26.170441L49.437416,25.670319L49.468307,25.661621L51.188606,25.183899L51.219269,25.175476L52.925735,24.712646L52.954826,24.704834L54.673058,24.249237L54.699272,24.242371L56.454895,23.786438L56.477287,23.780701L58.295921,23.316864L58.313889,23.312347L60.221115,22.833008L60.234604,22.829620L62.256035,22.327271L62.265190,22.324982L64.426430,21.791931L64.436020,21.789581L66.670303,21.242950L66.685020,21.239349L68.785423,20.731812L68.802986,20.727600L70.798042,20.252716L70.818169,20.247986L72.736465,19.799255L72.758530,19.794128L74.628616,19.365112L74.651703,19.359863L76.502106,18.944061L76.525276,18.938904L78.384583,18.529816L78.406715,18.524994L80.303452,18.116180L80.323700,18.111847L82.286469,17.696838L82.304085,17.693115L84.361382,17.265381L84.376022,17.262390L86.556450,16.815430L86.568062,16.813080L88.900139,16.340515L88.908180,16.338898L91.236504,15.870789L91.245277,15.869049L93.430931,15.433502L93.443336,15.431030L95.516518,15.023041L95.532555,15.019928L97.523384,14.634491L97.542702,14.630798L99.481346,14.262939L99.503548,14.258789L101.420097,13.903595L101.444054,13.899231L103.368721,13.551636L103.393410,13.547272L105.356300,13.202362L105.380470,13.198181L107.411751,12.850952L107.434578,12.847107L109.564369,12.492615L109.585045,12.489227L111.843513,12.122467L111.861534,12.119568L114.278847,11.735565L114.291481,11.733582L116.741966,11.350372L116.753700,11.348541L119.054649,10.993988L119.070274,10.991608L121.253059,10.661926L121.272560,10.659027L123.368629,10.350403L123.391563,10.347107L125.432320,10.055725L125.457863,10.052124L127.474724,9.774200L127.501839,9.770569L129.526215,9.502228L129.553711,9.498657L131.616974,9.236145L131.643555,9.232819L133.777191,8.972290L133.801788,8.969360L136.037170,8.707001L136.059082,8.704468L138.427643,8.436462L138.446533,8.434387L140.979675,8.156952L140.995117,8.155243L143.658783,7.871429L143.675690,7.869659L146.176758,7.611267L146.196991,7.609222L148.569000,7.373352L148.592316,7.371094L150.868927,7.154846L150.894562,7.152496L153.109344,6.952972L153.136414,6.950592L155.322968,6.764923L155.350220,6.762695L157.542175,6.587921L157.568420,6.585907L159.799347,6.419189L159.823486,6.417480L162.126984,6.255890L162.148132,6.254486L164.557800,6.095123L164.575500,6.093994L167.124939,5.933990L167.139160,5.933136L169.861969,5.769592L169.868805,5.769196L172.657379,5.605347L172.662720,5.605042L175.278381,5.453979L175.289215,5.453369L177.767059,5.315338L177.783997,5.314423L180.159058,5.189789L180.182159,5.188629L182.489563,5.077637L182.518158,5.076355L184.792908,4.979248L184.826080,4.977936L187.103271,4.895020L187.139465,4.893829L189.454193,4.825378L189.491638,4.824402L191.878967,4.770660L191.916016,4.769928L194.411041,4.731262L194.446136,4.730835L197.083923,4.707336L197.116272,4.707153L199.931885,4.699310L199.961456,4.699310L202.777100,4.707153L202.809448,4.707336L205.447205,4.730835L205.482300,4.731262L207.977325,4.769928L208.014374,4.770660L210.401703,4.824402L210.439148,4.825378L212.753906,4.893829L212.790070,4.895020L215.067291,4.977936L215.100464,4.979248L217.375214,5.076355L217.403809,5.077667L219.711151,5.188660L219.734253,5.189789L222.109314,5.314453L222.126221,5.315338L224.604065,5.453369L224.614960,5.453979L227.230621,5.605011L227.235962,5.605316L230.024567,5.769196L230.031372,5.769592L232.754181,5.933136L232.768372,5.933990L235.317841,6.093994L235.335510,6.095123L237.745209,6.254486L237.766357,6.255890L240.069855,6.417480L240.093994,6.419189L242.324890,6.585907L242.351135,6.587921L244.543091,6.762695L244.570343,6.764923L246.756927,6.950592L246.783997,6.952972L248.998779,7.152496L249.024414,7.154846L251.300995,7.371094L251.324341,7.373352L253.696381,7.609222L253.716614,7.611267L256.217651,7.869659L256.234558,7.871429L258.898224,8.155243L258.913696,8.156952L261.446838,8.434387L261.465668,8.436462L263.834259,8.704468L263.856201,8.707001L266.091553,8.969360L266.116119,8.972290L268.249786,9.232819L268.276337,9.236145L270.339630,9.498657L270.367126,9.502228L272.391479,9.770538L272.418671,9.774200L274.435516,10.052124L274.461060,10.055725L276.501801,10.347107L276.524719,10.350403L278.620789,10.659027L278.640289,10.661926L280.823059,10.991608L280.838715,10.993988L283.139618,11.348541L283.151398,11.350342L285.601898,11.733582L285.614502,11.735565L288.031830,12.119568L288.049866,12.122467L290.308319,12.489227L290.329010,12.492615L292.458801,12.847137L292.481567,12.850983L294.512848,13.198181L294.537079,13.202362L296.499969,13.547272L296.524628,13.551636L298.449310,13.899231L298.473297,13.903625L300.389862,14.258820L300.411987,14.262970L302.350647,14.630798L302.370026,14.634521L304.360840,15.019958L304.376892,15.023071L306.450073,15.431091L306.462433,15.433563L308.648071,15.869110L308.656891,15.870850L310.985199,16.338928L310.993225,16.340546L313.325287,16.813110L313.336914,16.815460L315.517365,17.262390L315.532013,17.265411L317.589325,17.693146L317.606903,17.696869L319.569702,18.111877L319.589874,18.116211L321.486603,18.524994L321.508789,18.529846L323.368134,18.938904L323.391266,18.944061L325.241669,19.359863L325.264771,19.365112L327.134857,19.794159L327.156921,19.799255L329.075226,20.247986L329.095337,20.252716L331.090393,20.727570L331.107971,20.731812L333.208344,21.239349L333.223083,21.242950L335.457336,21.789581L335.466949,21.791931L337.628204,22.324982L337.637390,22.327271L339.658783,22.829620L339.672241,22.833008L341.579468,23.312317L341.597473,23.316833L343.416107,23.780670L343.438507,23.786438L345.194122,24.242371L345.220337,24.249237L346.938568,24.704834L346.967621,24.712646L348.674103,25.175476L348.704742,25.183899L350.425049,25.661621L350.455933,25.670319L352.215729,26.170441L352.245483,26.179016L354.070251,26.709198L354.097778,26.717285L356.013245,27.285065L356.037903,27.292419L358.069580,27.905426L358.083740,27.909698L359.952393,28.479187L359.962646,28.482330L361.710052,29.018738L361.726959,29.023926L363.373840,29.535492L363.397949,29.543060L364.965240,30.038086L364.996674,30.048126L366.505188,30.534943L366.543243,30.547363L368.013763,31.034210L368.057281,31.048828L369.510681,31.544006L369.557861,31.560333L371.014923,32.072113L371.063599,32.089478L372.545166,32.626129L372.593292,32.643860L374.120178,33.213715L374.165863,33.231018L375.758881,33.842346L375.800751,33.858612L377.480743,34.519684L377.536652,34.542053L379.008087,35.140472L379.081268,35.170868L380.458221,35.755035L380.528198,35.785309L381.824219,36.357269L381.888336,36.386047L383.116943,36.947815L383.172546,36.973633L384.347168,37.527252L384.391754,37.548523L385.525909,38.096039L385.557068,38.111206L386.664215,38.654633L386.680237,38.662537L387.773926,39.203949L388.867554,39.745300L389.958710,40.280884L391.061707,40.813202L391.588959,41.105835L392.464966,41.659454L393.363861,42.374695L394.087494,43.266815L394.601959,44.293884L394.883087,45.407684L394.917664,46.555878L394.704071,47.684570L394.252350,48.740723L393.583679,49.674774L392.729462,50.442810L391.729889,51.008820L390.631805,51.346191L389.486816,51.439056L388.348785,51.283112L386.560608,50.836426L384.685883,50.430145L384.672058,50.427094L382.679993,49.987152L382.672882,49.985596L380.699829,49.546967L378.726746,49.108398L376.741852,48.670013L374.725739,48.230438L372.658813,47.788086L370.521118,47.341309L368.292633,46.888519L365.953308,46.428070L363.483063,45.958344L360.403778,45.389191L357.497528,44.864227L354.732910,44.377350L352.070801,43.920746L349.471802,43.486816L346.896423,43.067810L344.305328,42.656067L341.659241,42.243958L338.919250,41.823944L336.046783,41.388428L333.003601,40.929962L329.751678,40.441101L327.840118,40.153625L326.049744,39.885010L324.356689,39.632629L322.736176,39.393799L321.163116,39.165771L319.612122,38.945648L318.057373,38.730591L316.472900,38.517670L314.832550,38.304016L313.110077,38.086670L311.279663,37.862793L309.315430,37.629578L307.004364,37.363617L304.833923,37.122894L302.773102,36.903198L300.792450,36.700287L298.862335,36.510101L296.953094,36.328491L295.035339,36.151367L293.079773,35.974701L291.057617,35.794373L288.940338,35.606445L288.938812,35.606323L286.699829,35.406952L286.695160,35.406525L284.308044,35.191833L284.302856,35.191345L281.825470,34.966095L281.822754,34.965820L279.502106,34.753601L277.306030,34.552673L275.205658,34.361786L273.169098,34.179169L271.164246,34.003174L269.158722,33.832092L267.119812,33.664154L265.014496,33.497559L262.809875,33.330597L260.472931,33.161499L257.970978,32.988556L255.309387,32.810852L252.810699,32.648926L250.445404,32.501312L248.179596,32.366119L245.979034,32.241516L243.809509,32.125671L241.636444,32.016724L239.425293,31.912842L237.141693,31.812164L234.751312,31.712921L232.220093,31.613251L229.514221,31.511444L226.725311,31.408936L224.109680,31.314728L221.636444,31.229095L219.270721,31.152069L216.977417,31.083832L214.720886,31.024445L212.465363,30.973907L210.174774,30.932343L207.812805,30.899872L205.343262,30.876495L202.730133,30.862396L199.937653,30.857697L197.143524,30.862457L194.528564,30.876648L192.057739,30.900116L189.695404,30.932709L187.405426,30.974365L185.151672,31.024933L182.897827,31.084351L180.607819,31.152527L178.245850,31.229462L175.776337,31.315002L173.164154,31.409088L170.374390,31.511597L167.664062,31.613617L165.130615,31.713379L162.738098,31.812744L160.452667,31.913513L158.240295,32.017548L156.066620,32.126556L153.897278,32.242462L151.697723,32.367035L149.433441,32.502197L147.070099,32.649719L144.573578,32.811523L141.909882,32.989410L139.403381,33.162689L137.065765,33.331909L134.861053,33.498932L132.756500,33.665497L130.719238,33.833374L128.716156,34.004303L126.714439,34.180054L124.681267,34.362366L122.584282,34.552979L120.391335,34.753601L118.070595,34.965820L118.067879,34.966064L115.590523,35.191345L115.585289,35.191833L113.198174,35.406525L113.193520,35.406952L110.954567,35.606323L110.952995,35.606445L108.833595,35.794556L106.807304,35.975250L104.847511,36.152344L102.925743,36.329834L101.013161,36.511810L99.080559,36.702332L97.098442,36.905426L95.037224,37.125305L92.867256,37.366028L90.559013,37.631775L88.595222,37.864990L86.763176,38.089142L85.039803,38.306702L83.399261,38.520508L81.815628,38.733337L80.262810,38.948212L78.714584,39.167999L77.144913,39.395630L75.528069,39.633911L73.838615,39.885742L72.051514,40.153870L70.141899,40.441040L66.888138,40.930237L63.841621,41.389160L60.965469,41.825256L58.221611,42.245911L55.571800,42.658600L52.977524,43.070923L50.399796,43.490387L47.799423,43.924652L45.137016,44.381378L42.373070,44.868286L39.468246,45.393036L36.383385,45.963379L33.906502,46.434540L31.568939,46.894867L29.343315,47.347260L27.209610,47.793335L25.147720,48.234741L23.137638,48.673065L21.159473,49.109955L19.193508,49.546967L17.220436,49.985596L17.213333,49.987152L15.221310,50.427094L15.207462,50.430145L13.177532,50.872742L11.129333,51.319397L10.000000,40.839661L10.000000,40.839661L10.000000,40.839661L10.000000,40.839661L10.000000,40.839661L10.000000,40.839661L10.000000,40.839661L10.000000,40.839661L10.000000,40.839661L10.000000,40.839661L10.000000,40.839661L10.000000,40.839661L10.000000,51.441101L10.000000,51.441101L8.965874,51.339233L7.971508,51.037598L7.055084,50.547760L6.251835,49.888580L5.592613,49.085297L5.102783,48.168884L4.801136,47.174500L4.699291,46.140381L4.801136,45.106293L5.102783,44.111908L5.592613,43.195465L6.251835,42.392242L7.055084,41.733032L7.971497,41.243164L8.965874,40.941528L10.000000,40.839661L10.000000,51.441101L10.000000,51.441101L10.000000,51.441101L10.000000,51.441101L10.000000,51.441101L10.000000,51.441101L10.000000,51.441101L10.000000,51.441101L10.000000,51.441101L10.000000,51.441101L10.000000,51.441101L10.000000,51.441101L10.000000,51.441101L8.816620,51.307312L7.692978,50.912720L6.685791,50.277252L5.845890,49.432953L5.215687,48.422455L4.826958,47.296753L4.699368,46.112701L4.839329,44.930054L5.239773,43.808472L5.880520,42.804626L6.729183,41.969147L7.742954,41.344238L8.870655,40.961365L10.918915,40.514740L12.948898,40.072113L14.927090,39.635193L16.893044,39.198181L18.866116,38.759583L18.873219,38.757996L20.865231,38.318054L20.879074,38.315002L22.909004,37.872406L22.928867,37.868103L25.015656,37.421448L25.040558,37.416199L27.203156,36.964142L27.232025,36.958191L29.489365,36.499481L29.521088,36.493134L31.892166,36.026306L31.925659,36.019836L34.429398,35.543610L34.456253,35.538574L37.562431,34.964386L37.583733,34.960510L40.511292,34.431671L40.534019,34.427612L43.321358,33.936646L43.344734,33.932587L46.030243,33.471924L46.053345,33.468018L48.675453,33.030182L48.697197,33.026581L51.294289,32.604004L51.313660,32.600891L53.924126,32.186035L53.940331,32.183502L56.602638,31.768860L56.615135,31.766907L59.367638,31.344940L59.376274,31.343628L62.257370,30.906799L62.262337,30.906067L65.310471,30.446838L65.312080,30.446594L68.565620,29.957489L70.476723,29.670105L70.478455,29.669830L72.270599,29.400940L72.275620,29.400208L73.973686,29.147064L73.982307,29.145782L75.611450,28.905670L75.623756,28.903900L77.209114,28.674042L77.224808,28.671783L78.791527,28.449402L78.809982,28.446838L80.383194,28.229187L80.403572,28.226410L82.008430,28.010712L82.029625,28.007904L83.691231,27.791443L83.712303,27.788727L85.455803,27.568665L85.475937,27.566193L87.326508,27.339783L87.345039,27.337585L89.327797,27.102112L89.346764,27.099915L91.676781,26.831696L91.698540,26.829254L93.890770,26.586121L93.913033,26.583679L95.996071,26.361542L96.017891,26.359253L98.020363,26.154083L98.040718,26.152039L99.991203,25.959778L100.009102,25.958069L101.936180,25.774719L101.950676,25.773346L103.882957,25.594879L103.893486,25.593903L105.859550,25.416260L105.865807,25.415710L107.894249,25.234863L107.896385,25.234680L110.015800,25.046570L112.253181,24.847351L114.635643,24.633057L117.107765,24.408234L119.425667,24.196228L121.621574,23.995361L121.624596,23.995087L123.728035,23.803894L123.734474,23.803284L125.777489,23.620117L125.787300,23.619232L127.801979,23.442383L127.814934,23.441254L129.833374,23.269043L129.848785,23.267761L131.903107,23.098511L131.920166,23.097168L134.042511,22.929169L134.060333,22.927795L136.282776,22.759460L136.300507,22.758148L138.655151,22.587738L138.672180,22.586548L141.191132,22.412384L141.203613,22.411530L143.877655,22.233002L143.888031,22.232300L146.397095,22.069702L146.409637,22.068909L148.787445,21.920502L148.801941,21.919617L151.082275,21.783539L151.098328,21.782593L153.314880,21.657074L153.331879,21.656128L155.518463,21.539337L155.535675,21.538452L157.725952,21.428619L157.742554,21.427826L159.970306,21.323120L159.985687,21.322418L162.284637,21.221039L162.298187,21.220459L164.702118,21.120636L164.713501,21.120178L167.256134,21.020050L167.265320,21.019714L169.980377,20.917511L169.985077,20.917328L172.778717,20.814697L172.782593,20.814545L175.402069,20.720215L175.409363,20.719940L177.889923,20.634003L177.900940,20.633636L180.277679,20.556305L180.292450,20.555817L182.600555,20.487122L182.618652,20.486603L184.893280,20.426697L184.914062,20.426208L187.190369,20.375153L187.212952,20.374695L189.526093,20.332703L189.549286,20.332336L191.934448,20.299469L191.957275,20.299164L194.449615,20.275574L194.471161,20.275421L197.105804,20.261139L197.125519,20.261047L199.937653,20.256287L199.955688,20.256287L202.767822,20.261047L202.787537,20.261139L205.422211,20.275421L205.443726,20.275574L207.936096,20.299164L207.958893,20.299469L210.344055,20.332336L210.367249,20.332703L212.680389,20.374695L212.702972,20.375153L214.979279,20.426208L215.000092,20.426697L217.274689,20.486603L217.292786,20.487122L219.600891,20.555817L219.615662,20.556305L221.992401,20.633636L222.003448,20.634003L224.483978,20.719940L224.491272,20.720215L227.110748,20.814545L227.114624,20.814697L229.908234,20.917328L229.912964,20.917511L232.628021,21.019714L232.637177,21.020050L235.179810,21.120178L235.191193,21.120636L237.595154,21.220459L237.608673,21.221039L239.907654,21.322418L239.923004,21.323120L242.150757,21.427826L242.167389,21.428619L244.357697,21.538452L244.374878,21.539337L246.561432,21.656128L246.578461,21.657074L248.795013,21.782593L248.811096,21.783539L251.091400,21.919617L251.105865,21.920502L253.483704,22.068909L253.496216,22.069702L256.005310,22.232300L256.015686,22.233002L258.689728,22.411530L258.702179,22.412384L261.221161,22.586517L261.238190,22.587738L263.592865,22.758148L263.610596,22.759460L265.833038,22.927795L265.850830,22.929169L267.973206,23.097168L267.990234,23.098511L270.044586,23.267761L270.059967,23.269043L272.078430,23.441254L272.091370,23.442383L274.106049,23.619232L274.115875,23.620117L276.158875,23.803284L276.165314,23.803894L278.268738,23.995087L278.271790,23.995361L280.467773,24.196228L282.788300,24.408478L285.262970,24.633514L287.644836,24.847748L289.879089,25.046692L291.996948,25.234680L291.999146,25.234863L294.027557,25.415710L294.033813,25.416260L295.999878,25.593933L296.010406,25.594879L297.942688,25.773376L297.957184,25.774750L299.884247,25.958069L299.902161,25.959808L301.852631,26.152069L301.872986,26.154083L303.875488,26.359253L303.897308,26.361542L305.980347,26.583679L306.002594,26.586121L308.194855,26.829254L308.216644,26.831726L310.546631,27.099915L310.565582,27.102142L312.548340,27.337585L312.566864,27.339813L314.417419,27.566193L314.437561,27.568695L316.181061,27.788757L316.202148,27.791443L317.863739,28.007935L317.885010,28.010712L319.489838,28.226440L319.510162,28.229187L321.083374,28.446838L321.101868,28.449432L322.668549,28.671814L322.684235,28.674042L324.269623,28.903900L324.281891,28.905701L325.911072,29.145782L325.919678,29.147064L327.617737,29.400208L327.622742,29.400940L329.414886,29.669830L329.416626,29.670105L331.327972,29.957520L334.581299,30.446594L334.582886,30.446838L337.631042,30.906067L337.635986,30.906799L340.517059,31.343628L340.525696,31.344940L343.278229,31.766907L343.290710,31.768860L345.953003,32.183502L345.969208,32.186035L348.579681,32.600891L348.599060,32.604004L351.196167,33.026581L351.217896,33.030182L353.839996,33.468018L353.863068,33.471924L356.548615,33.932587L356.571991,33.936646L359.359314,34.427612L359.382050,34.431671L362.309601,34.960510L362.330902,34.964386L365.437103,35.538574L365.463959,35.543610L367.967651,36.019836L368.001099,36.026306L370.372192,36.493134L370.403900,36.499481L372.661316,36.958191L372.690186,36.964142L374.852753,37.416199L374.877625,37.421448L376.964478,37.868103L376.984314,37.872406L379.014252,38.315002L379.028076,38.318054L381.020081,38.757996L381.027191,38.759583L383.000275,39.198181L384.973358,39.636780L386.958252,40.075134L388.974396,40.514709L389.129608,40.551025L390.917786,40.997650L385.925568,50.067749L385.318665,49.812836L385.287476,49.797668L384.180328,49.254211L384.164368,49.246368L383.070679,48.704987L381.976929,48.163544L380.885834,47.627991L379.782867,47.095673L378.652802,46.563324L377.479889,46.027374L376.247986,45.484283L374.941010,44.930389L373.542816,44.362427L371.918762,43.723694L370.367584,43.128632L368.886383,42.576080L367.452942,42.057098L366.044586,41.562653L364.638336,41.083832L363.211334,40.611603L361.740845,40.137207L360.204956,39.652191L358.582123,39.148163L356.851654,38.617004L354.993225,38.050659L352.975708,37.441956L351.084839,36.881561L349.287598,36.359436L347.557587,35.867828L345.868195,35.398804L344.192383,34.944336L342.503235,34.496521L340.773773,34.047516L338.977570,33.589447L337.088379,33.114716L335.080353,32.615662L332.928284,32.084900L330.703613,31.540588L328.617950,31.036652L326.640472,30.565979L324.742279,30.122009L322.894226,29.698120L321.066956,29.287537L319.230774,28.883606L317.356232,28.479645L315.413696,28.068909L313.373993,27.644867L311.208221,27.200958L308.887756,26.730774L306.567474,26.264313L304.390564,25.830536L302.329773,25.424988L300.355011,25.042694L298.435760,24.678558L296.541321,24.327484L294.640656,23.984344L292.702393,23.643829L290.695404,23.300812L288.588348,22.950134L286.350555,22.586792L283.951294,22.205688L281.513397,21.824463L279.224243,21.471741L277.057068,21.144470L274.980499,20.838745L272.962677,20.550720L270.971313,20.276337L268.974152,20.011719L266.938293,19.752747L264.831238,19.495544L262.620392,19.236145L260.273773,18.970673L257.759491,18.695343L255.111298,18.413177L252.627136,18.156555L250.275330,17.922729L248.022034,17.708771L245.832855,17.511627L243.673340,17.328308L241.508636,17.155792L239.303986,16.991150L237.024628,16.831360L234.636139,16.673431L232.104401,16.514587L229.395813,16.351929L226.614044,16.188477L224.003754,16.037720L221.536835,15.900391L219.178711,15.776672L216.894409,15.666809L214.648285,15.571014L212.404297,15.489410L210.125702,15.422150L207.775818,15.369385L205.317841,15.331390L202.715149,15.308350L199.931885,15.300659L197.145844,15.308533L194.540436,15.331818L192.080444,15.370087L189.730164,15.423126L187.452911,15.490601L185.211853,15.572327L182.970276,15.668091L180.691559,15.777802L178.339600,15.901276L175.878754,16.038361L173.273956,16.188812L170.490692,16.352356L167.774719,16.515472L165.239502,16.674622L162.847534,16.832764L160.565186,16.992859L158.358429,17.157837L156.192719,17.330566L154.033417,17.514008L151.845703,17.711121L149.594727,17.924988L147.245972,18.158600L144.765167,18.414948L142.118408,18.697021L139.600708,18.972778L137.251007,19.238678L135.037537,19.498505L132.928467,19.756073L130.891754,20.015259L128.894897,20.280029L126.905144,20.554291L124.889931,20.842072L122.816780,21.147369L120.653511,21.474152L118.368202,21.826294L115.929451,22.207703L113.524773,22.589722L111.284325,22.953552L109.175179,23.304657L107.166725,23.648041L105.228004,23.988708L103.328026,24.331879L101.435417,24.682678L99.519020,25.046387L97.547523,25.428070L95.490395,25.832947L93.317146,26.266022L90.997581,26.732330L88.673561,27.203278L86.504761,27.647858L84.462090,28.072571L82.516930,28.483917L80.640442,28.888428L78.803268,29.292664L76.976028,29.703339L75.129051,30.127106L73.232819,30.570709L71.257881,31.040863L69.175041,31.544189L66.955498,32.087280L64.803848,32.617950L62.791565,33.118042L60.897835,33.593994L59.097168,34.053284L57.363937,34.503448L55.671898,34.952148L53.994522,35.407196L52.304871,35.876495L50.575989,36.367981L48.780960,36.889618L46.893021,37.449310L44.885918,38.054962L43.031433,38.620148L41.294281,39.153381L39.664253,39.659729L38.121094,40.147217L36.643921,40.624023L35.211426,41.098450L33.801575,41.578979L32.391663,42.074463L30.958786,42.593750L29.480034,43.145905L27.932686,43.739990L26.294556,44.384796L24.879135,44.960815L23.575394,45.514557L22.349285,46.056213L21.184883,46.589172L20.065933,47.116913L18.976334,47.643188L17.900333,48.171478L16.822712,48.704956L15.729004,49.246368L15.712982,49.254242L14.605827,49.797668L14.574677,49.812866L13.440521,50.360382L12.321972,50.905457L12.321972,50.905457L11.347740,51.266907L10.321716,51.431335L9.283314,51.392426L8.272469,51.151703L7.328003,50.718384L6.486221,50.109131L5.779476,49.347351L5.234924,48.462372L4.873486,47.488129L4.709053,46.462097L4.747971,45.423706L4.988686,44.412842L5.422009,43.468384L6.031250,42.626617L6.793015,41.919861L7.678017,41.375305L8.802750,40.827240z" />
				<path fill-opacity="1" fill="#000000" stroke="none" d="M28.316711,50.270111L29.863342,50.989716L31.339371,51.657532L32.767166,52.284485L34.169586,52.881561L35.569839,53.459808L36.991150,54.030243L38.456482,54.603546L39.988113,55.190125L41.607544,55.800171L43.335602,56.443481L45.192558,57.129852L47.208084,57.867371L49.095337,58.545776L50.888504,59.177551L52.614037,59.772217L54.298775,60.339478L55.969795,60.889069L57.654396,61.430725L59.379616,61.973969L61.172241,62.528412L63.058548,63.103333L65.064301,63.707886L67.214874,64.351196L69.438004,65.010864L71.521202,65.621399L73.495712,66.191345L75.390511,66.728851L77.234795,67.241943L79.058075,67.738800L80.890221,68.227600L82.760963,68.716583L84.699898,69.213776L86.736481,69.727295L88.899590,70.265015L91.217979,70.834778L93.536873,71.400177L95.712120,71.925903L97.770668,72.417236L99.742592,72.880219L101.658226,73.320984L103.548576,73.745850L105.444832,74.161102L107.378426,74.573120L109.380898,74.988159L111.483604,75.412537L113.717522,75.852478L116.113258,76.314026L118.548744,76.775940L120.835640,77.203308L122.999779,77.599670L125.072548,77.969757L127.085945,78.318359L129.072205,78.650238L131.064056,78.970337L133.094421,79.283569L135.196198,79.594727L137.402008,79.908630L139.744263,80.229980L142.254700,80.563385L144.899811,80.905182L147.380524,81.216003L149.728180,81.499084L151.976746,81.758026L154.160614,81.996521L156.314545,82.218262L158.473541,82.426880L160.672791,82.626099L162.947113,82.819519L165.331207,83.010620L167.859192,83.202972L170.564850,83.400024L173.345154,83.598175L175.954376,83.780945L178.419006,83.947388L180.773590,84.097229L183.053009,84.230133L185.293060,84.346008L187.530060,84.444641L189.800964,84.525940L192.142914,84.589661L194.593048,84.635590L197.188202,84.663391L199.964691,84.672668L202.744324,84.663147L205.342987,84.634979L207.795349,84.588623L210.137787,84.524506L212.407135,84.442902L214.640503,84.344086L216.875061,84.228241L219.147736,84.095520L221.494843,83.946045L223.952118,83.780029L226.554626,83.597717L229.336761,83.399445L232.051270,83.201721L234.583557,83.008942L236.971771,82.817383L239.249725,82.623535L241.451477,82.423950L243.611755,82.214966L245.765350,81.993042L247.947510,81.754547L250.193176,81.495758L252.537140,81.213013L255.013855,80.902588L257.657227,80.560974L260.171722,80.226868L262.517639,79.904907L264.726685,79.590393L266.830750,79.278717L268.862213,78.965118L270.853638,78.644897L272.838013,78.313110L274.848175,77.964935L276.916870,77.595459L279.076416,77.199768L281.358673,76.773254L283.795105,76.311096L286.197388,75.848206L288.434357,75.407593L290.539581,74.982544L292.543732,74.566986L294.477814,74.154724L296.373199,73.739502L298.261353,73.315002L300.173737,72.874847L302.141602,72.412720L304.195831,71.922363L306.366852,71.397644L308.684814,70.832458L311.007446,70.261627L313.174164,69.722992L315.214142,69.208527L317.156158,68.710419L319.029083,68.220764L320.862427,67.731445L322.685608,67.234497L324.528595,66.721619L326.421082,66.184631L328.392670,65.615387L330.472504,65.005798L332.689575,64.347900L334.839691,63.704681L336.850403,63.098572L338.741974,62.522003L340.539673,61.965881L342.269318,61.421051L343.957153,60.878113L345.629974,60.327698L347.314850,59.760101L349.039001,59.165588L350.829590,58.534515L352.713440,57.857117L354.716980,57.123901L356.569397,56.439148L358.305054,55.792938L359.932709,55.179718L361.472504,54.589722L362.945343,54.013123L364.372681,53.439758L365.776886,52.859253L367.180786,52.260834L368.607727,51.633575L370.080811,50.966370L371.622986,50.248260L373.256592,49.468323L374.666260,48.772491L375.962921,48.104492L377.182739,47.450806L378.341919,46.807251L379.456726,46.169525L380.543182,45.533051L381.617096,44.893555L382.693756,44.247101L383.787476,43.590424L383.804443,43.580292L384.911591,42.921204L384.944824,42.901581L386.079010,42.237518L386.408661,41.933319L389.360565,51.753326L389.181061,51.803467L387.151123,52.332184L385.175171,52.853424L383.210327,53.375122L381.237274,53.899017L381.229004,53.901184L379.237000,54.426666L379.220947,54.430878L377.191040,54.959534L377.167969,54.965515L375.081116,55.498993L375.052216,55.506317L372.889618,56.046234L372.856018,56.054504L370.598633,56.602448L370.561646,56.611298L368.190582,57.168854L368.151520,57.177887L365.647797,57.746674L365.616394,57.753723L362.510223,58.439575L362.485291,58.445007L359.557739,59.076630L359.531097,59.082306L356.743774,59.668732L356.716370,59.674438L354.030853,60.224640L354.003754,60.230133L351.381653,60.753113L351.356140,60.758118L348.759033,61.262909L348.736267,61.267273L346.125793,61.762756L346.106750,61.766357L343.444427,62.261597L343.429718,62.264343L340.677216,62.768341L340.667053,62.770172L337.785950,63.291962L337.780121,63.292999L334.731995,63.841492L334.730072,63.841827L331.476562,64.426025L329.565521,64.769318L329.563446,64.769684L327.771301,65.090851L327.765381,65.091919L326.067322,65.394226L326.057159,65.396057L324.428040,65.682800L324.413513,65.685364L322.828186,65.959900L322.809662,65.963074L321.242950,66.228668L321.221161,66.232300L319.647980,66.492279L319.623901,66.496216L318.019073,66.753815L317.993988,66.757782L316.332428,67.016357L316.307495,67.020172L314.563965,67.282990L314.540192,67.286499L312.689606,67.556915L312.667694,67.560089L310.684906,67.841309L310.662476,67.844452L308.332458,68.164764L308.306641,68.168274L306.114410,68.458679L306.088043,68.462128L304.005005,68.727478L303.979126,68.730682L301.976624,68.975739L301.952454,68.978638L300.001984,69.208252L299.980774,69.210724L298.053650,69.429718L298.036407,69.431641L296.104126,69.644836L296.091675,69.646179L294.125580,69.858368L294.118134,69.859192L292.089691,70.075195L292.087128,70.075470L289.967712,70.300140L287.730652,70.538086L285.349060,70.793945L282.877930,71.062347L280.560516,71.315521L278.364655,71.555420L278.361053,71.555847L276.257599,71.784180L276.249969,71.785034L274.206970,72.003845L274.195251,72.005066L272.180573,72.216309L272.165222,72.217926L270.146729,72.423615L270.128448,72.425446L268.074097,72.627594L268.053833,72.629578L265.931488,72.830170L265.910278,72.832123L263.687866,73.033203L263.666718,73.035065L261.312073,73.238586L261.291840,73.240326L258.772827,73.448334L258.758026,73.449554L256.083954,73.662811L256.071564,73.663788L253.562500,73.857971L253.547607,73.859100L251.169769,74.036407L251.152496,74.037659L248.872162,74.200195L248.853027,74.201538L246.636475,74.351440L246.616211,74.352783L244.429657,74.492249L244.409119,74.493530L242.218842,74.624725L242.199005,74.625885L239.971252,74.750946L239.952942,74.751953L237.653961,74.872986L237.637817,74.873840L235.233887,74.993073L235.220306,74.993713L232.677673,75.113312L232.666687,75.113831L229.951630,75.235901L229.946045,75.236145L227.152435,75.358765L227.147797,75.358948L224.528320,75.471649L224.519562,75.472015L222.039032,75.574646L222.025879,75.575134L219.649139,75.667572L219.631531,75.668213L217.323425,75.750275L217.301788,75.751007L215.027191,75.822571L215.002319,75.823303L212.726044,75.884247L212.699127,75.884888L210.385956,75.935059L210.358246,75.935608L207.973083,75.974854L207.945862,75.975220L205.453522,76.003479L205.427765,76.003693L202.793091,76.020721L202.769592,76.020813L199.957428,76.026550L199.935913,76.026550L197.123779,76.020813L197.100250,76.020721L194.465576,76.003693L194.439819,76.003479L191.947510,75.975220L191.920258,75.974854L189.535065,75.935608L189.507385,75.935059L187.194244,75.884888L187.167328,75.884247L184.891022,75.823303L184.866180,75.822571L182.591522,75.751007L182.569916,75.750275L180.261810,75.668213L180.244202,75.667572L177.867462,75.575134L177.854309,75.574646L175.373779,75.472015L175.365051,75.471649L172.745544,75.358948L172.740906,75.358765L169.947296,75.236145L169.941681,75.235901L167.226624,75.113831L167.215668,75.113312L164.673065,74.993713L164.659454,74.993073L162.255524,74.873840L162.239380,74.872986L159.940399,74.751923L159.922089,74.750916L157.694366,74.625885L157.674500,74.624725L155.484222,74.493530L155.463684,74.492249L153.277130,74.352783L153.256866,74.351440L151.040283,74.201538L151.021149,74.200195L148.740845,74.037659L148.723572,74.036407L146.345764,73.859100L146.330811,73.857971L143.821747,73.663788L143.809387,73.662781L141.135345,73.449554L141.120483,73.448334L138.601532,73.240326L138.581268,73.238586L136.226624,73.035065L136.205505,73.033203L133.983063,72.832123L133.961853,72.830139L131.839508,72.629578L131.819244,72.627594L129.764923,72.425446L129.746582,72.423615L127.728142,72.217926L127.712776,72.216309L125.698097,72.005066L125.686378,72.003845L123.643379,71.785034L123.635735,71.784180L121.532295,71.555847L121.528709,71.555420L119.332726,71.315521L117.012199,71.062012L114.538078,70.793274L112.157173,70.537506L109.923744,70.299957L107.806206,70.075470L107.803673,70.075195L105.775230,69.859192L105.767784,69.858368L103.801720,69.646210L103.789223,69.644836L101.856941,69.431641L101.839714,69.429749L99.912651,69.210754L99.891380,69.208282L97.940895,68.978668L97.916740,68.975769L95.914268,68.730713L95.888390,68.727478L93.805351,68.462128L93.778969,68.458710L91.586739,68.168304L91.560951,68.164795L89.230919,67.844482L89.208443,67.841309L87.225700,67.560089L87.203796,67.556915L85.353218,67.286530L85.329414,67.283020L83.585899,67.020203L83.560974,67.016357L81.899376,66.757812L81.874306,66.753815L80.269447,66.496216L80.245415,66.492279L78.672218,66.232330L78.650421,66.228699L77.083710,65.963074L77.065208,65.959900L75.479858,65.685364L75.465363,65.682831L73.836205,65.396057L73.826035,65.394226L72.127975,65.091919L72.122063,65.090851L70.329918,64.769684L70.327866,64.769318L68.416534,64.425995L65.163277,63.841827L65.161362,63.841492L62.113220,63.292999L62.107399,63.291931L59.226303,62.770172L59.216125,62.768341L56.463623,62.264343L56.448936,62.261597L53.786621,61.766357L53.767563,61.762756L51.157082,61.267273L51.134315,61.262878L48.537209,60.758118L48.511696,60.753082L45.889580,60.230133L45.862473,60.224640L43.176964,59.674438L43.149544,59.668732L40.362221,59.082306L40.335602,59.076630L37.408043,58.445007L37.383118,58.439575L34.276939,57.753723L34.245537,57.746674L31.741814,57.177887L31.702698,57.168854L29.331635,56.611298L29.294662,56.602448L27.037315,56.054504L27.003700,56.046234L24.841110,55.506317L24.812149,55.498993L22.725357,54.965515L22.702309,54.959534L20.672375,54.430878L20.656315,54.426666L18.664303,53.901154L18.656071,53.899017L16.682999,53.375122L14.709915,52.851257L12.726151,52.327972L10.712269,51.803467L8.663906,51.269928L13.833111,42.248566L14.948505,42.901581L14.981709,42.921204L16.088860,43.580261L16.105896,43.590454L17.199566,44.247101L18.293259,44.903748L19.383366,45.552673L20.484295,46.197113L21.611256,46.840973L22.779976,47.488586L24.006603,48.144470L25.307396,48.812988L26.624908,49.462006L26.698242,49.498169L26.698242,49.498169L27.580635,50.046936L28.339020,50.757294L28.944260,51.601990L29.373070,52.548492L29.608986,53.560455L29.642937,54.599060L29.473618,55.624268L29.107552,56.596771L28.558784,57.479156L27.848412,58.237549L27.003738,58.842804L26.057236,59.271606L25.045242,59.507538L24.006680,59.541473L22.981449,59.372162L22.008942,59.006104L21.935368,58.969818L20.537304,58.280182L20.457005,58.239746L19.080048,57.531219L19.003895,57.491272L17.707870,56.797577L17.638485,56.759796L16.409901,56.078461L16.350044,56.044769L15.175442,55.373291L15.127773,55.345734L13.993629,54.681671L13.960415,54.662079L12.853264,54.002991L12.836216,53.992798L11.742546,53.336151L10.648888,52.679504L9.558758,52.030579L8.457817,51.386139L8.439068,51.375122L7.302967,50.703674L6.371361,50.004395L5.614990,49.118530L5.070370,48.088806L4.763824,46.964996L4.710140,45.801361L4.911926,44.654114L5.359428,43.578644L6.031017,42.626862L6.894302,41.844788L7.907558,41.270142L9.021854,40.930725L10.183403,40.842865L11.336086,41.010834L13.384335,41.544342L15.414146,42.072998L15.430199,42.077179L17.422222,42.602692L17.430466,42.604858L19.403538,43.128723L21.376606,43.652588L23.360386,44.175903L25.374252,44.700378L27.437996,45.227936L29.571625,45.760559L31.795364,46.300201L34.129463,46.848907L36.594086,47.408661L39.668861,48.087494L42.571495,48.713684L45.332207,49.294434L47.990295,49.838959L50.585297,50.356476L53.156868,50.856171L55.744576,51.347321L58.387810,51.839020L61.125610,52.340332L63.996544,52.860229L67.038857,53.407654L70.290482,53.991547L72.202087,54.334869L73.992188,54.655670L75.684334,54.956970L77.303322,55.241943L78.874184,55.513977L80.422386,55.776398L81.973785,56.032715L83.554596,56.286438L85.191116,56.541016L86.909721,56.800049L88.736488,57.066895L90.697304,57.345001L93.004845,57.662170L95.171272,57.949127L97.227943,58.211029L99.204552,58.452850L101.130867,58.679596L103.036705,58.896118L104.951775,59.107361L106.905327,59.318176L108.926323,59.533417L111.043175,59.757782L111.045052,59.757996L113.284004,59.996155L113.289528,59.996735L115.676643,60.253174L115.682854,60.253845L118.160210,60.522919L118.163460,60.523285L120.484093,60.776794L122.680168,61.016754L124.780022,61.244720L126.815361,61.462708L128.818329,61.672729L130.821411,61.876831L132.857452,62.077148L134.959503,62.275787L137.160736,62.474915L139.494293,62.676605L141.993011,62.882904L144.652191,63.094940L147.148895,63.288177L149.511810,63.464325L151.774872,63.625610L153.972321,63.774200L156.138611,63.912354L158.308350,64.042267L160.516266,64.166199L162.796936,64.286255L165.184692,64.404663L167.713715,64.523590L170.417816,64.645142L173.205811,64.767548L175.820709,64.880035L178.292480,64.982300L180.656067,65.074158L182.946564,65.155579L185.199585,65.226410L187.451050,65.286652L189.737305,65.336151L192.094757,65.374908L194.559845,65.402740L197.168793,65.419525L199.957428,65.425140L202.748077,65.419434L205.359222,65.402496L207.825806,65.374512L210.183777,65.335632L212.469208,65.285980L214.718628,65.225677L216.968384,65.154846L219.254852,65.073517L221.613983,64.981750L224.081390,64.879669L226.692139,64.767334L229.481140,64.644897L232.190613,64.523102L234.722229,64.404022L237.112579,64.285461L239.395386,64.165192L241.604828,64.041138L243.775238,63.911072L245.941284,63.772888L248.137573,63.624268L250.398804,63.463074L252.759338,63.287048L255.253510,63.093964L257.915192,62.881714L260.419312,62.674866L262.753723,62.473053L264.955048,62.273865L267.056183,62.075195L269.090240,61.875000L271.090424,61.671143L273.089691,61.461487L275.120972,61.243896L277.216797,61.016357L279.409149,60.776825L281.729889,60.523285L281.733154,60.522919L284.210510,60.253845L284.216736,60.253174L286.603821,59.996735L286.609344,59.996155L288.848297,59.757996L288.850189,59.757782L290.969574,59.533112L292.995483,59.317352L294.954071,59.105988L296.873901,58.894165L298.783722,58.677094L300.712982,58.449951L302.691345,58.207794L304.748474,57.945648L306.914368,57.658691L309.218567,57.341827L311.178833,57.063721L313.007477,56.796478L314.727203,56.537201L316.363861,56.282440L317.943634,56.028809L319.492798,55.772736L321.037689,55.510803L322.604584,55.239410L324.219208,54.955170L325.907135,54.654633L327.693329,54.334503L329.602600,53.991577L332.856415,53.407288L335.902649,52.859161L338.777924,52.338470L341.520233,51.836304L344.167816,51.343750L346.759277,50.851807L349.333557,50.351440L351.930145,49.833496L354.588531,49.288757L357.348450,48.708008L360.249390,48.082062L363.330627,47.401642L365.802948,46.839905L368.134918,46.291351L370.355316,45.752258L372.484253,45.220612L374.542114,44.694427L376.548950,44.171692L378.524933,43.650421L380.489746,43.128723L382.462860,42.604858L382.471069,42.602692L384.463135,42.077179L384.479156,42.072998L386.509094,41.544312L388.117828,41.060913L389.229309,40.855072L390.359192,40.889618L391.456024,41.162933L392.469971,41.662598L393.354950,42.365906L394.070648,43.240875L394.584564,44.247681L394.873291,45.340576L394.923737,46.469849L394.733612,47.584137L394.311523,48.632751L393.676636,49.568024L392.857910,50.347443L391.981873,51.018890L391.435516,51.386139L390.301361,52.050201L389.227448,52.689697L388.150726,53.336182L387.057129,53.992798L387.040100,54.002960L385.932953,54.662079L385.899719,54.681671L384.765564,55.345734L384.717896,55.373291L383.543274,56.044769L383.483429,56.078461L382.254852,56.759796L382.185486,56.797577L380.889465,57.491272L380.813293,57.531250L379.436310,58.239746L379.355988,58.280212L377.884613,59.005981L377.822876,59.035950L376.142883,59.837738L376.096497,59.859619L374.503479,60.601044L374.452637,60.624390L372.925751,61.315552L372.871979,61.339539L371.390381,61.990479L371.335754,62.014099L369.878723,62.634827L369.825562,62.657135L368.372162,63.257660L368.322968,63.277710L366.852386,63.868195L366.809235,63.885315L365.300720,64.475739L365.265045,64.489563L363.697693,65.089966L363.670227,65.100403L362.023315,65.720886L362.003998,65.728119L360.256622,66.378662L360.244904,66.383026L358.376251,67.073730L358.360046,67.079681L356.328308,67.823151L356.300110,67.833374L354.384644,68.522003L354.353027,68.533264L352.528198,69.176300L352.493988,69.188232L350.734253,69.794830L350.698608,69.807007L348.978333,70.386383L348.942871,70.398163L347.236420,70.959564L347.202789,70.970520L345.484558,71.523071L345.454132,71.532745L343.698517,72.085693L343.672485,72.093811L341.853882,72.656372L341.832947,72.662781L339.925720,73.244141L339.910034,73.248901L337.888611,73.858215L337.877930,73.861389L335.716675,74.507935L335.705536,74.511230L333.471222,75.174255L333.454041,75.179321L331.353668,75.794861L331.333099,75.800842L329.338013,76.376831L329.314545,76.383545L327.396271,76.927765L327.370453,76.934998L325.500397,77.455383L325.473297,77.462830L323.622864,77.967133L323.595703,77.974487L321.736389,78.470642L321.710388,78.477478L319.813660,78.973328L319.789825,78.979492L317.827057,79.482849L317.806335,79.488159L315.749054,80.006897L315.731781,80.011261L313.551331,80.553284L313.537659,80.556671L311.205566,81.129822L311.196106,81.132141L308.867798,81.699829L308.857422,81.702332L306.671753,82.230591L306.657135,82.234131L304.583923,82.728943L304.565002,82.733459L302.574188,83.200897L302.551208,83.206238L300.612579,83.652374L300.586365,83.658325L298.669800,84.089172L298.641388,84.095459L296.716736,84.516998L296.687469,84.523315L294.724579,84.941650L294.695740,84.947693L292.664490,85.368774L292.637390,85.374329L290.507599,85.804260L290.483032,85.809204L288.224518,86.254028L288.203003,86.258209L285.785736,86.723938L285.770691,86.726807L283.320190,87.191589L283.306152,87.194244L281.005249,87.624268L280.986572,87.627686L278.803772,88.027527L278.780518,88.031738L276.684448,88.406067L276.657043,88.410858L274.616302,88.764252L274.585693,88.769470L272.568817,89.106567L272.536346,89.111877L270.511993,89.437317L270.479034,89.442505L268.415741,89.760925L268.383881,89.765747L266.250244,90.081726L266.220673,90.086029L263.985321,90.404236L263.958954,90.407898L261.590393,90.732941L261.567719,90.735992L259.034546,91.072510L259.015961,91.074921L256.352295,91.419159L256.331940,91.421753L253.830872,91.735168L253.806519,91.738129L251.434479,92.024231L251.406433,92.027527L249.129822,92.289764L249.098877,92.293243L246.884125,92.535217L246.851471,92.538696L244.664917,92.763885L244.631958,92.767181L242.440033,92.979095L242.408356,92.982056L240.177429,93.184265L240.148285,93.186829L237.844788,93.382751L237.819214,93.384888L235.409546,93.578125L235.388092,93.579773L232.838654,93.773804L232.821472,93.775085L230.098694,93.973450L230.090424,93.974030L227.301819,94.172791L227.295410,94.173218L224.679718,94.356445L224.666565,94.357361L222.188751,94.524719L222.168243,94.526062L219.793182,94.677246L219.765259,94.678925L217.457886,94.813568L217.423187,94.815460L215.148468,94.933228L215.108246,94.935181L212.831055,95.035767L212.787231,95.037476L210.472473,95.120544L210.427094,95.121948L208.039764,95.187134L207.994873,95.188171L205.499847,95.235138L205.457184,95.235779L202.819397,95.264191L202.780273,95.264465L199.964691,95.274017L199.928711,95.274017L197.113098,95.264465L197.073975,95.264191L194.436188,95.235779L194.393524,95.235168L191.898499,95.188171L191.853607,95.187134L189.466278,95.121948L189.420868,95.120544L187.106140,95.037476L187.062286,95.035767L184.785095,94.935181L184.744904,94.933228L182.470154,94.815460L182.435455,94.813568L180.128113,94.678925L180.100159,94.677216L177.725098,94.526062L177.704620,94.524689L175.226807,94.357361L175.213593,94.356445L172.597931,94.173218L172.591522,94.172760L169.802948,93.974030L169.794647,93.973450L167.071838,93.775085L167.054688,93.773804L164.505249,93.579773L164.483795,93.578125L162.074127,93.384857L162.048553,93.382751L159.745056,93.186829L159.715912,93.184265L157.484985,92.982056L157.453308,92.979065L155.261383,92.767151L155.228455,92.763855L153.041870,92.538696L153.009216,92.535217L150.794434,92.293243L150.763519,92.289764L148.486908,92.027527L148.458862,92.024200L146.086823,91.738129L146.062439,91.735168L143.561401,91.421753L143.541046,91.419159L140.877380,91.074921L140.858795,91.072510L138.325653,90.736023L138.302948,90.732941L135.934387,90.407898L135.908081,90.404236L133.672668,90.086060L133.643097,90.081726L131.509460,89.765747L131.477600,89.760925L129.414307,89.442566L129.381409,89.437378L127.357048,89.111938L127.324501,89.106598L125.307640,88.769501L125.277061,88.764282L123.236305,88.410889L123.208946,88.406097L121.112877,88.031799L121.089577,88.027588L118.906807,87.627747L118.888145,87.624268L116.587196,87.194275L116.573158,87.191650L114.122673,86.726868L114.107674,86.723999L111.690361,86.258270L111.668800,86.254059L109.410332,85.809235L109.385765,85.804321L107.255959,85.374390L107.228874,85.368835L105.197594,84.947723L105.168770,84.941650L103.205879,84.523376L103.176598,84.517029L101.251930,84.095459L101.223534,84.089172L99.306969,83.658325L99.280754,83.652405L97.342125,83.206299L97.319145,83.200928L95.328316,82.733459L95.309395,82.728973L93.236214,82.234131L93.221596,82.230621L91.035942,81.702362L91.025536,81.699829L88.697212,81.132141L88.687775,81.129822L86.355690,80.556671L86.342010,80.553284L84.161591,80.011261L84.144287,80.006897L82.086990,79.488159L82.066261,79.482849L80.103493,78.979492L80.079681,78.973328L78.182930,78.477478L78.156952,78.470642L76.297638,77.974487L76.270454,77.967133L74.420036,77.462830L74.392929,77.455383L72.522842,76.934998L72.497055,76.927795L70.578758,76.383545L70.555244,76.376831L68.560188,75.800842L68.539650,75.794861L66.439262,75.179321L66.422073,75.174255L64.187798,74.511230L64.176666,74.507935L62.015396,73.861420L62.004700,73.858215L59.983261,73.248901L59.967590,73.244141L58.060364,72.662781L58.039421,72.656372L56.220795,72.093811L56.194801,72.085693L54.439163,71.532776L54.408775,71.523071L52.690529,70.970520L52.656883,70.959564L50.950409,70.398163L50.914963,70.386383L49.194649,69.806976L49.159088,69.794861L47.399330,69.188232L47.365105,69.176300L45.540291,68.533264L45.508659,68.522003L43.593201,67.833374L43.564987,67.823151L41.533257,67.079681L41.517036,67.073730L39.648392,66.382996L39.636703,66.378662L37.889320,65.728119L37.870018,65.720886L36.223083,65.100403L36.195587,65.089966L34.628273,64.489563L34.592598,64.475739L33.084084,63.885315L33.040909,63.868195L31.570351,63.277710L31.521126,63.257660L30.067741,62.657104L30.014618,62.634827L28.557556,62.014099L28.502914,61.990479L27.021347,61.339539L26.967560,61.315552L25.440681,60.624390L25.389839,60.601044L23.796818,59.859589L23.750435,59.837738L22.070454,59.035950L22.070454,59.035950L21.181046,58.498596L20.413563,57.798065L19.797485,56.961273L19.356503,56.020355L19.107567,55.011505L19.060223,53.973450L19.216286,52.946136L19.569786,51.968994L20.107132,51.079590L20.807655,50.312103L21.644455,49.696045L22.585358,49.255066L23.594219,49.006104L24.632259,48.958740L25.659592,49.114838L26.636726,49.468323L28.299919,50.262115z" />
				<path fill-opacity="1" fill="#000000" stroke="none" d="M20.379002,58.096649L19.066990,57.357147L17.806320,56.646637L16.588440,55.960175L15.404789,55.293060L14.246815,54.640411L13.105930,53.997375L11.973618,53.359161L10.841312,52.720947L9.700455,52.077942L8.542469,51.425293L8.476795,51.387665L7.331673,50.720490L7.331673,50.720490L6.489410,50.111938L5.782059,49.350739L5.236805,48.466156L4.874588,47.492218L4.709351,46.466309L4.747414,45.427887L4.987350,44.416840L5.419907,43.472046L6.028488,42.629791L6.789684,41.922424L7.674244,41.377167L8.648193,41.014984L9.674088,40.849701L10.712517,40.887787L11.723553,41.127716L12.668358,41.560303L13.813480,42.227417L14.905788,42.842468L16.046661,43.485474L17.178978,44.123688L18.311295,44.761871L19.452152,45.404907L20.610138,46.057556L21.793789,46.724701L23.011665,47.411133L24.272339,48.121674L25.584351,48.861115L26.956268,49.634369L26.956268,49.634369L27.807129,50.230865L28.525284,50.981873L29.083115,51.858582L29.459198,52.827240L29.639076,53.850708L29.615829,54.889557L29.390373,55.903931L28.971336,56.854797L28.374855,57.705688L27.623848,58.423828L26.747147,58.981659L25.778473,59.357727L24.755043,59.537598L23.716183,59.514374L22.701813,59.288910L21.750916,58.869873L20.392731,58.104370z" />
				<polygon fill="#000000" stroke="none" fill-opacity="1" points="10.000000,46.140381 11.136089,45.586761 12.270233,45.039276 13.377384,44.495850 14.471069,43.954437 15.564739,43.413025 16.671890,42.869629 17.806034,42.322113 18.980637,41.768494 20.209209,41.206726 21.505222,40.634796 22.882183,40.050659 24.353573,39.452240 26.033554,38.791168 27.626579,38.179840 29.153458,37.609985 30.635025,37.073273 32.092102,36.561493 33.545486,36.066315 35.016029,35.579468 36.524551,35.092682 38.091843,34.597626 39.738792,34.086029 41.486176,33.549683 43.354820,32.980164 45.386551,32.367188 47.302025,31.799408 49.126823,31.269196 50.886581,30.769073 52.606895,30.291351 54.313362,29.828491 56.031609,29.372894 57.787239,28.916962 59.605850,28.453156 61.513092,27.973846 63.534515,27.471466 65.695763,26.938416 67.930031,26.391754 70.030434,25.884247 72.025490,25.409332 73.943787,24.960602 75.813873,24.531586 77.664276,24.115784 79.523575,23.706726 81.420319,23.297882 83.383080,22.882843 85.440392,22.455109 87.620804,22.008179 89.952873,21.535614 92.281197,21.067535 94.466850,20.631989 96.540031,20.223999 98.530861,19.838593 100.469490,19.470734 102.386055,19.115570 104.310707,18.767975 106.273613,18.423096 108.304878,18.075867 110.434685,17.721375 112.693153,17.354614 115.110466,16.970642 117.560951,16.587433 119.861885,16.232880 122.044670,15.903198 124.140755,15.594574 126.181511,15.303223 128.198364,15.025299 130.222717,14.756958 132.286011,14.494415 134.419647,14.233917 136.655060,13.971558 139.023621,13.703552 141.556763,13.426147 144.220428,13.142303 146.721497,12.883911 149.093506,12.648041 151.370148,12.431824 153.584930,12.232300 155.771484,12.046631 157.963440,11.871887 160.194336,11.705170 162.497833,11.543610 164.907501,11.384308 167.456940,11.224304 170.179749,11.060760 172.968323,10.896942 175.583984,10.745850 178.061798,10.607880 180.436859,10.483215 182.744232,10.372253 185.018951,10.275146 187.296173,10.192200 189.610901,10.123749 191.998230,10.070007 194.493256,10.031342 197.131042,10.007843 199.946686,10.000000 202.762299,10.007843 205.400085,10.031342 207.895111,10.070007 210.282440,10.123749 212.597168,10.192200 214.874390,10.275146 217.149109,10.372253 219.456482,10.483246 221.831543,10.607880 224.309357,10.745850 226.925018,10.896912 229.713562,11.060760 232.436401,11.224304 234.985840,11.384308 237.395508,11.543610 239.699005,11.705170 241.929901,11.871887 244.121857,12.046631 246.308411,12.232300 248.523224,12.431824 250.799835,12.648041 253.171875,12.883911 255.672943,13.142303 258.336578,13.426147 260.869751,13.703552 263.238281,13.971558 265.473694,14.233917 267.607330,14.494415 269.670654,14.756958 271.695007,15.025299 273.711853,15.303223 275.752625,15.594574 277.848694,15.903198 280.031494,16.232880 282.332428,16.587402 284.782898,16.970642 287.200226,17.354614 289.458679,17.721375 291.588501,18.075897 293.619751,18.423096 295.582642,18.767975 297.507294,19.115570 299.423889,19.470764 301.362518,19.838623 303.353333,20.224030 305.426514,20.632050 307.612152,21.067566 309.940491,21.535645 312.272552,22.008240 314.453003,22.455139 316.510284,22.882904 318.473083,23.297913 320.369812,23.706726 322.229126,24.115784 324.079498,24.531586 325.949585,24.960632 327.867920,25.409363 329.862976,25.884247 331.963348,26.391754 334.197601,26.938416 336.358856,27.471466 338.380280,27.973846 340.287537,28.453156 342.106140,28.916962 343.861755,29.372894 345.580017,29.828491 347.286499,30.291351 349.006775,30.769073 350.766541,31.269196 352.591309,31.799408 354.506805,32.367188 356.538483,32.980164 358.407135,33.549683 360.154510,34.086029 361.801453,34.597626 363.368744,35.092651 364.877289,35.579468 366.347839,36.066315 367.801208,36.561493 369.258270,37.073273 370.739838,37.609955 372.266724,38.179840 373.859741,38.791138 375.539734,39.452240 377.011139,40.050659 378.388092,40.634796 379.684113,41.206726 380.912689,41.768494 382.087311,42.322083 383.221466,42.869629 384.328613,43.413025 385.422272,43.954437 386.515961,44.495850 387.623138,45.039276 388.757263,45.586761 389.633301,46.140381 387.845093,45.693756 385.815155,45.251099 383.823120,44.811157 381.850037,44.372589 379.876984,43.933990 377.884979,43.494049 375.855011,43.051392 373.768219,42.604767 371.605682,42.152740 369.348267,41.693970 366.977203,41.227173 364.473511,40.750977 361.367310,40.176788 358.439789,39.647949 355.652466,39.156982 352.966949,38.696320 350.344849,38.258514 347.747742,37.835907 345.137268,37.421051 342.474976,37.006439 339.722473,36.584442 336.841400,36.147644 333.793243,35.688416 330.539734,35.199310 328.628387,34.911865 326.836243,34.642975 325.138214,34.389862 323.509033,34.149750 321.923706,33.919891 320.356964,33.697540 318.783752,33.479889 317.178925,33.264191 315.517365,33.047729 313.773834,32.827698 311.923248,32.601318 309.940491,32.365875 307.610504,32.097656 305.418274,31.854492 303.335236,31.632355 301.332733,31.427216 299.382233,31.234955 297.455170,31.051605 295.522858,30.873138 293.556824,30.695496 291.528381,30.514618 289.408966,30.326508 287.169983,30.127136 284.782898,29.912415 282.305542,29.687134 279.984894,29.474915 277.788910,29.274048 275.685486,29.082825 273.642487,28.899628 271.627808,28.722778 269.609344,28.550537 267.555023,28.381317 265.432648,28.213379 263.210205,28.045044 260.855591,27.874603 258.336578,27.700439 255.662537,27.521912 253.153473,27.359314 250.775665,27.210907 248.495331,27.074829 246.278748,26.949310 244.092194,26.832520 241.901886,26.722687 239.674164,26.617981 237.375183,26.516602 234.971283,26.416779 232.428650,26.316650 229.713562,26.214478 226.919952,26.111816 224.300476,26.017456 221.819946,25.931549 219.443207,25.854187 217.135101,25.785492 214.860474,25.725555 212.584167,25.674561 210.271027,25.632507 207.885834,25.599640 205.393524,25.576050 202.758850,25.561768 199.946686,25.556976 197.134521,25.561768 194.499847,25.576050 192.007538,25.599640 189.622345,25.632507 187.309174,25.674561 185.032867,25.725555 182.758240,25.785492 180.450134,25.854187 178.073395,25.931549 175.592865,26.017456 172.973389,26.111816 170.179749,26.214478 167.464691,26.316650 164.922089,26.416779 162.518158,26.516602 160.219177,26.617981 157.991425,26.722687 155.801147,26.832520 153.614594,26.949310 151.398010,27.074829 149.117676,27.210907 146.739868,27.359314 144.230804,27.521912 141.556763,27.700439 139.037781,27.874603 136.683136,28.045044 134.460693,28.213379 132.338348,28.381317 130.283997,28.550537 128.265533,28.722778 126.250877,28.899628 124.207878,29.082825 122.104439,29.274048 119.908470,29.474915 117.587837,29.687134 115.110466,29.912415 112.723351,30.127136 110.484398,30.326508 108.364983,30.514618 106.336540,30.695465 104.370491,30.873108 102.438210,31.051605 100.511131,31.234955 98.560646,31.427185 96.558174,31.632355 94.475121,31.854492 92.282906,32.097656 89.952873,32.365845 87.970139,32.601288 86.119560,32.827667 84.376045,33.047729 82.714447,33.264191 81.109604,33.479858 79.536400,33.697540 77.969696,33.919891 76.384338,34.149750 74.755180,34.389862 73.057114,34.642944 71.264984,34.911865 69.353645,35.199310 66.100113,35.688416 63.051971,36.147614 60.170876,36.584442 57.418373,37.006439 54.756065,37.421082 52.145584,37.835907 49.548492,38.258514 46.926392,38.696350 44.240883,39.156982 41.453545,39.647949 38.525993,40.176788 35.419823,40.750977 32.916077,41.227173 30.545013,41.693970 28.287666,42.152740 26.125076,42.604767 24.038288,43.051392 22.008358,43.494049 20.016346,43.933990 18.043274,44.372589 16.070206,44.811157 14.078182,45.251099 12.048248,45.693756 10.000000,46.140381 10.000000,46.140381 10.000000,46.140381 10.000000,46.140381 10.000000,46.140381 10.000000,46.140381 10.000000,46.140381 10.000000,46.140381 10.000000,46.140381 10.000000,46.140381 10.000000,46.140381 10.000000,46.140381 10.000000,46.140381" />
				<polygon fill="#000000" stroke="none" fill-opacity="1" points="24.353600,54.252136 26.033562,55.053925 27.626579,55.795380 29.153473,56.486542 30.635040,57.137451 32.092102,57.758179 33.545486,58.358734 35.016029,58.949219 36.524551,59.539642 38.091843,60.140045 39.738777,60.760529 41.486160,61.411072 43.354805,62.101776 45.386536,62.845245 47.301994,63.533875 49.126808,64.176910 50.886559,64.783539 52.606873,65.362946 54.313332,65.924316 56.031586,66.476898 57.787209,67.029846 59.605843,67.592407 61.513069,68.173737 63.534492,68.783051 65.695763,69.429565 67.930031,70.092560 70.030418,70.708130 72.025482,71.284088 73.943779,71.828308 75.813858,72.348633 77.664268,72.852966 79.523575,73.349121 81.420319,73.844971 83.383080,74.348328 85.440376,74.867126 87.620796,75.409149 89.952873,75.982300 92.281197,76.549988 94.466850,77.078247 96.540031,77.573120 98.530861,78.040588 100.469490,78.486694 102.386055,78.917511 104.310707,79.339050 106.273613,79.757385 108.304878,80.178497 110.434685,80.608459 112.693153,81.053284 115.110466,81.518982 117.560951,81.983795 119.861885,82.413788 122.044670,82.813660 124.140755,83.187927 126.181511,83.541321 128.198364,83.878418 130.222717,84.203857 132.286011,84.522247 134.419647,84.838257 136.655060,85.156433 139.023590,85.481445 141.556763,85.817932 144.220428,86.162170 146.721497,86.475586 149.093536,86.761627 151.370148,87.023895 153.584930,87.265869 155.771484,87.491058 157.963440,87.703003 160.194366,87.905182 162.497833,88.101135 164.907501,88.294373 167.456940,88.488403 170.179749,88.686737 172.968323,88.885498 175.583984,89.068695 178.061798,89.236023 180.436859,89.387207 182.744232,89.521851 185.018982,89.639648 187.296173,89.740173 189.610931,89.823242 191.998260,89.888428 194.493286,89.935364 197.131073,89.963806 199.946686,89.973328 202.762299,89.963806 205.400085,89.935364 207.895111,89.888428 210.282440,89.823242 212.597168,89.740173 214.874390,89.639648 217.149109,89.521851 219.456482,89.387207 221.831543,89.236053 224.309357,89.068726 226.925018,88.885498 229.713562,88.686768 232.436401,88.488403 234.985840,88.294373 237.395508,88.101135 239.699005,87.905182 241.929901,87.703003 244.121857,87.491058 246.308411,87.265869 248.523193,87.023895 250.799835,86.761627 253.171844,86.475586 255.672882,86.162170 258.336578,85.817932 260.869751,85.481445 263.238281,85.156433 265.473694,84.838226 267.607330,84.522217 269.670654,84.203827 271.695007,83.878387 273.711853,83.541290 275.752625,83.187866 277.848663,82.813599 280.031494,82.413757 282.332428,81.983765 284.782898,81.518951 287.200226,81.053223 289.458679,80.608398 291.588501,80.178467 293.619751,79.757324 295.582642,79.339020 297.507294,78.917480 299.423859,78.486694 301.362457,78.040527 303.353333,77.573090 305.426483,77.078247 307.612152,76.549988 309.940460,75.982300 312.272552,75.409149 314.452942,74.867126 316.510254,74.348328 318.472992,73.844971 320.369720,73.349121 322.229034,72.852966 324.079468,72.348633 325.949554,71.828308 327.867798,71.284088 329.862885,70.708130 331.963287,70.092560 334.197571,69.429565 336.358826,68.783051 338.380249,68.173737 340.287476,67.592407 342.106079,67.029846 343.861694,66.476898 345.579956,65.924316 347.286438,65.362915 349.006775,64.783539 350.766510,64.176910 352.591309,63.533875 354.506775,62.845245 356.538513,62.101776 358.407166,61.411072 360.154541,60.760529 361.801453,60.140045 363.368744,59.539642 364.877289,58.949219 366.347839,58.358734 367.801239,57.758179 369.258270,57.137451 370.739838,56.486542 372.266724,55.795380 373.859741,55.053925 375.539734,54.252136 377.011139,53.526367 378.388092,52.817871 379.684113,52.124176 380.912689,51.442871 382.087311,50.771423 383.221466,50.107361 384.328613,49.448242 385.422272,48.791626 386.515961,48.135010 387.623138,47.475891 388.757263,46.811829 389.633301,46.140381 387.845093,46.673889 385.815155,47.202576 383.823120,47.728058 381.850037,48.251923 379.876984,48.775787 377.884979,49.301270 375.855011,49.829956 373.768219,50.363464 371.605682,50.903381 369.348267,51.451324 366.977203,52.008881 364.473511,52.577667 361.367310,53.263550 358.439789,53.895172 355.652466,54.481598 352.966949,55.031799 350.344849,55.554779 347.747742,56.059540 345.137268,56.555054 342.474976,57.050323 339.722473,57.554321 336.841400,58.076080 333.793243,58.624573 330.539734,59.208801 328.628387,59.552094 326.836243,59.873260 325.138214,60.175598 323.509033,60.462402 321.923706,60.736908 320.356964,61.002533 318.783752,61.262512 317.178925,61.520111 315.517365,61.778687 313.773834,62.041504 311.923248,62.311890 309.940491,62.593140 307.610504,62.913483 305.418274,63.203888 303.335236,63.469238 301.332733,63.714294 299.382233,63.943909 297.455170,64.162903 295.522858,64.376068 293.556824,64.588257 291.528381,64.804321 289.408966,65.028992 287.169983,65.267120 284.782898,65.523560 282.305542,65.792633 279.984894,66.046173 277.788910,66.286102 275.685486,66.514465 273.642487,66.733276 271.627808,66.944519 269.609344,67.150208 267.555023,67.352356 265.432648,67.552979 263.210205,67.754059 260.855591,67.957611 258.336578,68.165619 255.662537,68.378876 253.153473,68.573090 250.775665,68.750366 248.495331,68.912903 246.278748,69.062836 244.092194,69.202301 241.901886,69.333496 239.674164,69.458557 237.375183,69.579620 234.971283,69.698883 232.428650,69.818481 229.713562,69.940521 226.919952,70.063141 224.300476,70.175842 221.819946,70.278473 219.443207,70.370850 217.135101,70.452911 214.860474,70.524506 212.584167,70.585449 210.271027,70.635620 207.885834,70.674866 205.393524,70.703094 202.758850,70.720123 199.946686,70.725830 197.134521,70.720123 194.499847,70.703094 192.007538,70.674866 189.622345,70.635620 187.309174,70.585449 185.032867,70.524506 182.758240,70.452911 180.450134,70.370850 178.073395,70.278473 175.592865,70.175842 172.973389,70.063141 170.179749,69.940521 167.464691,69.818481 164.922089,69.698883 162.518158,69.579620 160.219177,69.458557 157.991425,69.333496 155.801147,69.202301 153.614594,69.062836 151.398010,68.912903 149.117676,68.750366 146.739868,68.573090 144.230804,68.378876 141.556763,68.165619 139.037781,67.957611 136.683136,67.754059 134.460693,67.552979 132.338348,67.352356 130.283997,67.150208 128.265533,66.944519 126.250877,66.733276 124.207878,66.514465 122.104439,66.286102 119.908470,66.046173 117.587837,65.792633 115.110466,65.523560 112.723351,65.267120 110.484398,65.028992 108.364983,64.804321 106.336540,64.588257 104.370491,64.376099 102.438210,64.162903 100.511131,63.943909 98.560646,63.714325 96.558174,63.469269 94.475121,63.203918 92.282906,62.913513 89.952873,62.593170 87.970139,62.311920 86.119560,62.041534 84.376045,61.778687 82.714447,61.520142 81.109604,61.262512 79.536400,61.002533 77.969696,60.736938 76.384338,60.462402 74.755180,60.175598 73.057114,59.873260 71.264984,59.552094 69.353645,59.208801 66.100113,58.624573 63.051971,58.076080 60.170876,57.554321 57.418373,57.050323 54.756065,56.555054 52.145584,56.059509 49.548492,55.554779 46.926392,55.031799 44.240883,54.481598 41.453545,53.895172 38.525993,53.263550 35.419823,52.577667 32.916077,52.008881 30.545013,51.451324 28.287666,50.903381 26.125069,50.363464 24.038273,49.829956 22.008343,49.301270 20.016335,48.775818 18.043262,48.251923 16.070190,47.728058 14.078167,47.202576 12.048237,46.673889 10.000000,46.140381 11.136089,46.811829 12.270233,47.475891 13.377384,48.135010 14.471069,48.791626 15.564739,49.448242 16.671890,50.107361 17.806034,50.771423 18.980652,51.442871 20.209225,52.124176 21.505249,52.817871 22.882210,53.526367 24.280014,54.215851" />
				<polygon stroke="#000000" stroke-opacity="1" fill="none" stroke-linecap="round" stroke-width="19.3684692" points="153.953613,50.794403 154.345245,45.939575 155.485962,41.314575 157.324677,36.958282 159.810181,32.908478 162.891296,29.201996 166.516876,25.874756 170.635712,22.962219 175.196716,20.499390 180.148651,18.521301 185.440338,17.063324 191.020691,16.161438 196.838470,15.852386 202.656250,16.161438 208.236572,17.063324 213.528259,18.521301 218.480194,20.499359 223.041168,22.962219 227.160034,25.874756 230.785614,29.201996 233.866730,32.908478 236.352203,36.958282 238.190918,41.314575 239.331635,45.939575 239.723267,50.794403 239.331635,55.649261 238.190918,60.274292 236.352203,64.630554 233.866760,68.680389 230.785614,72.386841 227.160034,75.714081 223.041168,78.626648 218.480194,81.089478 213.528259,83.067566 208.236572,84.525513 202.656250,85.427429 196.838470,85.736481 191.020691,85.427429 185.440338,84.525513 180.148651,83.067566 175.196716,81.089478 170.635742,78.626648 166.516876,75.714111 162.891296,72.386871 159.810181,68.680389 157.324677,64.630554 155.485992,60.274292 154.345245,55.649261 153.973206,51.037964" />
			</g>
		</g>
	</g>
</svg>
