<?xml version="1.0" encoding="UTF-8"?>
<!DOCTYPE svg PUBLIC "-//W3C//DTD SVG 1.1//EN" "http://www.w3.org/Graphics/SVG/1.1/DTD/svg11.dtd">
<svg version="1.0" x="0px" y="0px" xmlns="http://www.w3.org/2000/svg" width="271px" height="136px" viewBox="0 0 271 136">
	<g id="blender_frame_1">
		<g id="blender_object_GPencil">
			<g id="GP_Layer">
				<path fill-opacity="1" fill="#000000" stroke="none" d="M8.137651,64.854156L8.859762,64.006226L9.572643,63.155304L10.285728,62.297028L11.008207,61.427460L11.017595,61.416229L11.748976,60.543427L11.767492,60.521484L12.516708,59.642120L12.543818,59.610687L13.319773,58.721527L13.354671,58.682129L14.166265,57.779877L14.208078,57.734222L15.064222,56.815643L15.111727,56.765656L16.021345,55.827423L16.073374,55.774872L17.045378,54.813751L17.086718,54.773560L18.196512,53.711792L18.228403,53.681671L19.280745,52.699799L19.316488,52.666901L20.325144,51.751648L20.363882,51.717010L21.342600,50.855042L21.382982,50.820038L22.345530,49.998016L22.385714,49.964203L23.345827,49.168915L23.383963,49.137787L24.355391,48.355865L24.389547,48.328705L25.386076,47.546844L25.414816,47.524536L26.450178,46.729431L26.472620,46.712311L27.560591,45.890686L27.576513,45.878754L28.730833,45.017242L28.740553,45.010010L29.974981,44.095367L29.988520,44.085358L31.330690,43.100861L31.354483,43.083557L32.619827,42.171600L32.646866,42.152313L33.852341,41.300781L33.881966,41.280090L35.044456,40.476776L35.075737,40.455414L36.212166,39.688141L36.243790,39.667023L37.371101,38.923615L37.401543,38.903778L38.536613,38.172028L38.564499,38.154266L39.724266,37.421997L39.748383,37.406891L40.949776,36.661957L40.969337,36.649933L42.229240,35.880096L42.244049,35.871094L43.579407,35.064178L43.589523,35.058136L45.017227,34.201996L45.027847,34.195648L46.503807,33.317657L46.520271,33.307922L47.907791,32.492767L47.927597,32.481232L49.245537,31.718475L49.268417,31.705383L50.535652,30.984680L50.560951,30.970428L51.796310,30.281342L51.823196,30.266510L53.045578,29.598663L53.072807,29.583954L54.301064,28.926910L54.327354,28.912994L55.580353,28.256378L55.604645,28.243774L56.901237,27.577179L56.922592,27.566284L58.281670,26.879303L58.299530,26.870331L59.739914,26.152496L59.754181,26.145447L61.294746,25.386444L61.304634,25.381561L62.842720,24.629791L62.853630,24.624512L64.297485,23.924957L64.312889,23.917572L65.682426,23.262238L65.702499,23.252716L67.017639,22.633698L67.042152,22.622284L68.322792,22.031494L68.351013,22.018646L69.617096,21.448151L69.647949,21.434418L70.919388,20.876190L70.951469,20.862274L72.248146,20.308350L72.279961,20.294952L73.621826,19.737274L73.652077,19.724884L75.059036,19.155518L75.086655,19.144501L76.578606,18.555389L76.602951,18.545929L78.199829,17.929169L78.216934,17.922638L79.835716,17.307098L79.851776,17.301056L81.371765,16.731628L81.393188,16.723663L82.835136,16.194183L82.862000,16.184448L84.246666,15.688812L84.278503,15.677582L85.626625,15.209595L85.662460,15.197357L86.994804,14.750946L87.033211,14.738342L88.370514,14.307404L88.409737,14.295013L89.772743,13.873383L89.811012,13.861755L91.220490,13.443329L91.256226,13.432922L92.732925,13.011566L92.764992,13.002563L94.329659,12.572144L94.357384,12.564636L96.030777,12.119049L96.053673,12.113037L97.813301,11.657196L97.838371,11.650787L99.490578,11.235748L99.520782,11.228333L101.087738,10.849518L101.122681,10.841217L102.626610,10.493927L102.665375,10.485199L104.128464,10.164764L104.169617,10.156006L105.614059,9.857788L105.655777,9.849457L107.103775,9.568817L107.144142,9.561218L108.617874,9.293488L108.655167,9.286896L110.176842,9.027405L110.209732,9.021973L111.801552,8.766083L111.829201,8.761749L113.513359,8.504791L113.535515,8.501495L115.334206,8.238861L115.344933,8.237274L117.187065,7.974091L117.195381,7.972931L118.923286,7.730316L118.940376,7.727936L120.577232,7.506317L120.603889,7.502838L122.172844,7.302643L122.209206,7.298187L123.733437,7.119904L123.778786,7.114899L125.281487,6.958954L125.334160,6.953888L126.838478,6.820709L126.896111,6.816101L128.425232,6.706146L128.485062,6.702362L130.062149,6.616058L130.121429,6.613312L131.769653,6.551117L131.826050,6.549438L133.568573,6.511810L133.620392,6.511078L135.480392,6.498444L135.528015,6.498444L137.388000,6.511078L137.439819,6.511810L139.182327,6.549438L139.238724,6.551117L140.886963,6.613312L140.946243,6.616058L142.523331,6.702362L142.583145,6.706146L144.112274,6.816101L144.169907,6.820709L145.674240,6.953888L145.726913,6.958954L147.229599,7.114899L147.274948,7.119904L148.799179,7.298218L148.835526,7.302643L150.404480,7.502838L150.431152,7.506317L152.067993,7.727936L152.085098,7.730316L153.812988,7.972931L153.821320,7.974091L155.663452,8.237274L155.674164,8.238861L157.472855,8.501495L157.495010,8.504791L159.179169,8.761749L159.206818,8.766083L160.798645,9.021973L160.831528,9.027405L162.353210,9.286896L162.390503,9.293488L163.864227,9.561218L163.904602,9.568817L165.352585,9.849457L165.394318,9.857788L166.838760,10.156006L166.879913,10.164764L168.343002,10.485199L168.381775,10.493927L169.885712,10.841217L169.920639,10.849518L171.487625,11.228333L171.517822,11.235748L173.170013,11.650787L173.195114,11.657196L174.954712,12.113037L174.977615,12.119049L176.651001,12.564636L176.678711,12.572144L178.243393,13.002563L178.275467,13.011566L179.752151,13.432922L179.787903,13.443329L181.197357,13.861755L181.235641,13.873383L182.598648,14.295013L182.637878,14.307404L183.975174,14.738342L184.013565,14.750946L185.345917,15.197357L185.381775,15.209595L186.729904,15.677582L186.761719,15.688812L188.146393,16.184448L188.173248,16.194183L189.615219,16.723663L189.636642,16.731628L191.156647,17.301056L191.172684,17.307098L192.791473,17.922638L192.808578,17.929169L194.405457,18.545929L194.429810,18.555420L195.921768,19.144501L195.949371,19.155548L197.356308,19.724884L197.386566,19.737305L198.728439,20.294952L198.760254,20.308380L200.056946,20.862335L200.089035,20.876221L201.360458,21.434448L201.391312,21.448151L202.657394,22.018677L202.685608,22.031555L203.966248,22.622345L203.990738,22.633728L205.305893,23.252777L205.325958,23.262299L206.695511,23.917572L206.710922,23.925018L208.154770,24.624542L208.165665,24.629852L209.703751,25.381653L209.713623,25.386505L211.254211,26.145477L211.268463,26.152557L212.708862,26.870361L212.726761,26.879333L214.085831,27.566315L214.107147,27.577209L215.403732,28.243805L215.428024,28.256409L216.681015,28.913025L216.707336,28.926971L217.935608,29.583984L217.962845,29.598694L219.185226,30.266541L219.212082,30.281342L220.447433,30.970428L220.472763,30.984680L221.740005,31.705383L221.762878,31.718506L223.080826,32.481232L223.100632,32.492767L224.488129,33.307922L224.504578,33.317657L225.980560,34.195648L225.991165,34.201996L227.418884,35.058136L227.429001,35.064178L228.764343,35.871094L228.779129,35.880066L230.039047,36.649902L230.058655,36.661957L231.260040,37.406891L231.284164,37.421997L232.443924,38.154266L232.471786,38.172028L233.606842,38.903778L233.637314,38.923615L234.764603,39.667023L234.796234,39.688141L235.932678,40.455414L235.963943,40.476776L237.126434,41.280090L237.156082,41.300812L238.361557,42.152313L238.388580,42.171600L239.653946,43.083557L239.677689,43.100861L241.019852,44.085358L241.033401,44.095367L242.267838,45.010040L242.277542,45.017242L243.431870,45.878754L243.447769,45.890686L244.535721,46.712311L244.558182,46.729431L245.593552,47.524536L245.622269,47.546844L246.618790,48.328705L246.652969,48.355865L247.624405,49.137787L247.662491,49.168915L248.622604,49.964203L248.662827,49.998016L249.625381,50.820007L249.665756,50.855011L250.644455,51.717010L250.683243,51.751648L251.691879,52.666901L251.727615,52.699799L252.779953,53.681641L252.811813,53.711761L253.921646,54.773529L253.963028,54.813782L254.935013,55.774872L254.986984,55.827362L255.896622,56.765594L255.944138,56.815643L256.800293,57.734222L256.842072,57.779816L257.653656,58.682068L257.688599,58.721527L258.464569,59.610687L258.491669,59.642120L259.240875,60.521454L259.259399,60.543396L259.990784,61.416229L260.000153,61.427460L260.722626,62.297028L261.445099,63.166534L262.167114,64.028107L262.897827,64.885590L263.646667,65.743286L264.089417,66.381683L264.380463,67.102020L264.505554,67.868744L264.458496,68.644226L264.241608,69.390228L263.865540,70.070068L263.348846,70.650238L262.716949,71.102203L262.000946,71.403717L261.236084,71.539917L260.459991,71.504120L259.710907,71.298065L259.025726,70.931946L257.647186,69.985016L257.622192,69.967651L256.281189,69.029266L256.264008,69.017120L254.948074,68.084412L254.939316,68.078186L253.635880,67.148346L252.332504,66.218445L251.025314,65.291962L249.701523,64.365692L248.348038,63.436066L246.951370,62.499390L245.497971,61.551849L243.974136,60.589447L242.366165,59.608429L240.351974,58.413757L238.448502,57.310455L236.640198,56.288452L234.900665,55.331085L233.203171,54.421631L231.520676,53.543243L229.826126,52.679199L228.092758,51.812897L226.294220,50.928070L224.404694,50.008698L222.399002,49.038971L220.252304,48.003235L220.251953,48.003052L218.989319,47.393677L217.808228,46.824951L216.694534,46.292206L215.632248,45.789764L214.604935,45.311829L213.595688,44.852234L212.587021,44.404572L211.560989,43.962250L210.499329,43.518555L209.383789,43.066956L208.196304,42.600983L206.919052,42.114349L205.413513,41.558380L204.004440,41.057098L202.668747,40.600250L201.385971,40.178680L200.135269,39.783295L198.895706,39.404999L197.646606,39.034821L196.367737,38.664032L195.039719,38.284058L193.643723,37.886444L193.640732,37.885590L192.161697,37.462860L192.152832,37.460297L190.575912,37.005157L190.565964,37.002289L188.929413,36.524628L188.924210,36.523102L187.391205,36.073151L185.940384,35.647186L184.556641,35.243530L183.219269,34.858704L181.907135,34.489075L180.598572,34.130859L179.271164,33.780060L177.902252,33.432526L176.468933,33.084290L174.948380,32.731293L173.318039,32.369720L171.576370,31.996613L169.939621,31.656281L168.393982,31.346710L166.916763,31.063934L165.485016,30.803894L164.075150,30.562408L162.663422,30.335419L161.225937,30.118744L159.738846,29.908478L158.178802,29.700653L156.522797,29.491486L154.748276,29.277191L152.912598,29.060699L151.190231,28.861603L149.566803,28.681183L148.019775,28.519623L146.525894,28.377045L145.061264,28.253448L143.601273,28.148712L142.120697,28.062744L140.594086,27.995575L138.995895,27.947266L137.301086,27.918121L135.485107,27.908478L133.665573,27.918610L131.966843,27.948334L130.366074,27.997345L128.838669,28.065247L127.359612,28.151825L125.903374,28.256866L124.444496,28.380493L122.957756,28.522736L121.418541,28.683655L119.802925,28.863312L118.087715,29.061615L116.250313,29.278351L114.466545,29.493805L112.805916,29.703705L111.241562,29.912323L109.750832,30.123383L108.310822,30.340729L106.898056,30.568268L105.488777,30.809998L104.059105,31.070038L102.585213,31.352448L101.043610,31.661407L99.411270,32.001007L97.665520,32.375153L96.026306,32.738983L94.504517,33.092590L93.071312,33.441193L91.704124,33.788605L90.380119,34.138855L89.076447,34.495972L87.770348,34.864044L86.439529,35.247101L85.062248,35.648895L83.617325,36.073090L82.084167,36.523102L82.079002,36.524628L80.442451,37.002289L80.432480,37.005157L78.855553,37.460297L78.846718,37.462860L77.367653,37.885590L77.364655,37.886444L75.964569,38.285217L74.628700,38.667480L73.341827,39.040680L72.085320,39.413208L70.839661,39.793671L69.584633,40.190826L68.299568,40.613617L66.963577,41.071167L65.555801,41.572540L64.055695,42.126984L62.779579,42.613556L61.589645,43.080841L60.472847,43.533417L59.411407,43.977509L58.387276,44.419464L57.382149,44.865967L56.377769,45.323639L55.356194,45.799103L54.299927,46.298798L53.192123,46.828827L52.016296,47.395050L50.756462,48.003052L50.756088,48.003235L48.606796,49.040222L46.595795,50.012543L44.700417,50.934784L42.895874,51.822693L41.156891,52.691986L39.457764,53.558716L37.772072,54.439178L36.073029,55.349945L34.333656,56.307709L32.526871,57.329376L30.625944,58.431610L28.604456,59.631134L26.988199,60.618011L25.467886,61.579132L24.019186,62.524414L22.628401,63.457733L21.281801,64.383026L19.965864,65.304108L18.667120,66.224701L17.372461,67.148346L16.069052,68.078186L16.060320,68.084412L14.744400,69.017120L14.727180,69.029266L13.386198,69.967651L13.361181,69.985016L11.982656,70.931976L10.000000,64.544037L10.000000,64.544037L10.000000,64.544037L10.000000,64.544037L10.000000,64.544037L10.000000,64.544037L10.000000,64.544037L10.000000,64.544037L10.000000,64.544037L10.000000,64.544037L10.000000,64.544037L10.000000,64.544037L10.000000,71.547333L10.000000,71.547333L9.316856,71.480072L8.659981,71.280792L8.054588,70.957184L7.523958,70.521698L7.088478,69.991089L6.764896,69.385712L6.565628,68.728821L6.498346,68.045685L6.565628,67.362518L6.764896,66.705658L7.088478,66.100250L7.523958,65.569641L8.054588,65.134186L8.659981,64.810577L9.316856,64.611298L10.000000,64.544037L10.000000,71.547333L10.000000,71.547333L10.000000,71.547333L10.000000,71.547333L10.000000,71.547333L10.000000,71.547333L10.000000,71.547333L10.000000,71.547333L10.000000,71.547333L10.000000,71.547333L10.000000,71.547333L10.000000,71.547333L10.000000,71.547333L9.264429,71.469177L8.561684,71.238312L7.923122,70.864899L7.377232,70.365753L6.948393,69.763031L6.655722,69.083649L6.512302,68.357971L6.524511,67.618378L6.691828,66.897858L7.006763,66.228516L7.455267,65.640289L8.017336,65.159393L9.395861,64.212433L10.711824,63.291412L12.010542,62.370789L13.305201,61.447174L14.608610,60.517273L14.617378,60.511047L15.933306,59.578339L15.950499,59.566223L17.291464,58.627808L17.316481,58.610474L18.695005,57.663513L18.726950,57.641815L20.155561,56.683502L20.193361,56.658478L21.684572,55.685883L21.727076,55.658600L23.293398,54.668945L23.339403,54.640381L24.993372,53.630798L25.031092,53.608093L27.083033,52.390717L27.113493,52.372833L29.047426,51.251678L29.080446,51.232788L30.921762,50.191864L30.956274,50.172638L32.730316,49.196014L32.765007,49.177185L34.497177,48.248871L34.530281,48.231384L36.245918,47.335449L36.275879,47.319977L38.000351,46.440460L38.025696,46.427704L39.784409,45.548584L39.804153,45.538788L41.622459,44.644196L41.636208,44.637451L43.539482,43.711334L43.547356,43.707520L45.560951,42.733948L45.563553,42.732697L47.712845,41.695709L48.975082,41.086517L48.977898,41.085175L50.161781,40.515106L50.169830,40.511230L51.291565,39.974609L51.305473,39.967987L52.381706,39.458954L52.401657,39.449554L53.448944,38.962250L53.474678,38.950409L54.509644,38.478973L54.540230,38.465210L55.579475,38.003784L55.613609,37.988861L56.673767,37.531586L56.709778,37.516266L57.807434,37.057312L57.843651,37.042419L58.995422,36.575897L59.030380,36.561951L60.252869,36.082001L60.285439,36.069427L61.595238,35.570221L61.628922,35.557587L63.168129,34.988983L63.207237,34.974823L64.655411,34.459320L64.695816,34.445190L66.071877,33.974213L66.111946,33.960785L67.434776,33.525787L67.472565,33.513611L68.761055,33.106049L68.794510,33.095673L70.067551,32.706940L70.094917,32.698700L71.371376,32.320343L71.391335,32.314484L72.690109,31.937866L72.702019,31.934418L74.042000,31.550995L74.046112,31.549805L75.446198,31.151031L76.922256,30.729156L78.490326,30.276520L80.116905,29.801819L81.644753,29.353363L83.095253,28.927521L83.100998,28.925812L84.490524,28.520477L84.502769,28.516937L85.852386,28.128540L85.871170,28.123199L87.202057,27.748199L87.226860,27.741333L88.560249,27.376221L88.589958,27.368225L89.947060,27.009430L89.980156,27.000824L91.382172,26.644745L91.417007,26.636078L92.885147,26.279205L92.920074,26.270905L94.475555,25.909576L94.509254,25.901947L96.173286,25.532715L96.198105,25.527313L97.964592,25.148773L97.985313,25.144379L99.642799,24.799713L99.667953,24.794556L101.238739,24.479889L101.267929,24.474152L102.774315,24.185669L102.806801,24.179596L104.271072,23.913483L104.305656,23.907379L105.750099,23.659790L105.785263,23.653961L107.232162,23.421082L107.266312,23.415741L108.737961,23.193787L108.769608,23.189178L110.288292,22.974274L110.316261,22.970428L111.904289,22.758759L111.927956,22.755676L113.607613,22.543427L113.626656,22.541077L115.420219,22.324432L115.430016,22.323273L117.275475,22.105621L117.283546,22.104645L119.013985,21.904633L119.029198,21.902924L120.667839,21.720734L120.690880,21.718262L122.260948,21.554260L122.291801,21.551178L123.816536,21.405518L123.854530,21.402100L125.357140,21.275055L125.400887,21.271637L126.904610,21.163483L126.952110,21.160370L128.480194,21.071320L128.529221,21.068787L130.104858,20.999115L130.153107,20.997314L131.799530,20.947235L131.845200,20.946136L133.585663,20.915894L133.627380,20.915436L135.485107,20.905273L135.523300,20.905273L137.380997,20.915436L137.422745,20.915894L139.163177,20.946136L139.208847,20.947235L140.855286,20.997314L140.903519,20.999115L142.479187,21.068787L142.528198,21.071320L144.056274,21.160370L144.103760,21.163483L145.607498,21.271637L145.651245,21.275055L147.153870,21.402100L147.191849,21.405518L148.716568,21.551178L148.747437,21.554260L150.317490,21.718262L150.340530,21.720734L151.979187,21.902924L151.994415,21.904633L153.724838,22.104645L153.732895,22.105621L155.578369,22.323273L155.588135,22.324432L157.381714,22.541046L157.400787,22.543427L159.080429,22.755676L159.104065,22.758759L160.692093,22.970428L160.720093,22.974274L162.238800,23.189178L162.270401,23.193756L163.742050,23.415741L163.776230,23.421082L165.223129,23.653961L165.258270,23.659790L166.702728,23.907379L166.737289,23.913483L168.201569,24.179596L168.234085,24.185669L169.740463,24.474152L169.769638,24.479889L171.340424,24.794556L171.365570,24.799713L173.023056,25.144379L173.043808,25.148773L174.810287,25.527313L174.835098,25.532715L176.499130,25.901947L176.532822,25.909576L178.088318,26.270905L178.123245,26.279205L179.591385,26.636078L179.626221,26.644745L181.028229,27.000824L181.061325,27.009430L182.418427,27.368225L182.448120,27.376190L183.781525,27.741302L183.806351,27.748199L185.137253,28.123199L185.156021,28.128540L186.505615,28.516937L186.517853,28.520477L187.907364,28.925812L187.913162,28.927521L189.363831,29.353394L190.896667,29.803314L192.528030,30.279449L194.094986,30.731720L195.565201,31.151886L196.962311,31.549835L196.966370,31.550995L198.306366,31.934418L198.318314,31.937897L199.617096,32.314514L199.637024,32.320343L200.913467,32.698730L200.940857,32.707001L202.213882,33.095673L202.247375,33.106110L203.535858,33.513641L203.573639,33.525848L204.896484,33.960846L204.936508,33.974274L206.312592,34.445221L206.352997,34.459320L207.801163,34.974823L207.840317,34.989044L209.379501,35.557617L209.413147,35.570251L210.722961,36.069458L210.755524,36.082062L211.977997,36.561981L212.012985,36.575928L213.164734,37.042450L213.200974,37.057343L214.298630,37.516327L214.334610,37.531586L215.394775,37.988861L215.428909,38.003815L216.468170,38.465240L216.498749,38.478973L217.533722,38.950409L217.559448,38.962250L218.606735,39.449554L218.626709,39.458954L219.702911,39.967987L219.716843,39.974609L220.838577,40.511261L220.846634,40.515106L222.030502,41.085175L222.033295,41.086517L223.295914,41.695892L225.444839,42.732697L225.447433,42.733948L227.461029,43.707489L227.468948,43.711334L229.372208,44.637451L229.385910,44.644165L231.204224,45.538788L231.223984,45.548553L232.982697,46.427704L233.008026,46.440460L234.732498,47.319977L234.762436,47.335419L236.478073,48.231354L236.511230,48.248871L238.243378,49.177185L238.278030,49.196014L240.052078,50.172638L240.086624,50.191864L241.927933,51.232819L241.960953,51.251678L243.894882,52.372833L243.925339,52.390717L245.977280,53.608093L246.014999,53.630798L247.668961,54.640381L247.714951,54.668945L249.281296,55.658600L249.323776,55.685883L250.814987,56.658478L250.852798,56.683502L252.281448,57.641815L252.313339,57.663513L253.691879,58.610474L253.716904,58.627808L255.057877,59.566223L255.075058,59.578339L256.390991,60.511047L256.399750,60.517273L257.703156,61.447174L259.006561,62.377014L260.313751,63.303497L261.637512,64.229797L262.991028,65.159393L257.594116,69.458893L257.567017,69.427429L256.817810,68.548065L256.799316,68.526184L256.067871,67.653351L256.058502,67.642120L255.336044,66.772552L254.613541,65.903015L253.891556,65.041412L253.160873,64.183990L252.412033,63.326263L251.635361,62.463470L250.820999,61.590454L249.958908,60.702240L249.038895,59.793671L247.970444,58.772125L246.949966,57.820374L245.977066,56.937958L245.037094,56.110626L244.114914,55.323639L243.194992,54.562164L242.261673,53.811371L241.299332,53.056671L240.292679,52.283844L239.227188,51.479340L238.088760,50.629730L236.864075,49.722321L235.535446,48.747772L234.293900,47.853119L233.115448,47.020905L231.982605,46.238312L230.877472,45.492401L229.781769,44.770081L228.677185,44.058197L227.545273,43.343719L226.368011,42.613861L225.127701,41.856110L223.807114,41.058197L222.389542,40.208160L220.924194,39.336517L219.553131,38.531097L218.254990,37.779907L217.010666,37.072357L215.800598,36.397583L214.605072,35.744568L213.404053,35.102264L212.177383,34.459564L210.905060,33.805573L209.567337,33.129486L208.144852,32.420654L206.618561,31.668732L205.090317,30.921783L203.657394,30.227570L202.303238,29.579681L201.008194,28.970184L199.752029,28.390808L198.514175,27.833160L197.273590,27.288666L196.008987,26.748627L194.698929,26.204315L193.322250,25.647400L191.857910,25.069366L190.285416,24.462128L188.683731,23.853210L187.179779,23.289825L185.759247,22.768280L184.401443,22.282349L183.085159,21.825592L181.788681,21.391449L180.489777,20.973083L179.165985,20.563843L177.794769,20.157013L176.353806,19.746033L174.821213,19.324615L173.175522,18.886505L171.438797,18.436676L169.811676,18.028046L168.274918,17.656677L166.805939,17.317627L165.381592,17.005890L163.978317,16.716461L162.572021,16.444153L161.138641,16.183990L159.654251,15.931030L158.095291,15.680573L156.438782,15.427979L154.662262,15.168610L152.830841,14.907013L151.111267,14.665558L149.491501,14.446320L147.949234,14.249634L146.461319,14.075775L145.003967,13.924835L143.552322,13.796722L142.080856,13.691376L140.563599,13.608887L138.974686,13.549438L137.288559,13.513458L135.480392,13.501556L133.667999,13.514191L131.977310,13.551117L130.385498,13.611633L128.867706,13.695160L127.398415,13.801361L125.951744,13.929901L124.501717,14.080780L123.022804,14.254059L121.490211,14.449799L119.880028,14.667908L118.169212,14.908173L116.335396,15.170197L114.547432,15.431305L112.885445,15.684906L111.321251,15.936493L109.832451,16.190521L108.395988,16.451721L106.988350,16.724792L105.585632,17.014679L104.163696,17.326324L102.698517,17.664948L101.166496,18.035492L99.544502,18.443085L97.809959,18.892548L96.159470,19.332123L94.622513,19.755035L93.177872,20.167389L91.804138,20.575439L90.479393,20.985504L89.181320,21.404053L87.887398,21.837830L86.575111,22.293579L85.222298,22.778046L83.807198,23.297760L82.308617,23.859253L80.705879,24.468719L79.126106,25.078888L77.658516,25.658417L76.279182,26.216736L74.967590,26.761993L73.702721,27.302521L72.463371,27.846863L71.228142,28.403656L69.975693,28.981537L68.685066,29.589142L67.335594,30.234924L65.907166,30.927032L64.379967,31.673523L62.849289,32.427643L61.423180,33.138397L60.082001,33.816437L58.806755,34.472137L57.578064,35.116180L56.376114,35.759247L55.180962,36.412384L53.972473,37.086578L52.730545,37.793060L51.435478,38.542633L50.067764,39.346252L48.608261,40.214508L47.191177,41.064301L45.865913,41.865112L44.620804,42.625946L43.438988,43.358856L42.303345,44.075989L41.196167,44.789948L40.099297,45.513519L38.994514,46.259674L37.863304,47.041595L36.687462,47.872406L35.449142,48.765076L34.130753,49.732330L32.909874,50.636993L31.765276,51.491241L30.693224,52.300934L29.680307,53.078949L28.712519,53.838531L27.775229,54.593292L26.853251,55.357483L25.930910,56.145660L24.992552,56.972626L24.022638,57.853241L23.006041,58.802216L21.928106,59.833893L20.997458,60.754791L20.139860,61.640472L19.331236,62.509064L18.561449,63.365692L17.820406,64.215424L17.098299,65.063354L16.385450,65.914215L15.672342,66.772552L14.949862,67.642120L14.940466,67.653351L14.209066,68.526215L14.190559,68.548065L13.441341,69.427429L13.414251,69.458862L12.638296,70.348053L12.638296,70.348053L12.138426,70.818512L11.556393,71.182404L10.914541,71.425781L10.237537,71.539276L9.551418,71.518463L8.882513,71.364227L8.256584,71.082458L7.697628,70.683990L7.227169,70.184113L6.863247,69.602081L6.619888,68.960205L6.506426,68.283203L6.527210,67.597107L6.681444,66.928192L6.963221,66.302277L7.361706,65.743317L8.129889,64.863037z" />
				<path fill-opacity="1" fill="#000000" stroke="none" d="M23.037920,77.319244L24.058382,78.270966L25.031313,79.153351L25.971304,79.980713L26.893465,80.767700L27.813337,81.529144L28.746675,82.279999L29.709028,83.034668L30.715666,83.807465L31.781179,84.612030L32.919601,85.461609L34.144295,86.369019L35.472916,87.343597L36.714478,88.238190L37.892937,89.070465L39.025780,89.853058L40.130943,90.598969L41.226585,91.321259L42.331223,92.033173L43.463104,92.747620L44.640373,93.477509L45.880707,94.235291L47.201263,95.033173L48.618858,95.883209L50.084206,96.754852L51.455292,97.560272L52.753403,98.311432L53.997757,99.019012L55.207809,99.693817L56.403305,100.346832L57.604370,100.989105L58.831024,101.631775L60.103348,102.285797L61.441048,102.961884L62.863564,103.670746L64.389824,104.422638L65.918068,105.169586L67.351028,105.863831L68.705124,106.511688L70.000206,107.121216L71.256363,107.700562L72.494255,108.258209L73.734810,108.802734L74.999435,109.342773L76.309425,109.887024L77.686150,110.443970L79.150459,111.022003L80.722992,111.629242L82.324669,112.238159L83.828613,112.801544L85.249176,113.323090L86.606956,113.809021L87.923233,114.265778L89.219711,114.699921L90.518616,115.118286L91.842407,115.527527L93.213608,115.934357L94.654572,116.345337L96.187187,116.766754L97.832832,117.204834L99.569572,117.654694L101.196709,118.063293L102.733467,118.434692L104.202423,118.773712L105.626747,119.085419L107.030060,119.374847L108.436371,119.647186L109.869736,119.907379L111.354118,120.160278L112.913063,120.410706L114.569603,120.663330L116.346138,120.922699L118.177513,121.184296L119.897118,121.425751L121.516869,121.645020L123.059196,121.841705L124.547081,122.015533L126.004463,122.166504L127.456078,122.294647L128.927567,122.399963L130.444794,122.482452L132.033722,122.541931L133.719833,122.577911L135.528015,122.589813L137.340363,122.577148L139.031097,122.540253L140.622925,122.479736L142.140640,122.396149L143.609985,122.290009L145.056625,122.161469L146.506653,122.010559L147.985550,121.837250L149.518143,121.641510L151.128372,121.423401L152.839172,121.183136L154.672958,120.921112L156.460953,120.660034L158.122940,120.406403L159.687103,120.154816L161.175934,119.900787L162.612427,119.639618L164.020004,119.366547L165.422760,119.076691L166.844681,118.764984L168.309891,118.426422L169.841888,118.055878L171.463867,117.648285L173.198441,117.198853L174.848907,116.759247L176.385880,116.336334L177.830475,115.923920L179.204269,115.515900L180.529007,115.105865L181.827042,114.687286L183.121002,114.253510L184.433273,113.797760L185.786102,113.313324L187.201187,112.793549L188.699753,112.232056L190.302505,111.622620L191.882294,111.012421L193.349899,110.432892L194.729187,109.874573L196.040817,109.329315L197.305664,108.788788L198.544998,108.244446L199.780243,107.687653L201.032700,107.109772L202.323318,106.502167L203.672775,105.856384L205.101212,105.164276L206.628418,104.417786L208.159103,103.663666L209.585205,102.952942L210.926331,102.274933L212.201645,101.619202L213.430298,100.975189L214.632278,100.332092L215.827408,99.678986L217.035889,99.004761L218.277817,98.298309L219.572891,97.548737L220.940598,96.745117L222.400116,95.876862L223.817200,95.027069L225.142441,94.226227L226.387589,93.465424L227.569366,92.732513L228.705017,92.015350L229.812195,91.301422L230.909058,90.577850L232.013870,89.831696L233.145050,89.049774L234.320908,88.218964L235.559235,87.326263L236.877594,86.359039L238.098495,85.454376L239.243103,84.600067L240.315109,83.790375L241.328049,83.012390L242.295853,82.252808L243.233139,81.498016L244.155136,80.733856L245.077408,79.945709L246.015793,79.118744L246.985733,78.238098L248.002335,77.289124L249.080307,76.257477L250.010880,75.336578L250.868546,74.450867L251.677139,73.582275L252.446976,72.725677L253.187973,71.875916L253.910080,71.027985L254.622940,70.177124L255.336044,69.318787L256.058502,68.449249L256.067871,68.437988L256.799286,67.565155L256.817810,67.543274L257.567017,66.663910L257.594116,66.632477L258.370087,65.743317L261.612518,71.878906L260.296539,72.799957L258.997833,73.720551L257.703156,74.644196L256.399750,75.574066L256.390991,75.580322L255.075058,76.513031L255.057877,76.525116L253.716904,77.463562L253.691910,77.480865L252.313370,78.427826L252.281448,78.449524L250.852798,79.407867L250.814987,79.432892L249.323776,80.405487L249.281296,80.432739L247.714981,81.422424L247.668961,81.450958L246.015030,82.460571L245.977280,82.483307L243.925339,83.700653L243.894882,83.718536L241.960953,84.839691L241.927933,84.858612L240.086624,85.899506L240.052078,85.918762L238.278030,86.895355L238.243378,86.914185L236.511230,87.842499L236.478088,87.860016L234.762451,88.755951L234.732498,88.771393L233.007996,89.650909L232.982697,89.663727L231.223984,90.542786L231.204224,90.552582L229.385910,91.447205L229.372208,91.453918L227.468948,92.380035L227.461029,92.383881L225.447433,93.357422L225.444809,93.358673L223.295532,94.395660L222.033325,95.004852L222.030472,95.006195L220.846588,95.576263L220.838577,95.580139L219.716843,96.116730L219.702911,96.123383L218.626709,96.632416L218.606705,96.641815L217.559433,97.129120L217.533737,97.140930L216.498764,97.612396L216.468170,97.626129L215.428909,98.087555L215.394775,98.102509L214.334610,98.559753L214.298630,98.575043L213.200974,99.034027L213.164734,99.048920L212.012985,99.515472L211.977997,99.529388L210.755524,100.009308L210.722961,100.021912L209.413147,100.521118L209.379486,100.533752L207.840302,101.102325L207.801208,101.116516L206.352997,101.632019L206.312592,101.646149L204.936508,102.117096L204.896500,102.130524L203.573669,102.565521L203.535843,102.577728L202.247345,102.985291L202.213882,102.995697L200.940857,103.384369L200.913467,103.392639L199.637024,103.771027L199.617081,103.776855L198.318314,104.153473L198.306381,104.156952L196.966385,104.540375L196.962296,104.541534L195.562210,104.940338L194.086151,105.362183L192.518082,105.814819L190.891479,106.289581L189.363663,106.738037L187.913162,107.163879L187.907364,107.165558L186.517853,107.570892L186.505615,107.574463L185.156021,107.962830L185.137253,107.968170L183.806351,108.343140L183.781494,108.350067L182.448105,108.715149L182.418472,108.723114L181.061371,109.081970L181.028214,109.090546L179.626205,109.446625L179.591385,109.455292L178.123245,109.812195L178.088318,109.820496L176.532822,110.181763L176.499130,110.189423L174.835098,110.558624L174.810303,110.564056L173.043823,110.942596L173.023041,110.946991L171.365555,111.291687L171.340424,111.296814L169.769638,111.611481L169.740463,111.617218L168.234085,111.905731L168.201569,111.911774L166.737289,112.177887L166.702728,112.183990L165.258270,112.431549L165.223129,112.437408L163.776230,112.670288L163.742050,112.675629L162.270401,112.897583L162.238815,112.902191L160.720108,113.117096L160.692093,113.120972L159.104050,113.332642L159.080444,113.335693L157.400803,113.547943L157.381683,113.550323L155.588120,113.766937L155.578369,113.768097L153.732895,113.985779L153.724854,113.986725L151.994415,114.186737L151.979187,114.188477L150.340530,114.370636L150.317490,114.373108L148.747437,114.537140L148.716568,114.540222L147.191849,114.685883L147.153870,114.689270L145.651245,114.816315L145.607498,114.819733L144.103760,114.927887L144.056274,114.931000L142.528198,115.020050L142.479187,115.022583L140.903519,115.092255L140.855286,115.094055L139.208847,115.144165L139.163177,115.145233L137.422745,115.175507L137.380997,115.175964L135.523300,115.186096L135.485107,115.186096L133.627380,115.175964L133.585663,115.175507L131.845200,115.145233L131.799530,115.144165L130.153107,115.094055L130.104858,115.092255L128.529221,115.022583L128.480194,115.020050L126.952110,114.931000L126.904610,114.927887L125.400887,114.819733L125.357140,114.816315L123.854530,114.689270L123.816536,114.685883L122.291801,114.540222L122.260948,114.537140L120.690880,114.373108L120.667839,114.370636L119.029198,114.188477L119.013969,114.186737L117.283531,113.986725L117.275475,113.985779L115.430016,113.768097L115.420235,113.766937L113.626671,113.550293L113.607613,113.547943L111.927956,113.335693L111.904289,113.332642L110.316261,113.120972L110.288292,113.117096L108.769608,112.902222L108.737946,112.897583L107.266289,112.675629L107.232178,112.670258L105.785278,112.437408L105.750099,112.431549L104.305656,112.183990L104.271049,112.177887L102.806786,111.911743L102.774330,111.905701L101.267952,111.617218L101.238739,111.611481L99.667953,111.296814L99.642799,111.291656L97.985313,110.946960L97.964592,110.942596L96.198105,110.564056L96.173286,110.558624L94.509254,110.189423L94.475555,110.181763L92.920074,109.820496L92.885147,109.812195L91.417007,109.455292L91.382187,109.446625L89.980171,109.090546L89.947029,109.081970L88.589928,108.723114L88.560249,108.715149L87.226860,108.350037L87.202087,108.343140L85.871185,107.968170L85.852386,107.962830L84.502769,107.574463L84.490547,107.570892L83.101013,107.165558L83.095230,107.163879L81.644569,106.737976L80.111732,106.288055L78.480362,105.811920L76.913399,105.359650L75.443176,104.939484L74.046135,104.541565L74.042000,104.540375L72.702019,104.156952L72.690132,104.153534L71.391357,103.776886L71.371353,103.771027L70.094879,103.392639L70.067574,103.384430L68.794525,102.995728L68.761055,102.985321L67.472565,102.577759L67.434776,102.565582L66.111946,102.130585L66.071877,102.117157L64.695816,101.646179L64.655403,101.632050L63.207222,101.116547L63.168144,101.102386L61.628937,100.533783L61.595238,100.521149L60.285439,100.021973L60.252884,100.009369L59.030396,99.529449L58.995422,99.515503L57.843651,99.048981L57.807404,99.034027L56.709740,98.575043L56.673775,98.559784L55.613625,98.102509L55.579498,98.087616L54.540237,97.626190L54.509613,97.612396L53.474655,97.140961L53.448944,97.129120L52.401657,96.641815L52.381714,96.632446L51.305496,96.123383L51.291534,96.116730L50.169800,95.580109L50.161797,95.576263L48.977905,95.006195L48.975067,95.004852L47.712440,94.395477L45.563553,93.358673L45.560951,93.357391L43.547356,92.383850L43.539482,92.380035L41.636208,91.453918L41.622459,91.447205L39.804153,90.552582L39.784409,90.542786L38.025681,89.663727L38.000351,89.650909L36.275879,88.771362L36.245956,88.755920L34.530319,87.860016L34.497154,87.842499L32.764984,86.914185L32.730316,86.895355L30.956274,85.918762L30.921747,85.899506L29.080427,84.858551L29.047445,84.839691L27.113501,83.718536L27.083040,83.700653L25.031111,82.483307L24.993361,82.460602L23.339388,81.451019L23.293398,81.422424L21.727076,80.432739L21.684580,80.405487L20.193380,79.432892L20.155561,79.407867L18.726950,78.449524L18.694998,78.427826L17.316462,77.480865L17.291464,77.463562L15.950483,76.525116L15.933279,76.513031L14.617361,75.580322L14.608593,75.574066L13.305182,74.644196L12.001791,73.714325L10.694622,72.787872L9.370834,71.861542L8.017336,70.931976L13.414251,66.632477L13.441341,66.663910L14.190559,67.543274L14.209066,67.565155L14.940466,68.437988L14.949862,68.449249L15.672342,69.318787L16.394819,70.188324L17.116831,71.049927L17.847517,71.907349L18.596354,72.765106L19.373041,73.627899L20.187399,74.500885L21.049494,75.389130L21.920881,76.249664L21.969252,76.297455L21.969252,76.297455L22.407747,76.825562L22.734804,77.429108L22.937834,78.084808L23.009031,78.767578L22.945658,79.451080L22.750154,80.109100L22.430040,80.716339L21.997622,81.249451L21.469488,81.687958L20.865965,82.014984L20.210230,82.218048L19.527479,82.289246L18.843981,82.225861L18.185968,82.030365L17.578733,81.710236L17.045618,81.277802L16.997011,81.229767L16.073374,80.316467L16.021353,80.263947L15.111744,79.325714L15.064240,79.275726L14.208097,78.357147L14.166309,78.311493L13.354706,77.409271L13.319773,77.369843L12.543818,76.480682L12.516708,76.449249L11.767492,75.569855L11.748976,75.547943L11.017595,74.675140L11.008207,74.663910L10.285728,73.794342L9.563250,72.924805L8.841253,72.063263L8.110544,71.205780L7.361706,70.348053L6.918964,69.709625L6.627899,68.989349L6.502819,68.222565L6.549891,67.447113L6.766792,66.701080L7.142836,66.021271L7.659536,65.441132L8.291437,64.989166L9.007442,64.687653L9.772308,64.551453L10.548380,64.587250L11.297438,64.793243L11.982656,65.159393L13.361181,66.106354L13.386217,66.123688L14.727180,67.062103L14.744364,67.074249L16.060301,68.006927L16.069052,68.013184L17.372461,68.943024L18.675890,69.872925L19.983038,70.799408L21.306810,71.725708L22.660345,72.655304L24.057005,73.591980L25.510389,74.539520L27.034224,75.501923L28.642183,76.482941L30.656397,77.677582L32.559868,78.780914L34.368195,79.802917L36.107697,80.760284L37.805199,81.669708L39.487701,82.548126L41.182259,83.412201L42.915627,84.278473L44.714157,85.163300L46.603676,86.082672L48.609383,87.052399L50.756073,88.088104L50.756477,88.088348L52.019096,88.697723L53.200142,89.266388L54.313896,89.799225L55.376144,90.301605L56.403481,90.779572L57.412743,91.239166L58.421387,91.686829L59.447403,92.129181L60.509109,92.572845L61.624611,93.024445L62.812111,93.490448L64.089371,93.977020L65.594902,94.532990L67.003990,95.034332L68.339645,95.491180L69.622406,95.912720L70.873116,96.308105L72.112663,96.686371L73.361816,97.056549L74.640594,97.427338L75.968689,97.807343L77.364632,98.204926L77.367668,98.205780L78.846725,98.628510L78.855553,98.631073L80.432480,99.086212L80.442451,99.089142L82.079002,99.566742L82.084167,99.568268L83.617172,100.018250L85.068016,100.444183L86.451752,100.847809L87.789131,101.232635L89.101219,101.602264L90.409836,101.960480L91.737251,102.311371L93.106117,102.658844L94.539452,103.007080L96.060005,103.360077L97.690338,103.721649L99.431992,104.094757L101.068756,104.435089L102.614395,104.744659L104.091568,105.027405L105.523384,105.287506L106.933220,105.528961L108.344940,105.755951L109.782486,105.972626L111.269524,106.182892L112.829597,106.390717L114.485573,106.599884L116.260094,106.814178L118.095772,107.030701L119.818169,107.229767L121.441582,107.410217L122.988609,107.571747L124.482491,107.714325L125.947121,107.837921L127.407097,107.942657L128.887695,108.028625L130.414307,108.095825L132.012497,108.144104L133.707306,108.173248L135.523300,108.182892L137.342819,108.172791L139.041550,108.143036L140.642319,108.094025L142.169724,108.026123L143.648773,107.939575L145.105026,107.834503L146.563889,107.710876L148.050613,107.568665L149.589844,107.407715L151.205444,107.228058L152.920639,107.029755L154.758072,106.813019L156.541885,106.597534L158.202423,106.387665L159.766846,106.179047L161.257523,105.967987L162.697586,105.750641L164.110321,105.523102L165.519608,105.281372L166.949295,105.021332L168.423157,104.738922L169.964767,104.429962L171.597153,104.090424L173.342834,103.716217L174.982071,103.352417L176.503876,102.998779L177.937073,102.650177L179.304291,102.302734L180.628235,101.952545L181.931976,101.595398L183.238037,101.227325L184.568863,100.844269L185.946167,100.442474L187.391052,100.018280L188.924225,99.568268L188.929398,99.566742L190.565964,99.089142L190.575912,99.086212L192.152832,98.631073L192.161682,98.628510L193.640732,98.205780L193.643738,98.204956L195.043808,97.806152L196.379700,97.423859L197.666550,97.050690L198.923080,96.678131L200.168732,96.297668L201.423798,95.900513L202.708786,95.477692L204.044830,95.020172L205.452606,94.518768L206.952682,93.964386L208.228867,93.477814L209.418777,93.010468L210.535568,92.557892L211.596985,92.113861L212.621155,91.671875L213.626282,91.225372L214.630661,90.767700L215.652252,90.292206L216.708466,89.792572L217.816269,89.262543L218.992142,88.696320L220.251923,88.088348L220.252350,88.088104L222.401611,87.051147L224.412598,86.078857L226.307938,85.156586L228.112518,84.268677L229.851456,83.399384L231.550629,82.532684L233.236298,81.652191L234.935318,80.741425L236.674713,79.783661L238.481522,78.761993L240.382401,77.659760L242.403915,76.460236L244.020126,75.473358L245.540451,74.512238L246.989212,73.566925L248.379959,72.633636L249.726547,71.708344L251.042496,70.787262L252.341232,69.866669L253.635880,68.943024L254.939285,68.013184L254.948074,68.006927L256.264008,67.074219L256.281189,67.062103L257.622192,66.123688L257.647186,66.106354L259.025726,65.159393L259.710907,64.793243L260.459991,64.587250L261.236084,64.551422L262.000946,64.687653L262.716949,64.989166L263.348846,65.441132L263.865540,66.021271L264.241608,66.701080L264.458466,67.447113L264.505554,68.222565L264.380463,68.989349L264.089417,69.709625L263.646667,70.348053L262.870728,71.237213L262.148621,72.085114L261.435730,72.936066L260.722626,73.794342L260.000153,74.663910L259.990784,74.675140L259.259399,75.547943L259.240875,75.569855L258.491669,76.449249L258.464569,76.480682L257.688599,77.369843L257.653656,77.409271L256.842072,78.311493L256.800293,78.357147L255.944138,79.275726L255.896622,79.325714L254.986984,80.263947L254.935013,80.316437L253.963028,81.277557L253.921646,81.317841L252.811813,82.379608L252.779953,82.409698L251.727615,83.391571L251.691879,83.424438L250.683243,84.339691L250.644485,84.374329L249.665756,85.236298L249.625381,85.271332L248.662857,86.093292L248.622604,86.127167L247.662491,86.922455L247.624405,86.953583L246.652969,87.735504L246.618790,87.762665L245.622269,88.544525L245.593552,88.566803L244.558182,89.361908L244.535751,89.378998L243.447769,90.200653L243.431870,90.212616L242.277542,91.074097L242.267838,91.081329L241.033401,91.996002L241.019852,92.005951L239.677689,92.990509L239.653885,93.007782L238.388550,93.919739L238.361511,93.938995L237.156036,94.790558L237.126404,94.811249L235.963928,95.614563L235.932632,95.635956L234.796188,96.403229L234.764572,96.424316L233.637253,97.167725L233.606842,97.187561L232.471786,97.919312L232.443893,97.937103L231.284103,98.669373L231.260010,98.684479L230.058609,99.429413L230.039001,99.441467L228.779099,100.211273L228.764313,100.220276L227.428940,101.027191L227.418854,101.033234L225.991104,101.889374L225.980484,101.895752L224.504547,102.773712L224.488098,102.783478L223.100571,103.598602L223.080734,103.610168L221.762817,104.372894L221.739944,104.386017L220.472733,105.106689L220.447433,105.120941L219.212067,105.809998L219.185165,105.824860L217.962799,106.492676L217.935532,106.507416L216.707275,107.164429L216.681015,107.178345L215.428009,107.834961L215.403687,107.847595L214.107101,108.514160L214.085800,108.525024L212.726761,109.212036L212.708847,109.221008L211.268448,109.938812L211.254181,109.945892L209.713623,110.704895L209.703751,110.709717L208.165634,111.461487L208.154770,111.466797L206.710922,112.166351L206.695480,112.173767L205.325928,112.829071L205.305893,112.838593L203.990738,113.457611L203.966217,113.469025L202.685562,114.059814L202.657364,114.072662L201.391281,114.643188L201.360443,114.656891L200.089020,115.215118L200.056931,115.229034L198.760254,115.782959L198.728409,115.796356L197.386551,116.354034L197.356339,116.366425L195.949387,116.935791L195.921753,116.946838L194.429779,117.535889L194.405441,117.545410L192.808548,118.162140L192.791473,118.168671L191.172699,118.784180L191.156662,118.790253L189.636673,119.359711L189.615219,119.367645L188.173264,119.897125L188.146393,119.906860L186.761749,120.402527L186.729904,120.413788L185.381775,120.881744L185.345917,120.893951L184.013565,121.340363L183.975204,121.352966L182.637909,121.783966L182.598648,121.796356L181.235641,122.217987L181.197357,122.229584L179.787903,122.648010L179.752182,122.658417L178.275482,123.079803L178.243393,123.088776L176.678711,123.519196L176.651016,123.526703L174.977615,123.972321L174.954697,123.978333L173.195053,124.434174L173.169998,124.440582L171.517807,124.855591L171.487595,124.863007L169.920639,125.241852L169.885651,125.250122L168.381729,125.597412L168.343002,125.606140L166.879913,125.926575L166.838730,125.935333L165.394302,126.233551L165.352615,126.241882L163.904617,126.522552L163.864197,126.530121L162.390457,126.797852L162.353195,126.804413L160.831512,127.063934L160.798660,127.069366L159.206833,127.325256L159.179169,127.329559L157.495010,127.586517L157.472855,127.589813L155.674164,127.852478L155.663452,127.854034L153.821320,128.117218L153.812988,128.118408L152.085098,128.361023L152.067993,128.363373L150.431152,128.584991L150.404510,128.588501L148.835556,128.788666L148.799194,128.793121L147.274948,128.971436L147.229599,128.976410L145.726913,129.132385L145.674255,129.137421L144.169922,129.270630L144.112244,129.275269L142.583130,129.385223L142.523361,129.389008L140.946289,129.475311L140.886932,129.478058L139.238724,129.540222L139.182343,129.541901L137.439819,129.579559L137.388016,129.580292L135.528030,129.592926L135.480408,129.592926L133.620407,129.580292L133.568573,129.579559L131.826065,129.541931L131.769653,129.540253L130.121445,129.478058L130.062149,129.475311L128.485077,129.389008L128.425232,129.385223L126.896111,129.275269L126.838463,129.270630L125.334145,129.137421L125.281441,129.132385L123.778755,128.976410L123.733437,128.971405L122.209190,128.793121L122.172829,128.788666L120.603874,128.588501L120.577232,128.584991L118.940392,128.363373L118.923286,128.361023L117.195381,128.118378L117.187080,128.117218L115.344948,127.854034L115.334190,127.852478L113.535500,127.589813L113.513359,127.586517L111.829201,127.329559L111.801567,127.325256L110.209747,127.069366L110.176872,127.063934L108.655182,126.804413L108.617882,126.797852L107.144142,126.530121L107.103760,126.522522L105.655762,126.241852L105.614082,126.233521L104.169640,125.935333L104.128502,125.926575L102.665413,125.606140L102.626656,125.597412L101.122726,125.250122L101.087746,125.241852L99.520782,124.863007L99.490578,124.855591L97.838371,124.440582L97.813301,124.434174L96.053680,123.978333L96.030800,123.972321L94.357399,123.526764L94.329659,123.519226L92.764992,123.088806L92.732925,123.079803L91.256226,122.658447L91.220490,122.648041L89.811012,122.229614L89.772743,122.218018L88.409737,121.796387L88.370514,121.783997L87.033211,121.353027L86.994812,121.340424L85.662476,120.894012L85.626625,120.881775L84.278503,120.413818L84.246666,120.402557L82.862000,119.906921L82.835121,119.897156L81.393181,119.367676L81.371765,119.359741L79.851776,118.790314L79.835724,118.784271L78.216942,118.168762L78.199821,118.162201L76.602943,117.545441L76.578606,117.535950L75.086655,116.946899L75.059013,116.935852L73.652069,116.366486L73.621834,116.354095L72.279984,115.796448L72.248116,115.783020L70.951431,115.229034L70.919373,115.215149L69.647934,114.656921L69.617065,114.643219L68.350983,114.072693L68.322784,114.059814L67.042130,113.469025L67.017639,113.457642L65.702499,112.838593L65.682426,112.829071L64.312889,112.173798L64.297470,112.166351L62.853622,111.466827L62.842712,111.461517L61.304611,110.709717L61.294785,110.704895L59.754211,109.945892L59.739876,109.938812L58.299492,109.221008L58.281647,109.212036L56.922592,108.525055L56.901237,108.514160L55.604645,107.847565L55.580376,107.834961L54.327385,107.178375L54.301064,107.164429L53.072807,106.507385L53.045609,106.492676L51.823227,105.824860L51.796333,105.810028L50.560951,105.120941L50.535614,105.106689L49.268402,104.386017L49.245552,104.372894L47.927612,103.610168L47.907791,103.598602L46.520271,102.783478L46.503830,102.773712L45.027870,101.895752L45.017265,101.889404L43.589531,101.033295L43.579399,101.027191L42.244026,100.220306L42.229218,100.211273L40.969315,99.441437L40.949738,99.429413L39.748352,98.684479L39.724251,98.669373L38.564476,97.937103L38.536598,97.919342L37.401527,97.187592L37.371078,97.167755L36.243782,96.424347L36.212143,96.403229L35.075714,95.635925L35.044426,95.614563L33.881935,94.811249L33.852318,94.790558L32.646843,93.938995L32.619820,93.919739L31.354467,93.007782L31.330667,92.990509L29.988493,92.005951L29.974955,91.996002L28.740526,91.081329L28.730806,91.074066L27.576498,90.212585L27.560610,90.200653L26.472639,89.379028L26.450178,89.361908L25.414816,88.566803L25.386095,88.544525L24.389566,87.762665L24.355383,87.735504L23.383944,86.953552L23.345854,86.922455L22.385748,86.127167L22.345495,86.093292L21.382967,85.271332L21.342600,85.236298L20.363882,84.374329L20.325155,84.339691L19.316496,83.424438L19.280760,83.391571L18.228411,82.409698L18.196547,82.379608L17.086752,81.317810L17.086752,81.317810L16.639643,80.796936L16.302752,80.198853L16.089014,79.546539L16.006647,78.865051L16.058802,78.180573L16.243505,77.519470L16.553617,76.907074L16.977259,76.366943L17.498125,75.919830L18.096212,75.582977L18.748526,75.369202L19.430010,75.286835L20.114470,75.339020L20.775599,75.523712L21.387995,75.833801L21.928125,76.257477L23.026823,77.308624z" />
				<path fill-opacity="1" fill="#000000" stroke="none" d="M15.979029,80.084442L15.112291,79.105194L14.279524,78.164276L13.474960,77.255249L12.693041,76.371765L11.928104,75.507507L11.174431,74.655975L10.426422,73.810852L9.678423,72.965729L8.924767,72.114197L8.159794,71.249908L7.377893,70.366425L7.377893,70.366425L6.975510,69.810303L6.689358,69.186371L6.530439,68.518555L6.504856,67.832611L6.613590,67.154816L6.852449,66.511261L7.212286,65.926697L7.679235,65.423553L8.235394,65.021179L8.859339,64.735016L9.527134,64.576111L10.213110,64.550507L10.890882,64.659271L11.534428,64.898132L12.118992,65.257965L12.622143,65.724915L13.404062,66.608368L14.169018,67.472656L14.922672,68.324158L15.670683,69.169312L16.418684,70.014435L17.172338,70.865936L17.937292,71.730255L18.719229,72.613708L19.523756,73.522736L20.356531,74.463623L21.223288,75.442902L22.129545,76.466827L22.129545,76.466827L22.531931,77.022980L22.818079,77.646942L22.976999,78.314728L23.002600,79.000702L22.893873,79.678467L22.654997,80.322021L22.295187,80.906586L21.828230,81.409760L21.272089,81.812134L20.648127,82.098297L19.980333,82.257172L19.294374,82.282806L18.616583,82.174072L17.973036,81.935211L17.388472,81.575378L16.885321,81.108429L15.988077,80.094696z" />
				<path fill-opacity="1" fill="#000000" stroke="none" d="M129.316940,31.004974L129.762238,30.950653L130.199615,30.892761L130.643158,30.831451L131.105743,30.767029L131.135040,30.763031L131.598190,30.700714L131.665039,30.692047L132.128433,30.634613L132.229858,30.622833L132.700821,30.571991L132.831268,30.559204L133.317154,30.516663L133.468506,30.505188L133.976654,30.472626L134.140427,30.464264L134.678177,30.443451L134.845978,30.439178L135.420685,30.431854L135.535660,30.431427L136.111023,30.434296L136.188095,30.435150L136.727585,30.444275L136.821701,30.446564L137.332306,30.462616L137.442230,30.467010L137.930908,30.490692L138.053741,30.497833L138.527512,30.529816L138.658936,30.540070L139.124756,30.581024L139.258881,30.594269L139.723755,30.644928L139.854645,30.660553L140.325562,30.721588L140.447418,30.738556L140.931351,30.810699L141.039963,30.827789L141.543869,30.911652L141.636566,30.927765L142.167465,31.024078L142.243362,31.038300L142.808228,31.147705L142.872070,31.160400L143.435822,31.275482L143.511292,31.291351L144.038651,31.405579L144.130417,31.426147L144.628082,31.541534L144.735123,31.567291L145.209778,31.685852L145.328812,31.716797L145.787247,31.840607L145.914246,31.876282L146.363129,32.007385L146.491974,32.046478L146.938019,32.186859L147.063385,32.227722L147.513336,32.379486L147.629547,32.419891L148.090118,32.585052L148.193283,32.623016L148.671158,32.803558L148.759018,32.837463L149.260941,33.035492L149.332520,33.064240L149.865189,33.281708L149.925323,33.306610L150.455780,33.529480L150.526810,33.559845L151.021729,33.774719L151.107758,33.812836L151.573334,34.023041L151.673141,34.069153L152.115555,34.278046L152.226395,34.331696L152.651855,34.542511L152.769302,34.602264L153.183990,34.818390L153.302872,34.881927L153.712982,35.106659L153.827881,35.171143L154.239578,35.407745L154.345718,35.470093L154.765198,35.721893L154.859039,35.779327L155.292511,36.049652L155.371933,36.099945L155.825577,36.392059L155.890289,36.434296L156.370300,36.751556L156.424393,36.787720L156.901184,37.109772L156.964798,37.153290L157.408295,37.460602L157.485306,37.514801L157.900925,37.811859L157.989868,37.876556L158.383041,38.167755L158.481216,38.241913L158.857361,38.531738L158.960892,38.613190L159.325455,38.906097L159.429688,38.991608L159.788071,39.292023L159.888229,39.377716L160.245850,39.690125L160.337753,39.771942L160.700058,40.100739L160.780807,40.175262L161.153214,40.524963L161.221405,40.589935L161.609329,40.964966L161.664520,41.018951L162.073395,41.423737L162.119400,41.469727L162.524200,41.878601L162.578201,41.933807L162.953217,42.321747L163.018112,42.389862L163.367798,42.762299L163.442368,42.843048L163.771179,43.205353L163.853012,43.297272L164.165390,43.654938L164.251068,43.755035L164.551483,44.113403L164.637024,44.217651L164.929916,44.582214L165.011398,44.685760L165.301224,45.061920L165.375366,45.160065L165.666565,45.553253L165.731277,45.642181L166.028320,46.057831L166.082489,46.134796L166.389801,46.578278L166.433365,46.641937L166.755417,47.118713L166.791611,47.172882L167.108856,47.652863L167.151016,47.717529L167.443146,48.171173L167.493484,48.250580L167.763809,48.684052L167.821228,48.777924L168.073029,49.197418L168.135361,49.303497L168.371979,49.715240L168.436462,49.830109L168.661179,50.240204L168.724747,50.359161L168.940872,50.773834L169.000580,50.891266L169.211441,51.316742L169.265045,51.427521L169.473953,51.869965L169.520081,51.969818L169.730301,52.435394L169.768402,52.521393L169.983307,53.016327L170.013596,53.087280L170.236450,53.617737L170.261398,53.677948L170.478897,54.210602L170.507645,54.282196L170.705643,54.784119L170.739532,54.871887L170.920074,55.349731L170.958084,55.452972L171.123215,55.913544L171.163666,56.029816L171.315399,56.479767L171.356232,56.605011L171.496628,57.051086L171.535767,57.180084L171.666840,57.628967L171.702469,57.755768L171.826294,58.214203L171.857269,58.333405L171.975830,58.808075L172.001572,58.914948L172.116943,59.412598L172.137558,59.504486L172.251755,60.031830L172.267609,60.107208L172.382706,60.670929L172.395432,60.734955L172.504837,61.299835L172.519043,61.375549L172.615341,61.906464L172.631470,61.999237L172.715317,62.503143L172.732437,62.611786L172.804565,63.095673L172.821533,63.217621L172.882584,63.688507L172.898193,63.819305L172.948868,64.284210L172.962082,64.418396L173.003082,64.884247L173.013275,65.015533L173.045288,65.489319L173.052414,65.612244L173.076111,66.100922L173.080490,66.210815L173.096558,66.721405L173.098846,66.815460L173.107986,67.354950L173.108826,67.432159L173.111710,68.007538L173.111710,68.072601L173.108810,68.647980L173.107971,68.725128L173.098831,69.264618L173.096558,69.358673L173.080490,69.869293L173.076080,69.979218L173.052414,70.467896L173.045288,70.590729L173.013275,71.064484L173.003067,71.195892L172.962082,71.661743L172.948868,71.795868L172.898193,72.260742L172.882584,72.391571L172.821533,72.862488L172.804550,72.984406L172.732437,73.468353L172.715302,73.576965L172.631454,74.080902L172.615356,74.173553L172.519058,74.704437L172.504837,74.780273L172.395432,75.345123L172.382721,75.409088L172.267639,75.972839L172.251740,76.048370L172.137527,76.575653L172.116943,76.667450L172.001572,77.165131L171.975830,77.272003L171.857269,77.746674L171.826294,77.865936L171.702469,78.324341L171.666840,78.451141L171.535767,78.899994L171.496628,79.029022L171.356232,79.475067L171.315430,79.600281L171.163681,80.050232L171.123215,80.166534L170.958084,80.627106L170.920074,80.730316L170.739532,81.208221L170.705612,81.296051L170.507599,81.797943L170.478897,81.869476L170.261398,82.402130L170.236450,82.462372L170.013596,82.992798L169.983307,83.063721L169.768417,83.558655L169.730270,83.644775L169.520035,84.110321L169.473953,84.210114L169.265060,84.652557L169.211411,84.763397L169.000565,85.188873L168.940857,85.306305L168.724716,85.720978L168.661194,85.839813L168.436478,86.249908L168.371994,86.364838L168.135391,86.776520L168.072998,86.882721L167.821182,87.302216L167.763824,87.395966L167.493500,87.829437L167.443146,87.908966L167.151016,88.362579L167.108841,88.427216L166.791611,88.907196L166.755371,88.961456L166.433319,89.438202L166.389816,89.501801L166.082504,89.945282L166.028290,90.022308L165.731262,90.437897L165.666580,90.526825L165.375381,90.919983L165.301239,91.018158L165.011414,91.394287L164.929886,91.497955L164.636993,91.862488L164.551529,91.966644L164.251114,92.324982L164.165344,92.425262L163.852982,92.782867L163.771255,92.874634L163.442459,93.236969L163.367737,93.317902L163.018051,93.690277L162.953171,93.758392L162.578140,94.146332L162.524261,94.201416L162.119476,94.610321L162.073364,94.656403L161.664490,95.061188L161.609283,95.115204L161.221344,95.490204L161.153320,95.555023L160.780914,95.904724L160.699936,95.979462L160.337616,96.308258L160.245911,96.389923L159.888275,96.702301L159.788071,96.788055L159.429688,97.088470L159.325470,97.173981L158.960907,97.466888L158.857361,97.548370L158.481216,97.838165L158.382965,97.912384L157.989792,98.203583L157.900864,98.268280L157.485260,98.565338L157.408356,98.619415L156.964859,98.926758L156.901184,98.970306L156.424393,99.292389L156.370285,99.328552L155.890289,99.645782L155.825577,99.688019L155.371948,99.980133L155.292450,100.030487L154.858978,100.300812L154.765289,100.358124L154.345795,100.609955L154.239639,100.672333L153.827942,100.908936L153.712997,100.973419L153.302902,101.198151L153.183914,101.261749L152.769241,101.477875L152.651840,101.537567L152.226379,101.748444L152.115646,101.802002L151.673233,102.010895L151.573257,102.057098L151.107666,102.267303L151.021652,102.305389L150.526718,102.520294L150.455917,102.550537L149.925476,102.773407L149.865189,102.798370L149.332520,103.015900L149.260941,103.044586L148.759018,103.242645L148.671066,103.276581L148.193192,103.457123L148.090302,103.495026L147.629730,103.660126L147.513245,103.700653L147.063309,103.852417L146.938126,103.893219L146.492065,104.033600L146.362930,104.072784L145.914062,104.203827L145.787247,104.239471L145.328812,104.363312L145.209885,104.394196L144.735199,104.512787L144.628082,104.538605L144.130417,104.653961L144.038712,104.674530L143.511383,104.788727L143.435822,104.804596L142.872070,104.919708L142.808228,104.932404L142.243362,105.041809L142.167389,105.056061L141.636490,105.152344L141.543961,105.168427L141.040039,105.252289L140.931458,105.269409L140.447525,105.341522L140.325455,105.358521L139.854538,105.419586L139.723755,105.435181L139.258881,105.485840L139.124756,105.499054L138.658936,105.540070L138.527618,105.550262L138.053848,105.582275L137.930817,105.589386L137.442123,105.613068L137.332306,105.617462L136.821716,105.633545L136.727676,105.635834L136.188187,105.644958L136.110947,105.645813L135.535599,105.648712L135.470383,105.648712L134.895035,105.645782L134.818130,105.644928L134.278641,105.635834L134.184448,105.633545L133.673843,105.617462L133.563812,105.613068L133.075119,105.589386L132.952499,105.582245L132.478745,105.550262L132.347214,105.540070L131.881378,105.499054L131.747253,105.485840L131.282379,105.435181L131.151382,105.419525L130.680481,105.358490L130.558807,105.341522L130.074890,105.269440L129.966080,105.252289L129.462173,105.168427L129.369476,105.152313L128.838577,105.056000L128.762939,105.041840L128.198074,104.932434L128.134064,104.919708L127.570320,104.804596L127.494743,104.788727L126.967415,104.674530L126.875694,104.653961L126.378059,104.538605L126.270912,104.512787L125.796242,104.394196L125.677315,104.363312L125.218895,104.239471L125.092079,104.203827L124.643196,104.072784L124.514061,104.033600L124.068001,103.893219L123.942635,103.852325L123.492683,103.700592L123.376564,103.660187L122.916008,103.495087L122.812767,103.457062L122.334892,103.276489L122.247108,103.242615L121.745186,103.044586L121.673759,103.015900L121.141090,102.798431L121.080650,102.773407L120.550194,102.550537L120.479393,102.520294L119.984474,102.305389L119.898460,102.267303L119.432884,102.057098L119.332909,102.010895L118.890480,101.802002L118.779732,101.748444L118.354271,101.537567L118.236885,101.477875L117.822197,101.261749L117.703239,101.198151L117.293144,100.973419L117.178200,100.908936L116.766502,100.672333L116.660484,100.610046L116.241005,100.358246L116.147026,100.300751L115.713554,100.030426L115.634193,99.980133L115.180550,99.688019L115.115944,99.645874L114.635948,99.328644L114.581734,99.292389L114.104942,98.970337L114.041267,98.926788L113.597786,98.619446L113.520760,98.565247L113.105141,98.268219L113.016335,98.203583L112.623161,97.912384L112.524910,97.838165L112.148750,97.548370L112.045235,97.466888L111.680672,97.174042L111.576424,97.088470L111.218056,96.788055L111.117859,96.702301L110.760231,96.389923L110.668518,96.308258L110.306206,95.979462L110.225220,95.904724L109.852814,95.555023L109.784775,95.490204L109.396851,95.115204L109.341667,95.061218L108.932785,94.656464L108.886658,94.610321L108.481865,94.201416L108.427971,94.146332L108.052956,93.758392L107.987984,93.690155L107.638306,93.317780L107.563782,93.237030L107.234978,92.874756L107.153145,92.782837L106.840767,92.425201L106.755028,92.325043L106.454620,91.966644L106.369141,91.862488L106.076248,91.497955L105.994720,91.394318L105.704910,91.018158L105.630760,90.920013L105.339561,90.526825L105.274818,90.437836L104.977776,90.022186L104.923683,89.945343L104.616364,89.501862L104.572769,89.438141L104.250710,88.961334L104.214508,88.907196L103.897263,88.427185L103.855171,88.362671L103.563049,87.909027L103.512611,87.829437L103.242302,87.395966L103.184875,87.302124L102.933075,86.882599L102.870750,86.776520L102.634140,86.364838L102.569695,86.249969L102.344978,85.839905L102.281403,85.720978L102.065269,85.306305L102.005531,85.188782L101.794670,84.763306L101.741096,84.652588L101.532196,84.210175L101.486069,84.110291L101.275826,83.644714L101.237724,83.558655L101.022835,83.063751L100.992516,82.992767L100.769661,82.462311L100.744743,82.402161L100.527237,81.869476L100.498489,81.797882L100.300484,81.295929L100.266609,81.208252L100.086060,80.730377L100.048012,80.627045L99.882896,80.166473L99.842491,80.050293L99.690742,79.600372L99.649902,79.475067L99.509514,79.029022L99.470375,78.900055L99.339294,78.451141L99.303642,78.324249L99.179832,77.865875L99.148872,77.746735L99.030296,77.272064L99.004539,77.165070L98.889168,76.667450L98.868591,76.575653L98.754379,76.048309L98.738518,75.972870L98.623421,75.409119L98.610710,75.345184L98.501305,74.780334L98.487068,74.704498L98.390793,74.173553L98.374664,74.080872L98.290810,73.576965L98.273689,73.468353L98.201591,72.984406L98.184601,72.862488L98.123550,72.391571L98.107941,72.260773L98.057266,71.795868L98.044052,71.661713L98.003052,71.195892L97.992844,71.064545L97.960846,70.590790L97.953712,70.467834L97.930031,69.979156L97.925636,69.869293L97.909561,69.358673L97.907295,69.264618L97.898155,68.725128L97.897308,68.647919L97.894424,68.072540L97.894424,68.007477L97.897316,67.432098L97.898163,67.354950L97.907303,66.815460L97.909576,66.721405L97.925644,66.210815L97.930046,66.100922L97.953720,65.612244L97.960846,65.489349L97.992851,65.015594L98.003067,64.884216L98.044052,64.418396L98.057266,64.284210L98.107956,63.819305L98.123550,63.688507L98.184601,63.217621L98.201591,63.095673L98.273689,62.611786L98.290825,62.503113L98.374680,61.999207L98.390793,61.906494L98.487083,61.375610L98.501289,61.299835L98.610695,60.734955L98.623413,60.670990L98.738503,60.107269L98.754379,60.031830L98.868584,59.504486L98.889175,59.412598L99.004555,58.914948L99.030296,58.808044L99.148872,58.333344L99.179817,58.214264L99.303627,57.755829L99.339294,57.628906L99.470383,57.180023L99.509499,57.051086L99.649902,56.605042L99.690742,56.479706L99.842491,56.029755L99.882912,55.913544L100.048027,55.453003L100.086044,55.349762L100.266594,54.871887L100.300491,54.784088L100.498512,54.282196L100.527229,54.210602L100.744736,53.677948L100.769661,53.617767L100.992516,53.087311L101.022842,53.016327L101.237732,52.521393L101.275826,52.435394L101.486076,51.969818L101.532204,51.869904L101.741096,51.427521L101.794685,51.316742L102.005554,50.891266L102.065247,50.773834L102.281387,50.359161L102.344955,50.240204L102.569672,49.830109L102.634163,49.715240L102.870773,49.303497L102.933098,49.197418L103.184898,48.777924L103.242302,48.684113L103.512611,48.250641L103.563004,48.171143L103.855125,47.717499L103.897270,47.652863L104.214516,47.172913L104.250710,47.118744L104.572769,46.641937L104.616364,46.578217L104.923683,46.134735L104.977814,46.057831L105.274849,45.642181L105.339531,45.553314L105.630730,45.160126L105.704941,45.061890L105.994766,44.685730L106.076248,44.582184L106.369141,44.217621L106.454666,44.113373L106.755066,43.755035L106.840729,43.654938L107.153107,43.297272L107.234932,43.205414L107.563736,42.843109L107.638336,42.762268L107.988022,42.389862L108.052956,42.321716L108.427971,41.933777L108.481949,41.878601L108.886742,41.469727L108.932739,41.423706L109.341629,41.018951L109.396797,40.964966L109.784729,40.589935L109.852921,40.524994L110.225327,40.175293L110.306099,40.100739L110.668404,39.771942L110.760292,39.690125L111.117912,39.377716L111.218056,39.292023L111.576424,38.991638L111.680672,38.906097L112.045235,38.613190L112.148750,38.531769L112.524910,38.241943L112.623100,38.167755L113.016273,37.876556L113.105202,37.811859L113.520821,37.514801L113.597786,37.460663L114.041267,37.153351L114.105003,37.109711L114.581795,36.787659L114.635841,36.751556L115.115837,36.434296L115.180550,36.392090L115.634193,36.099976L115.713631,36.049622L116.147102,35.779327L116.240929,35.721893L116.660423,35.470093L116.766579,35.407745L117.178276,35.171143L117.293144,35.106659L117.703255,34.881927L117.822121,34.818390L118.236809,34.602264L118.354271,34.542511L118.779732,34.331696L118.890556,34.278046L119.332985,34.069183L119.432793,34.023041L119.898369,33.812836L119.984474,33.774689L120.479393,33.559784L120.550346,33.529510L121.080788,33.306671L121.187141,33.263092L121.720894,33.049896L121.877586,32.989655L122.382362,32.803070L122.536812,32.748199L123.018730,32.583771L123.163048,32.536407L123.628242,32.389801L123.753548,32.351715L124.208138,32.218475L124.306374,32.190491L124.756477,32.066254L124.821480,32.048676L125.273216,31.928986L125.301949,31.921478L125.761452,31.802002L126.227303,31.680267L126.680611,31.558563L127.132927,31.431671L127.569679,31.302216L127.569679,31.302216L128.817276,31.064056L130.087341,31.073944L131.331100,31.331329L132.500717,31.826447L133.551285,32.540253L134.442413,33.445282L135.139847,34.506744L135.616791,35.683929L135.854935,36.931519L135.845093,38.201569L135.587662,39.445343L135.092545,40.614990L134.378738,41.665558L133.473709,42.556671L132.412216,43.254089L131.235062,43.731049L130.710846,43.885651L130.623398,43.910767L130.103851,44.056061L130.036636,44.074493L129.543213,44.206818L129.503113,44.217407L129.029724,44.341095L129.022171,44.343079L128.562668,44.462555L128.139648,44.574677L127.754539,44.681366L127.398201,44.786652L127.058327,44.895142L126.720726,45.012177L126.370399,45.143921L125.993324,45.296844L125.569221,45.476105L125.145256,45.660706L124.765785,45.832794L124.423180,45.995605L124.108528,46.152863L123.811317,46.309296L123.520103,46.470459L123.223274,46.642578L122.909935,46.832031L122.570305,47.044952L122.196098,47.286713L121.780815,47.561737L121.358086,47.847687L120.978340,48.111389L120.639671,48.354279L120.335442,48.580780L120.057487,48.796387L119.796471,49.007782L119.542351,49.222656L119.284859,49.449371L119.014427,49.696381L118.722786,49.971466L118.403053,50.281525L118.049339,50.632355L117.690544,50.995209L117.369514,51.327972L117.084770,51.632233L116.830574,51.913727L116.600014,52.179443L116.385262,52.437714L116.177910,52.698029L115.969582,52.970612L115.752602,53.265533L115.520256,53.592255L115.267067,53.958832L114.988609,54.371887L114.707558,54.797729L114.457588,55.186737L114.237663,55.540710L114.043266,55.866394L113.868980,56.171967L113.708763,56.467194L113.556190,56.762909L113.405022,57.070953L113.249718,57.402618L113.085609,57.768341L112.908821,58.177216L112.716270,58.636688L112.523689,59.109161L112.354424,59.539520L112.207756,59.929596L112.080650,60.286896L111.969337,60.620636L111.869789,60.941406L111.777809,61.261322L111.689674,61.592804L111.602058,61.948395L111.512428,62.339142L111.418816,62.774597L111.319603,63.262878L111.222923,63.763763L111.140839,64.218903L111.073105,64.630157L111.018143,65.005402L110.974075,65.354370L110.939003,65.688446L110.911232,66.020111L110.889442,66.362518L110.872887,66.728302L110.861214,67.128998L110.854355,67.574432L110.852303,68.072601L110.855194,68.582916L110.863480,69.045135L110.877274,69.461700L110.896576,69.840485L110.921432,70.191315L110.952217,70.525848L110.989677,70.856537L111.035110,71.196625L111.090233,71.558624L111.156960,71.953888L111.237129,72.392120L111.332314,72.881073L111.434685,73.380920L111.533028,73.832794L111.627815,74.238678L111.720619,74.606354L111.813484,74.945648L111.908913,75.267670L112.010170,75.584717L112.121071,75.909393L112.245796,76.253815L112.388298,76.628296L112.552437,77.042542L112.741203,77.503571L112.939125,77.973846L113.123695,78.397797L113.295845,78.777313L113.458611,79.119873L113.615898,79.434631L113.772301,79.731781L113.933449,80.022949L114.105614,80.319855L114.295082,80.633209L114.507973,80.972839L114.749657,81.346893L115.024803,81.762360L115.310661,82.184967L115.574394,82.564758L115.817329,82.903473L116.043770,83.207672L116.259438,83.485657L116.470787,83.746582L116.685707,84.000824L116.912346,84.258209L117.159340,84.528625L117.434502,84.820343L117.744530,85.140045L118.095421,85.493866L118.458168,85.852509L118.790932,86.173553L119.095299,86.458405L119.376625,86.712433L119.642540,86.943176L119.900719,87.157837L120.161018,87.365173L120.433647,87.573517L120.728539,87.790497L121.055351,88.022919L121.421822,88.276031L121.834923,88.554535L122.260704,88.835510L122.649742,89.085480L123.003838,89.305511L123.329353,89.499817L123.635063,89.674164L123.930199,89.834381L124.225914,89.986908L124.533989,90.138092L124.865669,90.293427L125.231285,90.457489L125.640175,90.634308L126.099831,90.826874L126.572060,91.019348L127.002541,91.188690L127.392616,91.335358L127.749931,91.462463L128.083771,91.573822L128.404449,91.673370L128.724213,91.765289L129.055817,91.853424L129.411575,91.941101L129.802078,92.030670L130.237717,92.124298L130.725876,92.223511L131.226715,92.320160L131.681976,92.402283L132.093201,92.470001L132.468323,92.524963L132.817566,92.569061L133.151443,92.604095L133.483154,92.631897L133.825394,92.653656L134.191467,92.670258L134.592026,92.681915L135.037308,92.688751L135.535751,92.690826L136.045914,92.687897L136.508148,92.679626L136.924713,92.665863L137.303558,92.646545L137.654297,92.621674L137.988815,92.590912L138.319565,92.553436L138.659683,92.507996L139.021530,92.452911L139.416855,92.386139L139.855225,92.306000L140.344116,92.210785L140.843994,92.108429L141.295761,92.010101L141.701706,91.915314L142.069244,91.822510L142.408752,91.729645L142.730804,91.634186L143.047745,91.532959L143.372498,91.422028L143.716568,91.297394L144.091537,91.154755L144.505493,90.990692L144.966599,90.801910L145.436737,90.604034L145.860886,90.419403L146.240433,90.247253L146.582870,90.084503L146.897598,89.927216L147.194901,89.770782L147.486023,89.609650L147.782776,89.437531L148.096100,89.248108L148.435898,89.035126L148.810028,88.793365L149.225327,88.518341L149.647995,88.232452L150.027802,87.968689L150.366501,87.725800L150.670746,87.499298L150.948654,87.283722L151.209656,87.072296L151.463791,86.857422L151.721222,86.630768L151.991821,86.383636L152.283249,86.108734L152.603119,85.798553L152.956818,85.447723L153.315491,85.084991L153.636612,84.752106L153.921402,84.447845L154.175507,84.166443L154.406174,83.900604L154.620819,83.642456L154.828217,83.382050L155.036499,83.109528L155.253540,82.814545L155.485886,82.487823L155.738998,82.121307L156.017548,81.708160L156.298569,81.282379L156.548538,80.893341L156.768478,80.539368L156.962906,80.213654L157.137100,79.908173L157.297363,79.612946L157.449966,79.317108L157.601135,79.009125L157.756393,78.677521L157.920547,78.311737L158.097305,77.902924L158.289856,77.443390L158.482422,76.970917L158.651733,76.540558L158.798370,76.150482L158.925507,75.793182L159.036774,75.459503L159.136353,75.138702L159.228317,74.818817L159.316483,74.487183L159.404068,74.131744L159.493698,73.740936L159.587326,73.305450L159.686539,72.817230L159.783218,72.316315L159.865280,71.861237L159.933029,71.449951L159.987991,71.074677L160.032059,70.725677L160.067123,70.391693L160.094894,70.059967L160.116684,69.717621L160.133255,69.351746L160.144913,68.951080L160.151779,68.505676L160.153824,68.007477L160.150925,67.497223L160.142654,67.034943L160.128860,66.618408L160.109558,66.239594L160.084702,65.888763L160.053909,65.554230L160.016464,65.223602L159.971024,64.883453L159.915894,64.521454L159.849167,64.126190L159.769012,63.688049L159.673813,63.198944L159.571442,62.699219L159.473099,62.247253L159.378326,61.841461L159.285492,61.473663L159.192673,61.134491L159.097229,60.812408L158.995956,60.495331L158.885056,60.170624L158.760361,59.826385L158.617813,59.451721L158.453690,59.037567L158.264938,58.576508L158.067017,58.106262L157.882431,57.682281L157.710297,57.302704L157.547516,56.960175L157.390244,56.645508L157.233826,56.348267L157.072662,56.057098L156.900543,55.760284L156.711060,55.446899L156.498199,55.107330L156.256424,54.733124L155.981339,54.317749L155.695480,53.895111L155.431702,53.515289L155.188843,53.176666L154.962357,52.872467L154.746719,52.594452L154.535309,52.333466L154.320465,52.079315L154.093750,51.821808L153.846802,51.551422L153.571686,51.259827L153.261581,50.940002L152.910797,50.586334L152.547897,50.227509L152.215164,49.906494L151.910934,49.621796L151.629395,49.367523L151.363647,49.136963L151.105438,48.922272L150.845108,48.714935L150.572510,48.506592L150.277512,48.289551L149.950836,48.057220L149.584381,47.804108L149.171219,47.525604L148.745316,47.244507L148.356415,46.994598L148.002350,46.774628L147.676697,46.580231L147.371140,46.405975L147.075958,46.245758L146.780136,46.093170L146.472137,45.941986L146.140533,45.786713L145.774765,45.622589L145.365891,45.445770L144.906448,45.253265L144.433929,45.060669L144.003586,44.891388L143.613586,44.744781L143.256195,44.617645L142.922455,44.506317L142.601761,44.406769L142.281738,44.314789L141.950317,44.226654L141.594666,44.139038L141.204056,44.049438L140.768524,43.955811L140.280273,43.856598L139.779236,43.759888L139.324249,43.677826L138.913025,43.610077L138.537704,43.555145L138.188675,43.511078L137.854691,43.476013L137.522995,43.448212L137.180649,43.426422L136.814774,43.409882L136.414108,43.398224L135.968750,43.391327L135.470474,43.389313L135.010757,43.396149L134.640793,43.412628L134.296417,43.436768L133.961884,43.467865L133.621353,43.505951L133.259384,43.551666L132.863083,43.605316L132.422134,43.666779L132.414474,43.667816L131.929794,43.734711L131.888626,43.740265L131.382156,43.806854L131.313049,43.815552L130.777451,43.880127L130.687134,43.890350L130.115067,43.951202L130.115067,43.951202L128.844986,43.961060L127.597389,43.722961L126.420219,43.246063L125.358711,42.548615L124.453667,41.657501L123.739861,40.606964L123.244713,39.437347L122.987267,38.193604L122.977394,36.923523L123.215492,35.675934L123.692421,34.498749L124.389839,33.437256L125.280937,32.532227L126.331490,31.818390L127.501122,31.323273L128.744873,31.065796L129.311218,31.005585z" />
				<polygon fill="#000000" stroke="none" fill-opacity="1" points="10.000000,68.045685 10.775948,67.156525 11.525166,66.277161 12.256556,65.404327 12.979034,64.534790 13.701513,63.665253 14.432903,62.792450 15.182121,61.913055 15.958059,61.023895 16.769655,60.121674 17.625807,59.203064 18.535418,58.264832 19.507410,57.303741 20.617208,56.241943 21.669565,55.260071 22.678225,54.344818 23.656942,53.482819 24.619482,52.660858 25.579596,51.865570 26.551035,51.083588 27.547564,50.301758 28.582922,49.506653 29.670893,48.684998 30.825212,47.823486 32.059639,46.908844 33.401810,45.924316 34.667168,45.012360 35.872627,44.160858 37.035118,43.357513 38.171555,42.590302 39.298851,41.846863 40.433922,41.115143 41.593689,40.382874 42.795074,39.637909 44.054985,38.868103 45.390343,38.061218 46.818054,37.205078 48.294014,36.327057 49.681534,35.511932 50.999474,34.749207 52.266701,34.028534 53.502075,33.339447 54.724457,32.671600 55.952713,32.014557 57.205704,31.357941 58.502304,30.691376 59.861359,30.004364 61.301735,29.286560 62.842308,28.527557 64.380394,27.775787 65.824242,27.076233 67.193779,26.420929 68.508919,25.801910 69.789581,25.211151 71.055664,24.640656 72.327087,24.082428 73.623779,23.528473 74.965630,22.970795 76.372589,22.401459 77.864532,21.812408 79.461403,21.195648 81.080193,20.580170 82.600197,20.010742 84.042145,19.481232 85.426804,18.985565 86.774933,18.517609 88.107262,18.071198 89.444565,17.640228 90.807579,17.218597 92.217056,16.800140 93.693756,16.378784 95.258423,15.948395 96.931816,15.502777 98.691444,15.046936 100.343636,14.631927 101.910599,14.253082 103.414528,13.905792 104.877617,13.585358 106.322067,13.287140 107.770058,13.006470 109.243805,12.738739 110.765495,12.479218 112.357307,12.223328 114.041481,11.966400 115.840157,11.703735 117.682289,11.440582 119.410194,11.197937 121.047050,10.976318 122.616005,10.776154 124.140251,10.597870 125.642937,10.441895 127.147255,10.308716 128.676392,10.198761 130.253464,10.112457 131.901672,10.050262 133.644196,10.012665 135.504196,10.000000 137.364182,10.012665 139.106705,10.050262 140.754913,10.112457 142.332001,10.198761 143.861115,10.308716 145.365433,10.441895 146.868134,10.597870 148.392365,10.776154 149.961334,10.976318 151.598175,11.197937 153.326080,11.440582 155.168228,11.703735 156.966904,11.966400 158.651047,12.223328 160.242889,12.479218 161.764572,12.738739 163.238312,13.006470 164.686310,13.287140 166.130753,13.585358 167.593857,13.905792 169.097778,14.253082 170.664749,14.631927 172.316940,15.046936 174.076569,15.502777 175.749969,15.948395 177.314636,16.378784 178.791336,16.800140 180.200821,17.218597 181.563843,17.640228 182.901123,18.071198 184.233475,18.517609 185.581589,18.985565 186.966263,19.481232 188.408203,20.010712 189.928192,20.580170 191.546997,21.195648 193.143875,21.812408 194.635818,22.401459 196.042755,22.970825 197.384613,23.528473 198.681305,24.082428 199.952744,24.640656 201.218826,25.211182 202.499466,25.801971 203.814606,26.420990 205.184143,27.076263 206.628021,27.775818 208.166092,28.527618 209.706680,29.286591 211.147049,30.004395 212.506104,30.691376 213.802704,31.358002 215.055695,32.014618 216.283951,32.671631 217.506332,33.339447 218.741714,34.028534 220.008942,34.749207 221.326874,35.511932 222.714386,36.327087 224.190338,37.205078 225.618073,38.061218 226.953430,38.868103 228.213348,39.637909 229.414734,40.382874 230.574478,41.115112 231.709549,41.846863 232.836853,42.590271 233.973282,43.357513 235.135757,44.160858 236.341217,45.012360 237.606567,45.924316 238.948730,46.908844 240.183151,47.823517 241.337448,48.684998 242.425430,49.506653 243.460800,50.301727 244.457321,51.083588 245.428757,51.865540 246.388870,52.660858 247.351425,53.482819 248.330124,54.344818 249.338791,55.260071 250.391129,56.241943 251.500931,57.303741 252.472946,58.264832 253.382553,59.203033 254.238724,60.121613 255.050339,61.023895 255.826248,61.913055 256.575470,62.792389 257.306854,63.665253 258.029327,64.534760 258.751801,65.404327 259.483215,66.277130 260.232422,67.156525 261.008362,68.045685 259.629822,67.098724 258.288879,66.160309 256.972931,65.227600 255.669540,64.297760 254.366135,63.367859 253.050186,62.435150 251.709213,61.496735 250.330673,60.549805 248.902084,59.591461 247.410873,58.618866 245.844528,57.629181 244.190567,56.619598 242.138657,55.402252 240.204727,54.281067 238.363419,53.240204 236.589355,52.263580 234.857193,51.335266 233.141556,50.439331 231.417084,49.559814 229.658371,48.680756 227.840073,47.786102 225.936798,46.860016 223.923218,45.886444 221.773941,44.849457 220.511307,44.240082 219.327423,43.670013 218.205688,43.133392 217.129471,42.624359 216.082184,42.137054 215.047211,41.665619 214.007965,41.204193 212.947800,40.746918 211.850159,40.287964 210.698395,39.821442 209.475906,39.341522 208.166092,38.842316 206.626907,38.273712 205.178711,37.758209 203.802658,37.287262 202.479797,36.852264 201.191315,36.444702 199.918289,36.056000 198.641815,35.677582 197.343048,35.300934 196.003052,34.917511 194.602966,34.518738 193.123901,34.096039 191.546997,33.640839 189.910446,33.163239 188.377426,32.713226 186.926773,32.287354 185.537247,31.881989 184.187637,31.493622 182.856750,31.118652 181.523346,30.753540 180.166245,30.394745 178.764236,30.038666 177.296097,29.681732 175.740601,29.320465 174.076569,28.951202 172.310104,28.572662 170.652588,28.227966 169.081802,27.913300 167.575424,27.624817 166.111145,27.358673 164.666718,27.111115 163.219818,26.878235 161.748169,26.656281 160.229462,26.441376 158.641434,26.229706 156.961792,26.017426 155.168228,25.800812 153.322754,25.583160 151.592300,25.383118 149.953674,25.200958 148.383591,25.036957 146.858871,24.891296 145.356262,24.764252 143.852524,24.656097 142.324448,24.567047 140.748810,24.497314 139.102371,24.447235 137.361908,24.416992 135.504196,24.406891 133.646484,24.416992 131.906021,24.447235 130.259583,24.497314 128.683945,24.567047 127.155861,24.656097 125.652138,24.764252 124.149513,24.891296 122.624779,25.036957 121.054710,25.200958 119.416069,25.383118 117.685631,25.583160 115.840157,25.800812 114.046593,26.017426 112.366936,26.229706 110.778908,26.441376 109.260216,26.656281 107.788559,26.878265 106.341660,27.111115 104.897217,27.358673 103.432953,27.624817 101.926567,27.913300 100.355774,28.227997 98.698288,28.572693 96.931816,28.951202 95.267784,29.320465 93.712296,29.681732 92.244156,30.038666 90.842140,30.394745 89.485039,30.753540 88.151657,31.118652 86.820755,31.493622 85.471146,31.881989 84.081627,32.287354 82.630959,32.713226 81.097961,33.163208 79.461403,33.640839 77.884483,34.096039 76.405418,34.518738 75.005348,34.917511 73.665359,35.300934 72.366585,35.677582 71.090111,36.055939 69.817085,36.444672 68.528595,36.852203 67.205757,37.287201 65.829689,37.758179 64.381516,38.273682 62.842308,38.842255 61.532501,39.341461 60.310020,39.821381 59.158249,40.287933 58.060600,40.746918 57.000443,41.204163 55.961182,41.665588 54.926216,42.137024 53.878929,42.624359 52.802711,43.133392 51.680969,43.670013 50.497086,44.240082 49.234451,44.849457 47.085175,45.886444 45.071579,46.860016 43.168320,47.786102 41.350014,48.680756 39.591301,49.559845 37.866814,50.439362 36.151176,51.335266 34.419014,52.263580 32.644974,53.240204 30.803652,54.281067 28.869719,55.402252 26.817778,56.619598 25.163813,57.629181 23.597486,58.618866 22.106283,59.591461 20.677679,60.549774 19.299147,61.496735 17.958174,62.435150 16.642244,63.367859 15.338835,64.297760 14.035425,65.227600 12.719507,66.160309 11.378534,67.098724 10.000000,68.045685 10.000000,68.045685 10.000000,68.045685 10.000000,68.045685 10.000000,68.045685 10.000000,68.045685 10.000000,68.045685 10.000000,68.045685 10.000000,68.045685 10.000000,68.045685 10.000000,68.045685 10.000000,68.045685 10.000000,68.045685" />
				<polygon fill="#000000" stroke="none" fill-opacity="1" points="19.507429,78.787628 20.617224,79.849396 21.669565,80.831268 22.678232,81.746552 23.656950,82.608490 24.619482,83.430511 25.579596,84.225800 26.551035,85.007751 27.547564,85.789581 28.582922,86.584686 29.670885,87.406342 30.825205,88.267853 32.059624,89.182526 33.401794,90.167023 34.667145,91.078979 35.872612,91.930511 37.035110,92.733826 38.171547,93.501068 39.298836,94.244507 40.433914,94.976227 41.593674,95.708496 42.795052,96.453461 44.054962,97.223267 45.390327,98.030182 46.818054,98.886292 48.294014,99.764282 49.681526,100.579437 50.999466,101.342163 52.266701,102.062836 53.502068,102.751923 54.724457,103.419739 55.952713,104.076752 57.205704,104.733368 58.502304,105.399994 59.861351,106.086975 61.301727,106.804779 62.842308,107.563751 64.380394,108.315552 65.824242,109.015106 67.193779,109.670380 68.508919,110.289429 69.789581,110.880219 71.055664,111.450714 72.327087,112.008942 73.623779,112.562897 74.965630,113.120544 76.372589,113.689911 77.864532,114.278961 79.461403,114.895721 81.080193,115.511200 82.600197,116.080658 84.042145,116.610138 85.426804,117.105804 86.774933,117.573761 88.107262,118.020172 89.444565,118.451141 90.807579,118.872772 92.217056,119.291199 93.693756,119.712555 95.258423,120.143005 96.931816,120.588593 98.691444,121.044434 100.343636,121.459442 101.910606,121.838257 103.414543,122.185577 104.877625,122.506012 106.322075,122.804230 107.770073,123.084869 109.243813,123.352600 110.765495,123.612091 112.357323,123.868011 114.041481,124.124908 115.840157,124.387573 117.682304,124.650757 119.410210,124.893372 121.047050,125.115021 122.616005,125.315186 124.140251,125.493500 125.642952,125.649445 127.147270,125.782623 128.676392,125.892578 130.253479,125.978882 131.901688,126.041077 133.644211,126.078705 135.504211,126.091370 137.364197,126.078705 139.106705,126.041077 140.754929,125.978882 142.332001,125.892578 143.861115,125.782623 145.365433,125.649445 146.868134,125.493500 148.392365,125.315186 149.961334,125.115021 151.598175,124.893402 153.326080,124.650787 155.168228,124.387573 156.966904,124.124908 158.651047,123.868011 160.242889,123.612091 161.764572,123.352631 163.238312,123.084869 164.686310,122.804230 166.130753,122.506012 167.593857,122.185577 169.097778,121.838257 170.664734,121.459442 172.316925,121.044434 174.076569,120.588593 175.749969,120.142975 177.314636,119.712555 178.791336,119.291168 180.200821,118.872742 181.563843,118.451080 182.901123,118.020142 184.233475,117.573730 185.581589,117.105743 186.966248,116.610077 188.408203,116.080597 189.928192,115.511169 191.546997,114.895660 193.143860,114.278900 194.635803,113.689850 196.042755,113.120514 197.384613,112.562836 198.681305,112.008881 199.952728,111.450653 201.218796,110.880157 202.499451,110.289398 203.814590,109.670349 205.184143,109.015076 206.627975,108.315521 208.166077,107.563751 209.706650,106.804779 211.147018,106.086975 212.506088,105.399994 213.802673,104.733368 215.055664,104.076782 216.283905,103.419769 217.506287,102.751923 218.741669,102.062836 220.008865,101.342163 221.326813,100.579437 222.714325,99.764282 224.190292,98.886292 225.618027,98.030182 226.953384,97.223267 228.213287,96.453461 229.414673,95.708496 230.574432,94.976227 231.709518,94.244507 232.836807,93.501068 233.973251,92.733826 235.135742,91.930511 236.341217,91.078979 237.606567,90.167023 238.948746,89.182526 240.183151,88.267853 241.337479,87.406342 242.425430,86.584686 243.460800,85.789581 244.457321,85.007751 245.428757,84.225800 246.388870,83.430511 247.351425,82.608521 248.330124,81.746552 249.338791,80.831268 250.391129,79.849396 251.500931,78.787628 252.472946,77.826508 253.382553,76.888275 254.238724,75.969696 255.050339,75.067474 255.826248,74.178314 256.575470,73.298920 257.306854,72.426117 258.029327,71.556549 258.751801,70.687042 259.483215,69.814178 260.232422,68.934845 261.008362,68.045685 259.629822,68.992645 258.288879,69.931030 256.972931,70.863739 255.669540,71.793610 254.366135,72.723480 253.050186,73.656219 251.709213,74.594635 250.330673,75.541595 248.902084,76.499908 247.410873,77.472504 245.844528,78.462189 244.190567,79.471771 242.138657,80.689148 240.204727,81.810272 238.363419,82.851227 236.589355,83.827820 234.857193,84.756104 233.141556,85.652008 231.417084,86.531555 229.658371,87.410645 227.840073,88.305267 225.936798,89.231354 223.923218,90.204926 221.773941,91.241913 220.511307,91.851288 219.327423,92.421356 218.205688,92.957977 217.129471,93.467010 216.082184,93.954315 215.047211,94.425751 214.007965,94.887177 212.947800,95.344452 211.850159,95.803406 210.698395,96.269928 209.475906,96.749847 208.166092,97.249054 206.626907,97.817657 205.178711,98.333160 203.802658,98.804108 202.479797,99.239105 201.191315,99.646698 199.918289,100.035370 198.641815,100.413788 197.343048,100.790405 196.003052,101.173859 194.602966,101.572662 193.123901,101.995331 191.546997,102.450531 189.910446,102.928162 188.377426,103.378143 186.926773,103.804016 185.537247,104.209381 184.187637,104.597748 182.856750,104.972717 181.523346,105.337830 180.166245,105.696655 178.764236,106.052734 177.296097,106.409637 175.740601,106.770905 174.076569,107.140167 172.310104,107.518707 170.652588,107.863373 169.081802,108.178070 167.575424,108.466583 166.111145,108.732697 164.666718,108.980255 163.219818,109.213104 161.748169,109.435120 160.229462,109.649994 158.641434,109.861664 156.961792,110.073944 155.168228,110.290558 153.322754,110.508240 151.592300,110.708252 149.953674,110.890411 148.383591,111.054413 146.858871,111.200073 145.356262,111.327118 143.852524,111.435303 142.324448,111.524353 140.748810,111.594025 139.102371,111.644135 137.361908,111.674347 135.504196,111.684509 133.646484,111.674347 131.906021,111.644135 130.259583,111.594025 128.683945,111.524353 127.155861,111.435303 125.652138,111.327118 124.149513,111.200073 122.624779,111.054413 121.054710,110.890411 119.416069,110.708252 117.685631,110.508240 115.840157,110.290558 114.046593,110.073944 112.366936,109.861664 110.778908,109.649994 109.260216,109.435120 107.788559,109.213104 106.341660,108.980255 104.897217,108.732666 103.432953,108.466583 101.926567,108.178070 100.355774,107.863373 98.698288,107.518707 96.931816,107.140167 95.267784,106.770905 93.712296,106.409637 92.244156,106.052734 90.842140,105.696655 89.485039,105.337830 88.151657,104.972717 86.820755,104.597748 85.471146,104.209381 84.081627,103.804016 82.630959,103.378143 81.097961,102.928162 79.461403,102.450531 77.884483,101.995331 76.405418,101.572662 75.005348,101.173859 73.665359,100.790436 72.366585,100.413788 71.090111,100.035431 69.817085,99.646698 68.528595,99.239166 67.205757,98.804169 65.829689,98.333191 64.381516,97.817688 62.842308,97.249115 61.532501,96.749908 60.310020,96.269989 59.158249,95.803436 58.060600,95.344482 57.000443,94.887207 55.961182,94.425781 54.926216,93.954346 53.878929,93.467010 52.802711,92.957977 51.680969,92.421356 50.497086,91.851288 49.234451,91.241913 47.085175,90.204926 45.071579,89.231354 43.168320,88.305237 41.350014,87.410614 39.591301,86.531525 37.866814,85.652008 36.151176,84.756104 34.419014,83.827789 32.644974,82.851227 30.803652,81.810272 28.869719,80.689148 26.817778,79.471771 25.163813,78.462189 23.597486,77.472504 22.106276,76.499939 20.677671,75.541595 19.299135,74.594635 17.958162,73.656219 16.642244,72.723480 15.338835,71.793610 14.035416,70.863739 12.719498,69.931030 11.378525,68.992645 10.000000,68.045685 10.775948,68.934845 11.525166,69.814178 12.256556,70.687042 12.979034,71.556549 13.701513,72.426117 14.432903,73.298920 15.182121,74.178314 15.958067,75.067474 16.769663,75.969696 17.625814,76.888306 18.535433,77.826508 19.458822,78.739594" />
			</g>
		</g>
	</g>
</svg>
