<?xml version="1.0" encoding="UTF-8"?>
<!-- Generator: Blender, SVG Export for Grease Pencil - v1.0 -->
<!DOCTYPE svg PUBLIC "-//W3C//DTD SVG 1.1//EN" "http://www.w3.org/Graphics/SVG/1.1/DTD/svg11.dtd">
<svg version="1.0" x="0px" y="0px" xmlns="http://www.w3.org/2000/svg" width="273px" height="283px" viewBox="0 0 273 283">
	<g id="blender_frame_1">
		<g id="blender_object_GPencil">
			<!--Layer: GP_Layer-->
			<g id="GP_Layer">
				<path fill-opacity="1" fill="#000000" stroke="none" d="M85.739723,129.091187L85.257423,128.955627L84.773811,128.830505L84.274216,128.707489L83.745567,128.578369L83.706177,128.568542L83.177681,128.434082L83.088081,128.410278L82.564522,128.264984L82.428719,128.224884L81.904602,128.060669L81.731339,128.002319L81.201187,127.811035L81.002525,127.733765L80.460831,127.507385L80.250458,127.412781L79.691727,127.143188L79.482338,127.034973L78.901077,126.714111L78.757339,126.631104L78.261490,126.331787L78.162369,126.270111L77.703964,125.976135L77.589233,125.899933L77.163467,125.607239L77.035965,125.516083L76.638062,125.220581L76.502335,125.115540L76.127495,124.813171L75.989372,124.696899L75.632797,124.383667L75.498642,124.260681L75.155540,123.932495L75.030991,123.808411L74.696587,123.461243L74.586029,123.342041L74.255516,122.971893L74.161285,122.862732L73.829872,122.465454L73.752617,122.370117L73.415520,121.941711L73.354477,121.862274L73.006889,121.398712L72.950027,121.321106L72.638344,120.885437L72.569046,120.785583L72.287994,120.368286L72.211990,120.251373L71.958519,119.847290L71.878746,119.714905L71.649773,119.318878L71.569931,119.174438L71.362373,118.781372L71.286362,118.630310L71.097145,118.235046L71.028389,118.083984L70.854439,117.681335L70.795280,117.537292L70.633522,117.122131L70.585007,116.991425L70.432350,116.558655L70.394287,116.445740L70.247673,115.990173L70.219040,115.897583L70.075371,115.414093L70.054726,115.342346L69.910973,114.825745L69.889221,114.744507L69.684349,113.948242L69.656235,113.832367L69.484894,113.080597L69.457611,112.951752L69.317245,112.235107L69.292496,112.096863L69.180496,111.405914L69.159821,111.263306L69.073563,110.588715L69.057938,110.447937L68.994858,109.780304L68.984436,109.648193L68.941940,108.978149L68.936111,108.860626L68.911583,108.178711L68.909157,108.080200L68.900009,107.377106L68.899712,107.299927L68.903358,106.566223L68.903999,106.510773L68.917824,105.737061L68.918587,105.702026L68.940025,104.878937L68.954582,104.309753L68.967056,103.779694L68.967636,103.757782L68.982315,103.245850L68.984314,103.189087L69.004883,102.698181L69.009850,102.604370L69.040207,102.128723L69.050560,101.998047L69.094612,101.531921L69.113281,101.368256L69.174942,100.905945L69.204544,100.716370L69.287735,100.252136L69.329796,100.046448L69.438385,99.574524L69.492561,99.363708L69.630455,98.878387L69.694565,98.672546L69.865692,98.168121L69.936218,97.975464L70.144447,97.446167L70.195923,97.321136L70.388252,96.874115L70.432365,96.775024L70.630325,96.345093L70.698959,96.203003L70.906372,95.792908L71.006775,95.606049L71.227432,95.218597L71.369095,94.987152L71.606743,94.625061L71.800903,94.352966L72.059372,94.019012L72.317177,93.716064L72.600235,93.412994L72.929276,93.096313L73.240723,92.826935L73.640327,92.520355L73.983932,92.287384L74.441338,92.016968L74.820900,91.823212L75.311638,91.610138L75.730942,91.458313L76.224998,91.312286L76.687813,91.205200L77.208191,91.118042L77.810226,91.054932L78.418678,91.034515L78.977219,91.055389L79.595978,91.123657L80.117752,91.219910L80.690048,91.366821L81.181763,91.529816L81.663857,91.722687L82.132263,91.943787L82.505676,92.143127L82.957474,92.413696L83.224854,92.587616L83.666771,92.899048L83.840965,93.028503L84.279732,93.372162L84.374954,93.448944L84.817284,93.816162L84.844727,93.839142L85.297340,94.221313L85.733742,94.582062L86.136719,94.895508L86.160896,94.914581L86.513397,95.194580L86.680618,95.334473L87.003029,95.618439L87.152649,95.756653L87.449272,96.043945L87.577568,96.173645L87.852692,96.463806L87.956993,96.577820L88.214920,96.870178L88.293701,96.962097L88.538734,97.256165L88.591370,97.320557L88.827805,97.615753L88.854103,97.648926L89.086227,97.944702L89.318367,98.240417L89.528496,98.502441L89.720886,98.732086L89.900002,98.932556L90.465500,99.746368L90.829437,100.668091L90.972466,101.648743L90.991982,102.316223L90.992157,102.322479L91.010292,102.975525L91.010414,102.979858L91.027634,103.623230L91.027710,103.625427L91.044472,104.264038L91.061241,104.902649L91.078407,105.543854L91.096428,106.192566L91.115761,106.853790L91.136864,107.532654L91.160194,108.234131L91.186218,108.963501L91.215393,109.725769L91.216454,109.756439L91.261391,111.201050L91.262909,111.265717L91.284660,112.621643L91.285156,112.668854L91.291656,113.953552L91.291702,113.978210L91.290855,115.208984L91.290581,116.401306L91.298683,117.545410L91.322472,118.658752L91.368713,119.761230L91.444061,120.875275L91.555443,122.024719L91.710312,123.234131L91.916878,124.527374L92.773041,125.690430L93.005089,126.906372L93.238770,128.032776L93.479179,129.084900L93.731613,130.079651L94.001839,131.036011L94.296310,131.974426L94.622337,132.916382L94.987976,133.883179L95.401657,134.895264L95.871780,135.971588L96.406311,137.129211L96.886345,138.109589L97.346436,138.984528L97.799103,139.786194L98.251450,140.533691L98.711823,141.246796L99.189514,141.945374L99.694077,142.648407L100.234512,143.373413L100.818489,144.136047L101.452095,144.950134L102.139816,145.828247L102.143349,145.832764L102.884842,146.781860L103.683037,147.801880L104.419464,148.729828L105.115921,149.590698L105.783424,150.395935L106.433578,151.157715L107.078827,151.889282L107.732361,152.604614L108.408012,153.318054L109.119858,154.043854L109.881927,154.795715L110.707680,155.586670L111.609901,156.428711L112.183098,156.943634L112.717148,157.399292L113.242722,157.827545L113.765121,158.235962L114.289749,158.631897L114.821869,159.022461L115.366196,159.414429L115.926758,159.814148L116.506821,160.227905L116.526245,160.241821L117.108414,160.661316L117.146301,160.688904L117.732742,161.119995L117.787094,161.160553L118.379944,161.609039L119.171951,162.359497L119.779648,163.265717L120.173279,164.283325L120.333603,165.362610L120.252777,166.450684L119.934738,167.494415L119.395065,168.442688L118.660141,169.249146L117.765930,169.874390L116.756149,170.287720L116.220398,170.440460L116.202637,170.445496L115.677917,170.592957L115.665573,170.596436L115.148209,170.740356L115.141953,170.742096L114.628281,170.884308L114.114578,171.026520L113.603470,171.168732L113.091095,171.312744L112.573112,171.460480L112.045113,171.613770L111.502670,171.774567L110.941086,171.944855L110.355774,172.126587L108.757782,172.628357L107.248650,173.103210L105.827263,173.553223L104.474548,173.986237L103.170937,174.410034L101.896255,174.832733L100.629799,175.262512L99.350220,175.707733L98.036140,176.176971L96.665932,176.678833L95.218346,177.221802L93.672585,177.814423L91.992882,178.470886L90.426964,179.095367L88.954453,179.695435L87.552780,180.279755L86.198914,180.856964L84.869637,181.436035L83.541672,182.025940L82.191910,182.635620L80.797859,183.273773L79.337372,183.949005L77.788910,184.669556L76.131409,185.443420L75.101234,185.924866L74.138672,186.375671L73.234756,186.801453L72.377586,187.208923L71.554947,187.605164L70.753761,187.997406L69.960693,188.393188L69.161659,188.800232L68.342438,189.226624L67.488792,189.680359L66.586861,190.169312L65.623047,190.701416L64.340096,191.416870L63.134079,192.094055L62.003815,192.735565L60.934448,193.351776L59.910316,193.953339L58.915161,194.551208L57.931976,195.156921L56.943153,195.782227L55.931114,196.439270L54.878296,197.140137L53.767799,197.896667L52.583153,198.720459L51.445007,199.523285L50.381592,200.283020L49.389702,201.003723L48.455959,201.696472L47.565659,202.373291L46.703800,203.046326L45.854477,203.728699L45.001713,204.433655L44.129612,205.174530L43.222683,205.964691L42.266018,206.817017L41.245453,207.743896L39.929920,208.953369L38.702068,210.095123L37.558510,211.176025L36.485130,212.212769L35.466690,213.222870L34.487247,214.224609L33.530003,215.237091L32.577751,216.280151L31.613445,217.373840L30.620224,218.538391L29.582272,219.793152L28.484085,221.157288L27.728004,222.114929L27.026936,223.019409L26.383080,223.870850L25.787796,224.682434L25.232037,225.468140L24.705620,226.243195L24.198147,227.023743L23.698833,227.826782L23.197491,228.669312L22.684292,229.568115L22.150204,230.539154L21.587048,231.597137L21.053738,232.622528L20.563255,233.587921L20.118809,234.491394L19.715519,235.346375L19.347485,236.167725L19.008369,236.971375L18.691254,237.775085L18.389366,238.597229L18.096210,239.456848L17.806026,240.372192L17.513710,241.360687L17.214855,242.438293L17.209202,242.458435L16.838585,243.769775L16.813999,243.853912L16.439861,245.093170L16.429901,245.125793L16.064171,246.307587L15.726934,247.419861L15.440916,248.437805L15.214998,249.371307L15.053617,250.234344L14.957367,251.046692L14.925335,251.835510L14.958523,252.635193L15.063251,253.484131L15.252594,254.419708L15.491692,255.345032L15.769508,256.243225L16.069271,257.039917L16.391439,257.748810L16.738434,258.386871L17.116035,258.973938L17.533680,259.530243L18.004379,260.075134L18.542782,260.624359L19.163635,261.189880L19.879837,261.779724L20.701744,262.399353L21.409084,262.865814L21.995316,263.178070L22.548653,263.415405L23.097931,263.602448L23.674805,263.757782L24.308804,263.893463L25.023769,264.017548L25.835125,264.136597L26.752064,264.258972L27.777653,264.395477L27.835079,264.403473L28.911980,264.559692L29.022038,264.576965L30.152809,264.767151L30.168697,264.769867L32.218079,265.121490L34.034061,265.389648L35.751316,265.603424L37.400185,265.772491L39.011330,265.905975L40.615555,266.012634L42.242508,266.101013L43.920090,266.179535L45.673988,266.256683L45.681973,266.257050L47.528046,266.341278L47.555126,266.342590L49.504326,266.442261L49.546707,266.444611L51.624168,266.568787L51.640976,266.569824L54.201820,266.731628L56.584137,266.873657L58.836487,266.999359L60.991570,267.111084L63.082596,267.211304L65.142731,267.302368L67.205048,267.386688L69.302818,267.466675L71.468513,267.544617L73.734779,267.622925L76.133774,267.703918L78.697311,267.789948L83.099464,267.935822L87.220070,268.067383L91.116837,268.185669L94.845428,268.291779L98.461510,268.386658L102.021133,268.471375L105.580345,268.546906L109.195251,268.614319L112.922058,268.674652L116.816742,268.728821L120.935272,268.777985L125.333298,268.822998L128.318192,268.848633L131.112488,268.867004L133.754562,268.878448L136.282608,268.883301L138.734650,268.881897L141.149139,268.874512L143.564255,268.861511L146.018433,268.843262L148.549683,268.820007L151.196075,268.792114L153.995377,268.759827L156.985260,268.723511L159.906433,268.686462L162.641373,268.649323L165.227219,268.611115L167.700882,268.570862L170.099319,268.527588L172.459702,268.480316L174.819305,268.428040L177.215622,268.369873L179.685715,268.304688L182.267151,268.231567L184.996964,268.149536L187.912186,268.057556L190.617584,267.969269L193.151932,267.883850L195.547668,267.799683L197.839035,267.715179L200.060318,267.628693L202.246124,267.538574L204.430908,267.443207L206.649597,267.340912L208.936752,267.230042L211.327087,267.108948L213.855057,266.975922L216.555038,266.829346L216.563950,266.828888L218.670700,266.718353L218.691635,266.717285L220.666458,266.622101L220.679138,266.621521L222.548203,266.536224L222.550797,266.536102L224.340286,266.455414L226.067200,266.374268L227.754532,266.287567L229.428955,266.190094L231.118027,266.076477L232.850616,265.941528L234.655563,265.779816L236.562241,265.585815L238.599243,265.354004L238.636795,265.349884L239.913086,265.214752L240.024200,265.204254L241.230835,265.104004L241.301239,265.098663L242.450287,265.019775L242.470825,265.018402L243.574310,264.947266L244.607697,264.872803L245.558685,264.784363L246.440033,264.671997L247.269958,264.527069L248.072540,264.340698L248.875641,264.102112L249.709076,263.797150L250.600952,263.408386L251.537292,262.970337L252.505127,262.503723L253.374084,262.057587L254.143585,261.625824L254.816437,261.203003L255.399811,260.783386L255.905426,260.359741L256.350403,259.920471L256.753815,259.448517L257.134277,258.920898L257.506104,258.310577L257.877289,257.590424L258.256165,256.700653L258.508606,255.910370L258.669098,255.177979L258.759338,254.470398L258.793823,253.750977L258.779572,252.985535L258.718842,252.146973L258.613159,251.216125L258.466217,250.181152L258.285339,249.034973L258.081482,247.773041L258.075897,247.737793L257.868561,246.392242L257.681549,245.252014L257.491577,244.317963L257.282959,243.459167L257.054749,242.653564L256.804504,241.878418L256.528442,241.110413L256.222107,240.327484L255.881165,239.509705L255.502350,238.640045L255.083771,237.703674L254.625366,236.688049L254.622284,236.681183L254.128143,235.581848L253.601074,234.415863L253.112915,233.366272L252.644348,232.392792L252.187653,231.481110L251.734436,230.615540L251.275940,229.779602L250.802582,228.956024L250.304260,228.127075L249.770752,227.275513L249.192047,226.385193L248.558624,225.440674L247.861481,224.427734L246.912170,223.079407L246.013794,221.838013L245.154175,220.687653L244.320007,219.610657L243.497070,218.588440L242.670471,217.601624L241.824493,216.630524L240.943298,215.655579L240.011108,214.657898L239.012619,213.619324L237.933594,212.522949L236.760498,211.352478L235.591797,210.211273L234.498810,209.176483L233.455933,208.221313L232.446899,207.328613L231.454727,206.480896L230.461807,205.660278L229.450455,204.849304L228.403244,204.030884L227.303680,203.188904L226.136139,202.307678L224.886261,201.372559L223.540436,200.369263L222.704697,199.750671L221.934357,199.189575L221.207260,198.669678L220.511841,198.182678L219.836273,197.720093L219.168015,197.273010L218.494156,196.832458L217.802032,196.389587L217.078949,195.935822L216.312851,195.462921L215.492188,194.963013L214.606277,194.428711L213.309753,193.656738L212.102295,192.951721L210.958206,192.297546L209.859940,191.683044L208.789398,191.096863L207.728424,190.527710L206.658661,189.964294L205.562210,189.395538L204.421738,188.810669L203.220551,188.199402L201.942551,187.551453L200.572205,186.856995L199.471863,186.299255L198.445511,185.780487L197.478638,185.294617L196.557251,184.835693L195.667206,184.397736L194.793686,183.974365L193.921509,183.559143L193.034943,183.145203L192.118057,182.725769L191.155060,182.294128L190.130188,181.843628L189.028168,181.367920L187.868073,180.876312L186.784271,180.426880L185.758972,180.011444L184.776108,179.622467L183.819229,179.252441L182.871704,178.893768L181.917068,178.539062L180.939148,178.180969L179.922546,177.812500L178.852280,177.426727L177.714157,177.017029L177.710526,177.015747L176.494217,176.576782L175.201340,176.116333L174.011475,175.705261L172.879303,175.324463L171.786560,174.964661L170.715012,174.616699L169.646973,174.271606L169.640411,174.269470L168.566025,173.920654L168.546265,173.914185L167.456787,173.555389L167.425354,173.544922L166.305161,173.167633L166.264435,173.153748L165.097885,172.749481L165.050735,172.732849L163.822235,172.293152L163.771545,172.274658L162.465424,171.791016L162.419495,171.773712L161.883606,171.569183L161.844070,171.553894L161.333298,171.353912L161.296478,171.339355L160.807266,171.143250L160.774353,171.129913L160.303070,170.937042L160.275162,170.925537L159.818253,170.735291L159.796158,170.726044L159.350006,170.537720L159.334854,170.531311L158.895874,170.344299L158.888077,170.340942L158.452698,170.154572L158.017319,169.968201L157.586166,169.784546L157.155182,169.602661L156.720352,169.421692L155.805084,168.921112L155.015549,168.239319L154.387039,167.406738L153.947632,166.460571L153.717026,165.443176L153.705475,164.400085L153.913528,163.377808L154.331863,162.422180L154.941803,161.575897L155.716064,160.876770L156.036453,160.643860L156.079010,160.613281L156.395020,160.388702L156.424622,160.367798L156.737717,160.148743L156.752960,160.138123L157.064575,159.921814L157.376190,159.705475L157.674103,159.497009L157.960464,159.293274L158.238251,159.091003L158.510956,158.886566L158.782303,158.676117L159.056137,158.455688L159.336441,158.221100L160.253204,157.437927L161.126221,156.682465L161.936447,155.968567L162.694687,155.285095L163.412628,154.620331L164.102798,153.961609L164.778259,153.295776L165.452438,152.608887L166.138733,151.887024L166.849915,151.116241L167.598145,150.283234L168.394836,149.375305L169.086014,148.579224L169.740143,147.821594L170.342194,147.114685L170.897125,146.448242L171.410919,145.811218L171.891129,145.191162L172.346420,144.574310L172.786530,143.945190L173.221252,143.287476L173.660080,142.584351L174.111511,141.819427L174.583038,140.977051L174.835526,140.456543L175.167419,139.691956L175.599731,138.636292L176.097046,137.368591L176.640839,135.941101L177.217957,134.396362L177.817429,132.772583L178.429382,131.105652L179.044464,129.430176L179.047607,129.421631L179.653839,127.779663L179.660583,127.761536L180.249054,126.186646L180.260437,126.156525L181.824646,125.064331L181.678955,125.464111L181.731537,125.128601L181.783112,124.792877L181.834671,124.453949L181.887146,124.109039L181.888062,124.103058L181.941452,123.755615L181.943268,123.743958L181.998550,123.391479L182.001236,123.374634L182.059341,123.014648L182.062866,122.993225L182.124725,122.623169L182.128998,122.598083L182.195557,122.215515L182.200516,122.187622L182.272705,121.790009L182.278244,121.760071L182.357010,121.344910L182.361557,121.321289L182.654785,119.826538L182.658417,119.808258L182.939896,118.409149L182.943985,118.389099L183.217316,117.066772L183.221756,117.045593L183.490540,115.781128L183.495193,115.759583L183.762970,114.534241L183.767624,114.513306L184.038025,113.308136L184.042404,113.288818L184.319016,112.085022L184.322906,112.068207L184.609299,110.846924L184.612534,110.833221L184.912277,109.575623L184.914749,109.565369L185.231430,108.252533L185.233093,108.245697L185.570343,106.858826L185.571228,106.855133L185.932587,105.375366L185.935287,105.364319L186.075226,104.798462L186.080185,104.778625L186.216888,104.238220L186.221588,104.219757L186.355499,103.701111L186.359833,103.684570L186.491409,103.184082L186.495148,103.169983L186.624878,102.684082L186.627853,102.672974L186.756195,102.197937L186.758270,102.190247L186.885681,101.722504L186.886749,101.718567L187.013702,101.254456L187.140640,100.790283L187.266983,100.326477L187.393234,99.859131L187.519974,99.384277L187.881699,98.493530L188.452286,97.719727L189.196381,97.110962L189.462051,96.944061L189.622849,96.834320L189.808014,96.703796L190.021912,96.550598L190.268188,96.374512L190.300568,96.351624L190.550064,96.177063L190.614456,96.132996L190.870438,95.961487L190.965622,95.899719L191.231308,95.732819L191.355515,95.658020L191.634109,95.497253L191.784271,95.415009L192.079025,95.261932L192.250824,95.178070L192.564987,95.034180L192.753311,94.953918L193.090088,94.820801L193.173721,94.788849L193.576462,94.640381L193.955017,94.500214L193.988663,94.487946L194.356766,94.355530L194.433853,94.328735L194.790802,94.208801L194.915527,94.169220L195.265442,94.064697L195.440186,94.016937L195.787155,93.930817L196.010910,93.882263L196.359039,93.817474L196.625900,93.777405L196.979279,93.736908L197.277954,93.714386L197.640671,93.701141L197.955460,93.702484L198.331650,93.719452L198.645279,93.746429L199.039017,93.796570L199.336136,93.846222L199.751541,93.932465L199.955917,93.980743L200.467056,94.116180L200.620682,94.160339L201.106125,94.310760L201.291824,94.373505L201.751572,94.541992L201.968750,94.629120L202.402832,94.818756L202.648346,94.936493L203.056763,95.150360L203.324127,95.304291L203.706894,95.545532L203.985886,95.739014L204.343018,96.010651L204.620621,96.243164L204.952133,96.548401L205.214218,96.814209L205.520111,97.156067L205.754532,97.444946L206.034836,97.826538L206.233719,98.125549L206.488434,98.549957L206.648880,98.845856L206.877991,99.316254L207.020782,99.647919L207.384384,100.614838L207.513611,101.027130L207.749130,101.958313L207.833038,102.394043L207.953644,103.297363L207.986740,103.725647L208.005661,104.609009L207.994293,104.998810L207.924789,105.870117L207.884293,106.198914L207.739502,107.066040L207.687698,107.322357L207.480850,108.193115L207.432831,108.375488L207.177139,109.257843L207.142776,109.369995L206.851471,110.271790L206.835464,110.320160L206.521759,111.249237L206.201904,112.204346L205.902771,113.150970L205.637299,113.999817L205.611786,114.078430L205.341003,114.883209L205.307068,114.979858L205.029953,115.736389L204.986511,115.849548L204.698135,116.566345L204.644485,116.693115L204.339767,117.378845L204.276352,117.514404L203.950317,118.177612L203.878830,118.315918L203.526459,118.965118L203.449738,119.099915L203.066010,119.743774L202.987747,119.869598L202.567673,120.516663L202.491760,120.629211L202.030304,121.288086L201.960083,121.385071L201.452240,122.064331L201.390106,122.145203L200.830872,122.853363L200.783432,122.912231L200.373505,123.410950L200.323517,123.470520L199.927963,123.932495L199.861313,124.008270L199.474228,124.437103L199.389694,124.527771L199.005249,124.927124L198.902542,125.029846L198.514908,125.403320L198.395493,125.513611L197.998825,125.864807L197.866089,125.977081L197.454514,126.309662L197.313599,126.418243L196.881287,126.735779L196.738449,126.835815L196.279541,127.142029L196.140945,127.230255L195.649597,127.528687L195.520645,127.603638L194.990997,127.897949L194.875336,127.959656L194.301544,128.253418L194.136063,128.333252L193.504990,128.619324L193.277191,128.713928L192.659515,128.947632L192.441391,129.022797L191.835205,129.211609L191.636719,129.267639L191.040070,129.419067L190.870331,129.458069L190.281357,129.579559L190.147751,129.604675L189.564514,129.703705L189.472580,129.718170L188.893158,129.802246L188.846375,129.808716L188.268875,129.885315L187.691360,129.961914L187.158752,130.039459L186.667435,130.124023L186.212036,130.220398L186.212036,130.220398L185.459396,130.299866L184.705719,130.231018L183.979950,130.016418L183.309982,129.664368L182.721588,129.188354L182.237335,128.606720L181.875885,127.941772L181.651093,127.219116L181.571609,126.466492L181.640488,125.712769L181.855072,124.987000L182.207138,124.317047L182.683121,123.728638L183.264755,123.244415L183.929703,122.882935L184.652359,122.658173L185.241348,122.536682L185.374924,122.511566L185.958176,122.412537L186.050110,122.398071L186.629517,122.314026L186.676331,122.307495L187.253815,122.230957L187.831329,122.154358L188.363953,122.076782L188.855255,121.992218L189.310654,121.895874L189.737518,121.783508L190.145248,121.650726L190.544800,121.492188L190.948074,121.300720L191.356369,121.086731L191.770370,120.854187L192.132751,120.630707L192.453079,120.412781L192.742538,120.195251L193.013229,119.971313L193.277161,119.732391L193.545364,119.469238L193.827087,119.172668L194.129654,118.834534L194.458572,118.448364L194.818558,118.009216L195.330353,117.359863L195.776047,116.761536L196.167282,116.199707L196.511444,115.665161L196.816879,115.147095L197.092529,114.632660L197.347076,114.107788L197.588348,113.557678L197.823090,112.967651L198.056702,112.324280L198.293503,111.616150L198.537491,110.833191L198.541504,110.820435L198.860428,109.813110L198.880203,109.752380L199.203125,108.788086L199.206192,108.778992L199.519913,107.849915L199.795212,106.996552L200.016556,106.226379L200.175339,105.537933L200.268356,104.927185L200.297379,104.384644L200.267120,103.891022L200.179565,103.415955L200.027924,102.920441L199.793549,102.365814L199.707199,102.227142L199.612961,102.098602L199.531540,102.015991L199.460068,101.962982L199.390625,101.923584L199.311096,101.884399L199.207321,101.836639L199.066254,101.776703L198.877686,101.704803L198.635086,101.623474L198.335327,101.535767L197.977814,101.444427L197.766800,101.406494L197.670135,101.406006L197.607574,101.416016L197.559647,101.430603L197.504944,101.448608L197.423706,101.473328L197.300507,101.510864L197.125320,101.567627L196.893097,101.648010L196.602051,101.753601L196.252335,101.883270L196.247528,101.885010L195.844818,102.033508L195.591644,102.134705L195.465775,102.198303L195.342804,102.267517L195.214340,102.346008L195.072861,102.438110L194.912079,102.547821L194.726944,102.678314L194.513031,102.831512L194.266754,103.007629L194.234375,103.030518L193.984863,103.205078L193.920517,103.249146L193.664536,103.420654L193.569351,103.482391L193.303680,103.649292L194.850357,101.861877L194.847366,101.872955L194.719040,102.347961L194.716949,102.355652L194.589554,102.823425L194.588470,102.827332L194.461533,103.291473L194.334595,103.755615L194.208252,104.219421L194.082001,104.686768L193.955246,105.161621L193.827408,105.648010L193.697830,106.150055L193.565842,106.672028L193.430847,107.218048L193.072205,108.686829L192.735870,110.070068L192.420822,111.376068L192.123520,112.623413L191.840393,113.830994L191.567703,115.017944L191.301682,116.203766L191.038513,117.408142L190.774399,118.651001L190.505524,119.952087L190.228134,121.331177L189.938553,122.807617L189.864365,123.199158L189.797714,123.566864L189.736130,123.921478L189.678558,124.266357L189.623978,124.604919L189.571396,124.940430L189.519806,125.276184L189.468262,125.615112L189.415787,125.960022L189.414871,125.966003L189.361465,126.313416L189.359650,126.325134L189.304367,126.677551L189.301666,126.694489L189.243576,127.054443L189.039764,127.814209L189.480194,129.670471L188.903076,131.215240L188.303604,132.838989L187.691666,134.505920L187.076569,136.181396L187.073441,136.189941L186.467209,137.831909L186.460464,137.850037L185.871979,139.424927L185.860596,139.455048L185.298706,140.929321L185.280609,140.976074L184.754196,142.316223L184.725082,142.388611L184.242996,143.561035L184.193176,143.677856L183.764282,144.649048L183.667267,144.855713L183.300415,145.592163L183.186066,145.808167L182.657272,146.749817L182.600006,146.849060L182.084091,147.719788L182.019608,147.825562L181.510727,148.637207L181.440674,148.745789L180.932968,149.510315L180.859970,149.617126L180.347595,150.346436L180.275330,150.446655L179.752426,151.152649L179.684814,151.241821L179.145569,151.936401L179.086487,152.010986L178.525009,152.706146L178.477341,152.764252L177.887772,153.471802L177.853149,153.512909L177.229675,154.244812L177.208252,154.269775L176.545029,155.037964L176.535904,155.048462L175.827042,155.864807L175.809387,155.885010L174.974289,156.836182L174.935883,156.879456L174.142761,157.761719L174.097870,157.810944L173.336014,158.635742L173.285339,158.689819L172.544037,159.468597L172.489014,159.525482L171.757538,160.269653L171.700241,160.326965L170.967865,161.047974L170.910950,161.103119L170.166946,161.812378L170.113113,161.862915L169.346802,162.571899L169.298416,162.616089L168.499069,163.336121L168.457947,163.372742L167.614822,164.115356L167.581909,164.144104L166.684296,164.920715L166.659698,164.941833L165.696884,165.763855L165.650833,165.802673L165.298264,166.096313L165.225967,166.155396L164.883621,166.429688L164.815109,166.483612L164.481552,166.741364L164.419327,166.788666L164.093079,167.032593L164.039536,167.072083L163.719147,167.304962L163.676514,167.335571L163.360519,167.560181L163.330856,167.581085L163.017792,167.800171L163.002594,167.810760L162.690964,168.027069L162.379349,168.243408L162.081512,168.451843L161.795090,168.655579L161.517227,168.857910L160.969864,160.503235L160.991959,160.512512L161.438110,160.700806L161.453262,160.707245L161.892227,160.894257L161.900055,160.897583L162.335419,161.083954L162.770798,161.270325L163.201965,161.453979L163.632935,161.635864L164.067764,161.816864L164.511139,161.998169L164.967453,162.180939L165.441406,162.366364L165.937775,162.555603L167.197968,163.022034L168.375793,163.443298L169.495178,163.830933L170.574631,164.194305L171.632660,164.542633L172.687286,164.884979L173.755646,165.230225L173.762543,165.232422L174.853683,165.586792L174.873245,165.593201L175.996155,165.963013L176.026321,165.973083L177.196701,166.366943L177.234924,166.379974L178.468353,166.806335L178.511932,166.821625L179.824081,167.289001L179.843338,167.295898L181.059647,167.734802L182.196091,168.143921L182.198044,168.144623L183.276672,168.533386L183.285034,168.536438L184.316971,168.910492L184.332291,168.916077L185.332336,169.282349L185.354462,169.290466L186.337372,169.655823L186.365646,169.666443L187.346191,170.037720L187.379242,170.050354L188.372208,170.434509L188.408295,170.448639L189.428467,170.852539L189.465775,170.867493L190.527893,171.298065L190.564774,171.313171L191.683655,171.777283L191.718704,171.791992L192.909088,172.296600L192.939407,172.309570L194.071518,172.798370L194.101624,172.811493L195.159241,173.276550L195.192001,173.291077L196.189484,173.738342L196.223969,173.753967L197.175583,174.189453L197.210342,174.205505L198.130432,174.635284L198.163956,174.651093L199.066803,175.081055L199.097488,175.095825L199.997437,175.532074L200.023849,175.544983L200.935196,175.993439L200.956467,176.003967L201.893494,176.470734L201.909134,176.478577L202.886185,176.969604L202.896378,176.974731L203.927734,177.496002L203.932724,177.498535L205.032730,178.056091L206.403503,178.750793L206.404282,178.751160L207.689072,179.402557L207.695877,179.406006L208.910706,180.024292L208.924332,180.031250L210.085526,180.626801L210.106247,180.637451L211.230148,181.220612L211.257599,181.234985L212.360550,181.816040L212.393753,181.833679L213.492126,182.423096L213.529495,182.443359L214.639587,183.051422L214.679153,183.073334L215.817337,183.710419L215.857254,183.733002L217.039886,184.409485L217.078461,184.431763L218.321854,185.158020L218.357819,185.179199L219.678345,185.965515L219.702332,185.979919L220.607193,186.525665L220.626099,186.537170L221.471802,187.052429L221.496826,187.067780L222.294189,187.560150L222.325470,187.579620L223.085358,188.056732L223.122162,188.080078L223.855362,188.549500L223.896408,188.576050L224.613739,189.045410L224.657181,189.074219L225.369476,189.551086L225.413483,189.580872L226.131516,190.072876L226.173965,190.102295L226.908600,190.617065L226.947815,190.644836L227.709808,191.189941L227.744720,191.215149L228.544983,191.798218L228.574860,191.820190L229.424118,192.448792L229.437637,192.458862L230.790329,193.467285L230.797195,193.472412L232.063904,194.420166L232.080734,194.432800L233.276062,195.335144L233.303848,195.356262L234.442322,196.228394L234.481201,196.258484L235.577286,197.115601L235.626175,197.154358L236.694443,198.011719L236.751358,198.058075L237.806335,198.930908L237.868378,198.983063L238.924561,199.886536L238.988586,199.942291L240.060562,200.891663L240.123489,200.948395L241.225769,201.958862L241.285095,202.014191L242.432159,203.101013L242.486237,203.153076L243.692627,204.331451L243.730286,204.368652L244.935425,205.571350L244.967438,205.603638L246.087158,206.741852L246.127808,206.783691L247.175079,207.873779L247.223877,207.925293L248.211700,208.983582L248.267303,209.044189L249.208679,210.087036L249.268829,210.154907L250.176727,211.198608L250.238647,211.271179L251.126038,212.332092L251.186829,212.406250L252.066772,213.500732L252.123749,213.572968L253.009125,214.717346L253.060333,214.784729L253.964203,215.995300L254.008484,216.055542L254.943817,217.348755L254.980743,217.400513L255.960541,218.792603L255.990997,218.836395L256.721893,219.899078L256.755676,219.948853L257.428772,220.953522L257.468475,221.013702L258.091766,221.974060L258.136383,222.044067L258.717743,222.973755L258.765594,223.051849L259.312988,223.964447L259.362061,224.048096L259.883392,224.957306L259.931366,225.042938L260.434509,225.962402L260.479156,226.045837L260.972137,226.989197L261.011902,227.066986L261.502533,228.047852L261.536469,228.117004L262.032745,229.149078L262.060425,229.207642L262.570251,230.304565L262.591919,230.351868L263.123230,231.527222L263.127472,231.536591L263.621613,232.635925L264.084747,233.662048L264.092560,233.679474L264.531036,234.661011L264.550934,234.706177L264.961731,235.651093L264.993713,235.726349L265.376984,236.649506L265.419342,236.754883L265.775238,237.671143L265.824799,237.804413L266.153442,238.728577L266.206055,238.884705L266.507599,239.831635L266.558868,240.003418L266.833405,240.987976L266.879730,241.166931L267.127411,242.203949L267.166504,242.382172L267.387451,243.486511L267.418457,243.656860L267.612823,244.843353L267.620178,244.889618L267.827515,246.235168L268.029083,247.482361L268.032379,247.502960L268.225708,248.732880L268.238098,248.816650L268.403992,250.004456L268.422913,250.157288L268.547699,251.313446L268.566803,251.538788L268.636902,252.673706L268.646271,252.970062L268.648010,254.094238L268.635529,254.453064L268.555359,255.576965L268.509674,255.981445L268.333893,257.115479L268.248413,257.541962L267.963470,258.696655L267.839020,259.118958L267.431244,260.304749L267.275879,260.700226L266.731689,261.927521L266.566345,262.265076L266.004608,263.309204L265.814056,263.633179L265.213562,264.570435L264.984955,264.897400L264.343964,265.739380L264.083435,266.053741L263.400116,266.812012L263.120209,267.098328L262.392761,267.784424L262.110291,268.031250L261.336945,268.656738L261.069183,268.858643L260.248077,269.435120L260.010345,269.591980L259.139740,270.131012L258.941956,270.247162L258.020020,270.760315L257.867615,270.841675L256.892548,271.340454L256.786438,271.393158L255.756470,271.889191L255.694305,271.918610L254.607605,272.423462L254.457245,272.490265L253.283447,272.988678L253.001556,273.098297L251.878784,273.495728L251.589447,273.588257L250.505646,273.898315L250.224945,273.969757L249.168030,274.205994L248.913696,274.255890L247.871613,274.431946L247.659454,274.463074L246.620117,274.592529L246.462128,274.609619L245.413483,274.706055L245.315796,274.714050L244.245728,274.791016L244.209106,274.793549L243.105591,274.864685L241.977112,274.942200L240.840942,275.037079L239.675751,275.161743L237.617661,275.395752L237.559052,275.402069L235.593338,275.601685L235.534271,275.607300L233.672302,275.773773L233.615265,275.778564L231.830841,275.917267L231.778961,275.921021L230.045898,276.037384L230.001892,276.040131L228.294022,276.139465L228.260574,276.141327L226.551666,276.229065L226.530106,276.230133L224.794006,276.311676L224.784805,276.312103L222.995300,276.392792L221.128860,276.477966L219.166718,276.572571L217.080887,276.682037L214.381622,276.828552L214.373428,276.828979L211.835876,276.962494L211.826309,276.962982L209.425217,277.084625L209.414444,277.085175L207.115631,277.196594L207.103943,277.197174L204.873215,277.299988L204.861191,277.300537L202.664383,277.396423L202.652405,277.396912L200.455414,277.487488L200.444199,277.487915L198.212784,277.574799L198.202652,277.575195L195.902649,277.660004L195.894043,277.660309L193.491318,277.744720L193.484329,277.744965L190.944687,277.830566L190.939362,277.830750L188.228638,277.919189L188.223312,277.919342L185.300705,278.011566L185.293335,278.011780L182.554977,278.094086L182.546448,278.094330L179.955460,278.167694L179.945938,278.167969L177.465469,278.233398L177.455124,278.233643L175.048279,278.292084L175.037750,278.292328L172.667694,278.344849L172.657211,278.345032L170.287048,278.392517L170.277252,278.392700L167.870102,278.436096L167.861374,278.436249L165.380356,278.476624L165.373001,278.476746L162.781250,278.515015L162.775330,278.515106L160.035980,278.552307L160.031570,278.552368L157.107742,278.589478L157.105057,278.589478L154.112152,278.625854L154.109146,278.625854L151.304977,278.658203L151.300171,278.658234L148.647034,278.686249L148.640289,278.686310L146.100418,278.709656L146.091797,278.709717L143.627426,278.728058L143.617233,278.728088L141.190613,278.741150L141.179123,278.741180L138.752502,278.748535L138.740341,278.748566L136.275955,278.750000L136.263611,278.750000L133.723694,278.745117L133.711838,278.745056L131.058655,278.733582L131.047531,278.733521L128.243317,278.715057L128.233414,278.714996L125.240417,278.689270L125.232300,278.689178L120.825912,278.644043L120.817566,278.643982L116.689209,278.594727L116.679398,278.594604L112.773544,278.540222L112.762344,278.540039L109.023384,278.479553L109.011230,278.479309L105.383614,278.411652L105.370895,278.411377L101.799042,278.335541L101.786400,278.335266L98.214752,278.250244L98.202721,278.249969L94.575691,278.154785L94.564751,278.154480L90.826790,278.048126L90.817398,278.047852L86.912910,277.929291L86.905212,277.929077L82.778648,277.797333L82.772682,277.797119L78.368469,277.651154L78.366402,277.651093L75.801834,277.565033L75.800797,277.565002L73.397957,277.483887L73.394104,277.483734L71.120689,277.405212L71.113571,277.404938L68.937347,277.326599L68.926796,277.326233L66.815460,277.245667L66.801895,277.245148L64.723175,277.160156L64.706779,277.159454L62.628395,277.067535L62.610130,277.066681L60.499825,276.965515L60.480537,276.964539L58.305984,276.851776L58.286530,276.850739L56.015495,276.723938L55.996803,276.722870L53.597023,276.579773L53.579575,276.578674L51.018730,276.416870L48.958061,276.293762L47.051243,276.196411L45.232254,276.113495L43.472153,276.036072L43.457924,276.035431L41.742676,275.954987L41.704998,275.953094L40.017429,275.860992L39.956818,275.857300L38.271809,275.744568L38.191021,275.738495L36.483410,275.596039L36.386974,275.587036L34.631638,275.405853L34.525181,275.393677L32.696972,275.164703L32.586014,275.149536L30.659782,274.863708L30.549522,274.846100L28.500141,274.494476L27.385254,274.306946L26.418419,274.167938L25.445541,274.038788L25.440830,274.038177L24.449772,273.905273L24.375652,273.894775L23.416546,273.751312L23.268768,273.726929L22.334274,273.558014L22.114750,273.513153L21.197582,273.303986L20.914421,273.230469L20.007263,272.966125L19.676975,272.857117L18.772491,272.522766L18.417267,272.375488L17.508144,271.956299L17.152382,271.774445L16.231339,271.255554L15.896519,271.048920L14.956202,270.415497L14.723227,270.248505L13.726009,269.488953L13.550692,269.348999L12.638700,268.586426L12.442907,268.413696L11.611746,267.640442L11.401468,267.432709L10.646729,266.641052L10.430391,266.398621L9.747660,265.580872L9.535627,265.308044L8.920513,264.456543L8.723026,264.161346L8.171120,263.268402L7.996834,262.962524L7.503712,262.020416L7.357584,261.716370L6.918856,260.717407L6.802298,260.427399L6.413561,259.363922L6.324570,259.097168L5.981405,257.961456L5.916065,257.723938L5.614071,256.508362L5.551172,256.218079L5.305662,254.893646L5.249477,254.504761L5.119484,253.254852L5.094229,252.853821L5.067852,251.663696L5.074663,251.273254L5.140013,250.128326L5.173330,249.772217L5.318497,248.657745L5.367422,248.355652L5.580505,247.257080L5.632189,247.021545L5.901289,245.924133L5.944462,245.760223L6.257677,244.649353L6.284874,244.556396L6.630306,243.417389L6.638483,243.390656L7.004213,242.208862L7.368391,241.002228L7.714413,239.774994L8.031139,238.635712L8.054640,238.553894L8.375637,237.472137L8.404333,237.378845L8.728453,236.360840L8.762371,236.258179L9.094139,235.290039L9.132767,235.181519L9.476717,234.249451L9.518751,234.139526L9.879391,233.229614L9.922916,233.123444L10.304754,232.221863L10.347504,232.123932L10.755093,231.216797L10.794640,231.130981L11.232468,230.204407L11.266994,230.132843L11.739605,229.173004L11.767790,229.116699L12.279692,228.109711L12.301085,228.068115L12.856794,227.000183L12.879200,226.957611L13.475004,225.839355L13.507652,225.779114L14.080757,224.738556L14.119774,224.669006L14.678148,223.692902L14.723297,223.615601L15.274948,222.690552L15.325266,222.608032L15.878189,221.720886L15.931814,221.636749L16.493980,220.774109L16.548666,220.691986L17.128086,219.840576L17.181103,219.764221L17.785763,218.910767L17.834644,218.843018L18.472534,217.974213L18.515160,217.917053L19.194263,217.019592L19.229500,216.973572L19.957825,216.034241L19.985104,215.999390L20.770630,215.004822L20.800076,214.967957L21.940014,213.552704L21.981758,213.501556L23.067814,212.189575L23.115929,212.132355L24.162510,210.906342L24.215862,210.844849L25.237328,209.687500L25.294510,209.623840L26.305248,208.517914L26.363716,208.455017L27.378109,207.383179L27.435246,207.323792L28.467644,206.268799L28.520607,206.215454L29.585430,205.159973L29.631832,205.114594L30.743420,204.041351L30.781631,204.004822L31.954395,202.896545L31.983624,202.869141L33.231915,201.708527L33.252346,201.689636L34.590576,200.459412L34.613255,200.438690L35.669010,199.480194L35.704216,199.448547L36.702236,198.559784L36.743591,198.523376L37.697433,197.692871L37.744343,197.652527L38.667549,196.868835L38.718643,196.826050L39.624741,196.077728L39.678059,196.034302L40.580585,195.309814L40.633804,195.267700L41.546291,194.555664L41.596916,194.516663L42.532928,193.805573L42.578636,193.771271L43.551682,193.049683L43.590969,193.020813L44.614624,192.277252L44.646400,192.254364L45.734161,191.477356L45.758499,191.460052L46.923939,190.638153L46.951225,190.619019L48.175137,189.768219L48.214390,189.741211L49.368874,188.955078L49.412880,188.925446L50.513252,188.193359L50.560799,188.162109L51.622345,187.473358L51.671829,187.441650L52.709877,186.785614L52.759117,186.754883L53.788963,186.120850L53.835594,186.092468L54.872543,185.469788L54.914368,185.444977L55.973717,184.822937L56.008957,184.802429L57.106033,184.170380L57.133728,184.154541L58.283829,183.501831L58.303665,183.490601L59.522102,182.806519L59.534523,182.799561L60.836601,182.073456L60.855736,182.062836L61.852646,181.512695L61.885757,181.494568L62.823708,180.986267L62.859718,180.966949L63.751137,180.493378L63.788902,180.473511L64.646202,180.027527L64.684273,180.007935L65.519890,179.582397L65.556488,179.563965L66.382843,179.151764L66.416130,179.135315L67.245667,178.729309L67.274017,178.715515L68.119118,178.308533L68.141556,178.297791L69.014679,177.882751L69.030617,177.875214L69.944160,177.444946L69.953804,177.440430L70.920204,176.987793L70.924049,176.986023L71.955742,176.503906L71.957245,176.503174L73.620522,175.726624L73.626297,175.723938L75.185844,174.998230L75.196930,174.993103L76.674355,174.310059L76.691277,174.302246L78.108139,173.653717L78.130951,173.643372L79.508835,173.021088L79.536995,173.008484L80.897514,172.404297L80.930054,172.389954L82.294785,171.795593L82.330254,171.780334L83.720779,171.187653L83.757446,171.172211L85.195358,170.572998L85.231590,170.558044L86.738472,169.944092L86.772850,169.930237L88.370277,169.293335L88.401794,169.280945L90.111366,168.612885L90.141251,168.601318L91.720459,167.996033L91.753906,167.983337L93.237579,167.426941L93.273674,167.413574L94.681534,166.898132L94.719200,166.884521L96.070984,166.401978L96.108711,166.388672L97.424171,165.931122L97.460052,165.918823L98.758911,165.478180L98.791321,165.467285L100.093323,165.035645L100.120644,165.026672L101.445526,164.596008L101.466782,164.589142L102.834274,164.151459L102.849045,164.146729L104.278885,163.694031L104.287338,163.691345L105.799263,163.215668L105.802055,163.214783L107.415802,162.708069L107.431564,162.703156L108.048210,162.511810L108.079552,162.502197L108.670464,162.323120L108.699783,162.314331L109.268631,162.145813L109.295029,162.138062L109.845490,161.978302L109.867950,161.971863L110.403702,161.819092L110.421463,161.814087L110.946182,161.666626L110.958527,161.663147L111.475899,161.519196L111.482147,161.517456L111.995834,161.375244L112.509521,161.233032L113.020630,161.090820L113.533005,160.946777L114.050995,160.799072L111.834366,169.029297L111.302284,168.638733L110.757988,168.246796L110.197365,167.846985L109.617363,167.433289L109.597870,167.419342L109.015701,166.999817L108.977844,166.972290L108.391411,166.541168L108.337090,166.500671L107.744247,166.052185L107.676025,165.999634L107.074654,165.527954L106.995682,165.464722L106.383652,164.964081L106.297173,164.891663L105.672340,164.356293L105.581558,164.276550L104.941780,163.700562L104.875198,163.639526L103.926147,162.753113L103.879318,162.708801L103.000671,161.866425L102.947777,161.814941L102.128174,161.005249L102.070641,160.947479L101.298683,160.159271L101.238571,160.096802L100.502884,159.318695L100.442848,159.254059L99.732048,158.474823L99.674774,158.410950L98.977493,157.619324L98.925453,157.559265L98.230293,156.743958L98.185272,156.690369L97.480858,155.840057L97.443932,155.794952L96.718872,154.898346L96.690277,154.862671L95.933197,153.908508L95.912552,153.882294L95.112076,152.859314L95.109779,152.856384L94.368279,151.907318L93.674431,151.021362L93.664780,151.008972L93.006577,150.163025L92.981987,150.131134L92.358032,149.315552L92.318062,149.262573L91.723434,148.463226L91.669220,148.388916L91.098969,147.591766L91.033279,147.497620L90.482475,146.688507L90.409355,146.577942L89.873062,145.742737L89.797142,145.620605L89.270432,144.745239L89.196075,144.617340L88.674004,143.687683L88.604607,143.559692L88.082237,142.561615L88.019966,142.438477L87.492378,141.357880L87.444839,141.257660L86.867729,140.004944L86.825142,139.909882L86.308708,138.723572L86.262390,138.613586L85.800583,137.478516L85.752449,137.355499L85.339218,136.256409L85.291626,136.124084L84.920906,135.045776L84.876236,134.909424L84.542007,133.836670L84.502243,133.702332L84.198441,132.619965L84.164856,132.493958L83.885445,131.386749L83.858459,131.274292L83.597366,130.127075L83.576698,130.031891L83.327896,128.829376L83.312782,128.753296L83.070206,127.480286L83.059692,127.423279L83.445145,125.952637L83.431068,125.869019L83.205696,124.443542L83.186897,124.311310L83.017517,122.971039L83.003006,122.840149L82.881683,121.567657L82.871742,121.444641L82.790573,120.222595L82.784752,120.114502L82.735825,118.925476L82.733124,118.838928L82.708519,117.665527L82.707680,117.605438L82.699463,116.430298L82.699356,116.399292L82.699638,115.205017L82.699638,115.203064L82.700485,113.972290L82.694046,112.712280L82.672791,111.403503L82.629387,110.023499L82.600876,109.280762L82.600464,109.269684L82.574074,108.529968L82.573723,108.519592L82.550087,107.808777L82.549797,107.799500L82.528450,107.112793L82.528214,107.104858L82.508698,106.437378L82.508522,106.431152L82.490379,105.778076L82.490265,105.773773L82.473038,105.130371L82.472984,105.128174L82.456215,104.489563L82.439445,103.850952L82.422279,103.209747L82.404266,102.561035L82.384926,101.899780L83.199463,104.323608L83.120659,104.231689L82.875633,103.937622L82.822983,103.873199L82.586555,103.578003L82.560265,103.544861L82.328125,103.249115L82.095985,102.953369L81.885857,102.691345L81.693481,102.461731L81.514336,102.261230L81.343513,102.085114L81.175201,101.927490L81.002403,101.781738L80.817101,101.641602L80.347923,101.274475L80.257553,101.201752L79.787933,100.813232L79.754715,100.785492L79.302101,100.403320L78.887207,100.059052L78.543671,99.792236L78.275940,99.610260L78.091507,99.513611L77.996521,99.491821L77.986885,99.521698L78.037415,99.572327L78.097641,99.619720L78.104073,99.662415L78.161621,99.682373L78.236374,99.688171L78.347557,99.668823L78.461357,99.631348L78.549522,99.594147L78.595497,99.580505L78.594826,99.611450L78.551308,99.701447L78.472313,99.857483L78.365311,100.080658L78.235970,100.368469L78.087769,100.716370L77.931007,101.120667L77.830421,101.432465L77.756630,101.711914L77.702217,101.973022L77.661110,102.231537L77.629051,102.504242L77.603630,102.806702L77.583611,103.151672L77.567993,103.548767L77.555321,104.003998L77.543198,104.520782L77.542984,104.529419L77.528381,105.100586L77.528328,105.102600L77.506889,105.925659L77.493835,106.664337L77.490829,107.342590L77.499657,107.968506L77.521767,108.551880L77.558426,109.104431L77.611069,109.639954L77.681671,110.173767L77.773003,110.722046L77.888634,111.300415L78.032661,111.923340L78.209435,112.603699L78.331436,113.039062L78.454453,113.450806L78.572418,113.813812L78.687004,114.133667L78.800247,114.418091L78.915039,114.676666L79.035492,114.920898L79.167038,115.162872L79.316177,115.414459L79.489876,115.686127L79.694908,115.986511L79.937286,116.322388L80.228027,116.708313L80.504089,117.057251L80.758240,117.359131L80.994522,117.620117L81.218369,117.848083L81.436913,118.052124L81.659325,118.242371L81.896049,118.428467L82.158234,118.618866L82.456482,118.820465L82.800163,119.038269L83.196892,119.275848L83.634430,119.513733L83.983788,119.675110L84.315117,119.806885L84.646614,119.920837L84.997459,120.026672L85.385201,120.131836L85.824089,120.242432L86.323631,120.364319L86.333908,120.366821L86.888763,120.503845L86.944016,120.517883L87.520294,120.668335L87.612953,120.693665L88.216141,120.865601L88.337029,120.902008L88.972633,121.103577L88.972633,121.103577L89.746490,121.435638L90.440704,121.912262L91.028610,122.515137L91.487579,123.221161L91.800003,124.003174L91.953873,124.831055L91.943253,125.673096L91.768570,126.496857L91.436546,127.270691L90.959923,127.964935L90.357018,128.552826L89.651009,129.011780L88.869019,129.324219L88.041122,129.478088L87.199097,129.467468L86.375328,129.292786L85.746078,129.093231z" />
				<polyline stroke="#000000" stroke-opacity="1" fill="none" stroke-linecap="round" stroke-width="9.86669922" points="105.767990,168.397278 105.767990,168.397278" />
				<path fill-opacity="1" fill="#000000" stroke="none" d="M166.296890,47.999969L166.327164,47.926666L166.518860,47.475708L166.540573,47.425568L166.736084,46.983307L166.747437,46.957886L166.944824,46.519989L167.142242,46.082062L167.326370,45.665253L167.496353,45.264404L167.652084,44.873627L167.794189,44.486206L167.923569,44.094849L168.041092,43.691620L168.147369,43.268311L168.331970,42.429749L168.483276,41.633881L168.602310,40.885406L168.694885,40.167938L168.766312,39.464325L168.821365,38.757233L168.864319,38.030273L168.899200,37.268524L168.930145,36.459137L168.961487,35.591248L168.961914,35.580353L168.997971,34.655487L168.999130,34.628448L169.044525,33.643585L169.074341,32.969604L169.093048,32.366638L169.104248,31.785645L169.109146,31.221130L169.109009,30.667450L169.105011,30.119110L169.098389,29.570801L169.090317,29.017487L169.082123,28.454529L169.081985,28.444916L169.075165,27.877716L169.074982,27.858887L169.070908,27.283295L169.070801,27.255981L169.070847,26.667725L169.164703,25.825989L169.441620,25.025574L169.888016,24.305786L170.481949,23.701935L171.194260,23.243713L171.989990,22.953583L172.830078,22.845856L173.673294,22.925690L174.550232,23.108459L175.401230,23.285034L175.426422,23.290375L176.261612,23.469574L176.316254,23.481689L177.136322,23.670258L177.220551,23.690613L178.029434,23.895996L178.141541,23.926331L178.943054,24.155975L179.079880,24.197937L179.877930,24.459320L180.034714,24.514465L180.833160,24.814972L181.003891,24.883972L181.806595,25.231079L181.984467,25.313446L182.795288,25.714600L182.973602,25.808777L183.796463,26.271393L183.969360,26.374695L184.808090,26.906281L184.945343,26.997467L186.105881,27.805115L186.225082,27.891541L187.285751,28.692017L187.415237,28.794189L188.387939,29.596466L188.523300,29.713531L189.419983,30.526550L189.555450,30.655548L190.388107,31.488281L190.517639,31.624298L191.298187,32.485657L191.416275,32.622345L192.156647,33.521271L192.259338,33.651672L192.971497,34.597168L193.056824,34.715057L193.752701,35.716064L193.820419,35.816895L194.511963,36.882355L194.563248,36.963623L195.262405,38.102539L195.299133,38.163635L196.017838,39.384949L196.061401,39.460938L196.743774,40.683777L196.805527,40.799011L197.405884,41.967041L197.468704,42.095093L197.995773,43.222076L198.056793,43.359528L198.519333,44.459259L198.575562,44.600800L198.982330,45.687134L199.031403,45.826263L199.391144,46.912994L199.431564,47.042755L199.753052,48.143646L199.784515,48.258026L200.076477,49.386871L200.099655,49.481323L200.370880,50.652008L200.386841,50.724121L200.646088,51.950409L200.656235,52.000122L200.912231,53.295776L200.917770,53.324463L201.179276,54.703308L201.187668,54.749084L201.421906,56.071869L201.435730,56.155457L201.627792,57.400085L201.640915,57.492737L201.793854,58.675262L201.805389,58.774628L201.922180,59.910950L201.931320,60.013306L202.015060,61.119476L202.021332,61.220367L202.075012,62.312347L202.078491,62.406891L202.105148,63.500732L202.106247,63.584656L202.108917,64.696350L202.108444,64.766571L202.090149,65.912109L202.088882,65.966858L202.052658,67.162262L202.051254,67.201324L202.000137,68.462585L201.999069,68.486816L201.936081,69.829987L201.934006,69.869751L201.866806,71.041687L201.862213,71.110748L201.779388,72.207397L201.773132,72.280792L201.674774,73.316895L201.666870,73.392090L201.553055,74.382324L201.543869,74.456024L201.414719,75.415009L201.404800,75.483765L201.260391,76.426178L201.250656,76.486603L201.091095,77.427094L201.082367,77.476471L200.907730,78.429749L200.900818,78.466553L200.711212,79.447266L200.706512,79.471039L200.502045,80.493896L200.499741,80.505371L200.280457,81.584991L200.280334,81.585571L200.046356,82.736664L200.043289,82.751617L199.775833,84.041046L199.767761,84.078949L199.504944,85.284393L199.495972,85.324463L199.235046,86.462250L199.225494,86.502960L198.963776,87.589508L198.954025,87.629120L198.688828,88.680786L198.679413,88.717346L198.408005,89.750458L198.399536,89.782196L198.119202,90.813110L198.112183,90.838562L197.820251,91.883667L197.815079,91.902008L197.508820,92.977661L197.505615,92.988800L197.182327,94.111359L197.181061,94.115692L196.838013,95.301514L196.472977,96.565369L196.469604,96.576965L196.332809,97.045044L196.324692,97.072388L196.190506,97.519043L196.182755,97.544556L196.050842,97.972839L196.043747,97.995667L195.913727,98.408569L195.907547,98.427979L195.779037,98.828674L195.774078,98.843964L195.646713,99.235474L195.643265,99.246033L195.516617,99.631378L195.514832,99.636780L195.388580,100.019073L195.262329,100.401367L195.137466,100.781342L195.013550,101.162231L194.098526,101.293823L193.844238,101.869690L193.475082,102.379608L193.007370,102.800995L192.461807,103.115143L191.862625,103.308167L191.236282,103.371552L190.610550,103.302429L190.013138,103.103882L189.470520,102.784729L189.006683,102.359070L188.642212,101.845764L188.393234,101.267578L188.270767,100.650055L187.386734,100.103851L187.385193,100.086365L187.332932,99.478333L187.331909,99.466217L187.282288,98.866974L187.281799,98.860779L187.233521,98.265869L187.185257,97.671021L187.136169,97.078003L187.084915,96.482086L187.030167,95.878418L186.970627,95.261841L186.904907,94.627197L186.831650,93.969116L186.749542,93.282379L186.749008,93.277924L186.599197,92.010681L186.595383,91.977112L186.465347,90.786896L186.463272,90.767456L186.345871,89.639496L186.345657,89.637512L186.233765,88.557037L186.122162,87.527313L186.004303,86.536438L185.873642,85.568939L185.723541,84.607239L185.547226,83.632355L185.337494,82.624390L185.086655,81.563354L184.786713,80.429962L184.468506,79.317291L184.150330,78.271179L183.833755,77.299225L183.514084,76.385590L183.186127,75.513397L182.844116,74.665009L182.481873,73.822449L182.092834,72.967896L181.670532,72.084381L181.208710,71.155853L180.701675,70.167450L180.144333,69.105316L179.457031,67.811676L178.806168,66.603271L178.186249,65.479034L177.586044,64.426514L176.993973,63.432159L176.397781,62.480957L175.784378,61.556458L175.139862,60.641449L174.449539,59.718292L173.698349,58.769775L172.871368,57.779755L171.954117,56.733002L171.595901,56.351044L171.265228,56.027008L170.933334,55.724487L170.595596,55.435791L170.247086,55.153564L169.883392,54.871277L169.500519,54.582642L169.095734,54.281921L168.667328,53.963470L168.643707,53.945801L168.214966,53.621918L168.169022,53.586700L167.739624,53.252014L167.674011,53.199707L167.243607,52.848816L170.970230,53.515930L170.570389,53.735748L170.161865,53.966217L169.738922,54.207825L169.296387,54.460602L169.276764,54.471741L168.829651,54.723633L168.791000,54.745087L168.334702,54.995270L168.278229,55.025604L167.808151,55.273163L167.735779,55.310303L167.247375,55.554382L167.161179,55.596100L166.649841,55.835815L166.552567,55.879791L166.013718,56.114288L165.908203,56.158356L165.337234,56.386749L165.247070,56.421509L164.004639,56.882446L163.928070,56.909943L162.755219,57.316895L162.674133,57.344025L161.555908,57.704224L161.473236,57.729828L160.394684,58.050476L160.314133,58.073456L159.260315,58.361786L159.186081,58.381287L158.141983,58.644562L158.077896,58.660156L157.028595,58.905518L156.977722,58.917053L155.908264,59.151825L155.872269,59.159546L154.767685,59.390930L154.746964,59.395172L153.592270,59.630371L153.585800,59.631683L152.366074,59.877960L151.072220,60.141296L149.846390,60.390869L149.829681,60.394226L148.679321,60.623138L148.655487,60.627777L147.565384,60.837494L147.534164,60.843353L146.488800,61.035492L146.450623,61.042328L145.434464,61.218414L145.390320,61.225800L144.387833,61.387451L144.339539,61.394928L143.335205,61.543762L143.285004,61.550873L142.263306,61.688446L142.213425,61.694824L141.158829,61.822693L141.111389,61.828156L140.008377,61.947968L139.965012,61.952423L138.798080,62.065674L138.759750,62.069214L137.513351,62.177582L137.426849,62.184113L135.711914,62.294037L135.578491,62.300262L133.968277,62.347107L133.851898,62.348694L132.325638,62.346619L132.234756,62.345398L130.771652,62.308594L130.713684,62.306702L129.293015,62.249390L129.273376,62.248535L127.874329,62.184875L126.497528,62.130066L125.141006,62.098297L123.779755,62.101990L122.386093,62.152710L120.930359,62.262512L119.382568,62.444214L118.240326,62.604919L117.117538,62.772369L116.074097,62.942749L115.097000,63.120880L114.172043,63.311707L113.283127,63.520386L112.412598,63.752502L111.541824,64.014221L110.651779,64.312531L109.723930,64.654938L108.740898,65.049072L107.686760,65.502472L106.588531,65.993744L105.548721,66.472748L104.592224,66.933929L103.709999,67.385925L102.891144,67.837738L102.122696,68.299103L101.389694,68.781006L100.675865,69.295959L99.964653,69.857910L99.240387,70.481628L98.489082,71.182129L97.698578,71.973785L96.861221,72.860352L96.099686,73.713562L95.421577,74.527863L94.817032,75.315063L94.274864,76.088562L93.783035,76.863831L93.329483,77.658234L92.902870,78.490234L92.493362,79.378479L92.092705,80.340576L91.694016,81.392426L91.291267,82.548126L90.930267,83.711182L90.659050,84.760925L90.453590,85.750977L90.302513,86.703583L90.195717,87.642395L90.124649,88.591217L90.081970,89.572388L90.060928,90.605713L90.054527,91.707764L90.055084,92.892365L90.055084,92.897125L90.054016,94.170990L90.053871,94.201355L90.041985,95.553772L90.040726,96.126587L90.052216,96.605865L90.073578,97.068604L90.103424,97.521301L90.140549,97.970367L90.183792,98.421967L90.231972,98.881927L90.283707,99.355408L90.337372,99.846924L90.339294,99.864990L90.390999,100.360291L90.394516,100.395660L90.442299,100.898560L90.446815,100.949799L89.996155,101.504150L89.976608,102.223999L89.802689,102.922852L89.482521,103.567932L89.031090,104.129028L88.469543,104.579865L87.824165,104.899414L87.125168,105.072632L86.405266,105.091492L85.698174,104.955017L85.036964,104.669678L84.452629,104.248779L83.972488,103.712036L83.619026,103.084595L82.738312,102.283325L82.325790,101.343506L81.909615,100.410736L81.489044,99.475800L81.063591,98.529968L81.058701,98.519073L80.633072,97.564911L80.623627,97.543549L80.197655,96.572723L80.184219,96.541687L79.757744,95.545898L79.741089,95.506409L79.313957,94.477234L79.294952,94.430603L78.866966,93.359802L78.846519,93.307556L78.417526,92.186768L78.396477,92.130432L77.966293,90.951324L77.960335,90.934814L77.567535,89.842712L77.200027,88.835632L76.846214,87.867035L76.840164,87.850342L76.505066,86.919617L76.492126,86.883118L76.176201,85.976929L76.156906,85.920135L75.860130,85.023834L75.835892,84.947998L75.558228,84.046967L75.531174,83.955139L75.272598,83.034698L75.245102,82.931305L75.005577,81.976868L74.979744,81.867096L74.759247,80.864014L74.736572,80.753082L74.535065,79.686707L74.516319,79.579132L74.333786,78.434784L74.321533,78.352264L74.139030,77.022217L74.129852,76.950256L73.982353,75.699341L73.973358,75.614990L73.859962,74.427368L73.852066,74.332062L73.771927,73.191772L73.766068,73.088348L73.718277,71.979492L73.715149,71.871887L73.698845,70.778564L73.698761,70.671600L73.713051,69.577881L73.715729,69.476349L73.759766,68.366394L73.764526,68.274475L73.837418,67.132324L73.843307,67.053009L73.944176,65.862762L73.950272,65.797577L74.078224,64.543365L74.083763,64.492493L74.237961,63.158356L74.243851,63.110107L74.407623,61.835419L74.416328,61.771851L74.589989,60.578949L74.601601,60.504364L74.788345,59.378113L74.803299,59.293793L75.006317,58.219116L75.024750,58.127625L75.247246,57.089478L75.268875,56.994507L75.514046,55.977753L75.538055,55.883453L75.809090,54.873077L75.834236,54.783691L76.134323,53.764587L76.159111,53.683746L76.491447,52.640839L76.514435,52.571014L76.882225,51.489258L76.902283,51.431732L77.308716,50.296021L77.325165,50.250946L77.773438,49.046173L77.791084,48.999664L78.225044,47.878174L78.249855,47.815735L78.675102,46.771698L78.704361,46.701843L79.126434,45.721619L79.159859,45.646240L79.584297,44.716309L79.621048,44.638123L80.053398,43.744873L80.092041,43.667267L80.537842,42.797089L80.576500,42.723633L81.041298,41.862946L81.077881,41.796783L81.567215,40.932037L81.599846,40.875488L82.119278,39.993073L82.146515,39.947540L82.701576,39.033844L82.722694,38.999481L83.318924,38.040955L83.333763,38.017303L83.976723,37.000336L83.989151,36.980774L84.653091,35.944580L84.671280,35.916443L85.302521,34.950012L85.327103,34.912872L85.935440,34.004761L85.966751,33.958740L86.561974,33.097595L86.599831,33.043823L87.191734,32.218201L87.235352,32.158630L87.833740,31.357147L87.881592,31.294403L88.496239,30.505646L88.546364,30.442749L89.187073,29.655273L89.237160,29.595001L89.913712,28.797485L89.961540,28.742188L90.683739,27.923126L90.727562,27.874298L91.505188,27.022308L91.543839,26.980621L92.386681,26.084320L92.419411,26.049957L93.240570,25.198212L93.276924,25.161011L94.057747,24.372803L94.101677,24.329193L94.852951,23.595032L94.904137,23.545898L95.636620,22.856201L95.693871,22.803406L96.418327,22.148560L96.479721,22.094238L97.206909,21.464783L97.269890,21.411407L98.010567,20.797699L98.072189,20.747711L98.837135,20.140228L98.894531,20.095520L99.694511,19.484711L99.745544,19.446411L100.591301,18.822662L100.634468,18.791260L101.536781,18.145111L101.571495,18.120544L102.541115,17.442352L102.573303,17.420044L103.602112,16.716034L103.643478,16.688110L104.616646,16.040649L104.666046,16.008331L105.596687,15.409668L105.653542,15.373810L106.554779,14.816223L106.617607,14.778229L107.502579,14.253937L107.569176,14.215393L108.451012,13.716675L108.518456,13.679413L109.410255,13.198547L109.475395,13.164215L110.390305,12.693390L110.450340,12.663147L111.401482,12.194641L111.454109,12.169220L112.454613,11.695251L112.498581,11.674805L113.561569,11.187622L113.596344,11.171906L114.734940,10.663818L114.760696,10.652405L115.490417,10.333221L115.520248,10.320312L116.207306,10.026703L116.247971,10.009613L116.901749,9.739075L116.953522,9.718109L117.583405,9.468201L117.645554,9.444153L118.260941,9.212341L118.331833,9.186432L118.942093,8.970184L119.018936,8.943878L119.633469,8.740723L119.712982,8.715424L120.341171,8.522827L120.419525,8.499725L121.070740,8.315216L121.144821,8.295044L121.828476,8.116119L121.895782,8.099121L122.621246,7.923279L122.680222,7.909454L123.456894,7.734161L123.510956,7.722351L124.708023,7.470337L124.770401,7.457733L125.896332,7.240173L125.966980,7.227203L127.036469,7.041321L127.113724,7.028748L128.141525,6.871704L128.222717,6.860199L129.223511,6.729218L129.305298,6.719391L130.293777,6.611603L130.372299,6.603912L131.363190,6.516541L131.434906,6.510864L132.442902,6.441071L132.504883,6.437286L133.544724,6.382263L133.595276,6.379913L134.681656,6.336823L134.720016,6.335480L135.867630,6.301544L135.894363,6.300812L137.117920,6.273163L138.386459,6.244598L139.571106,6.215637L139.583420,6.215363L140.713867,6.191376L140.748718,6.190796L141.832260,6.177704L141.891174,6.177429L142.942383,6.180939L143.025085,6.182098L144.058624,6.207886L144.162689,6.211914L145.193146,6.265747L145.313934,6.273956L146.355957,6.361572L146.487274,6.374908L147.555435,6.501923L147.690704,6.520508L148.799622,6.692780L148.932510,6.715851L150.096832,6.939056L150.222336,6.965302L151.456665,7.245148L151.538147,7.264557L152.884552,7.601013L152.943741,7.616302L154.205872,7.953217L154.285477,7.975403L155.476379,8.321045L155.576385,8.351562L156.709061,8.714172L156.827591,8.754272L157.915024,9.142090L158.048203,9.192383L159.103424,9.613617L159.245636,9.673767L160.281662,10.136658L160.426208,10.204895L161.456024,10.717712L161.596268,10.791229L162.632904,11.362152L162.763367,11.437408L163.819824,12.074738L163.936584,12.148071L165.025818,12.860077L165.127045,12.928558L166.262131,13.723389L166.397629,13.822784L167.392685,14.586884L167.565292,14.727600L168.470184,15.510315L168.623932,15.650787L169.451538,16.449493L169.582413,16.582062L170.345642,17.394073L170.451172,17.511108L171.162888,18.333771L171.241959,18.428162L171.915024,19.258789L171.967484,19.325043L172.614807,20.160980L172.640915,20.195099L173.275360,21.033691L173.909805,21.872345L174.531036,22.674194L175.151688,23.438660L175.784317,24.166870L175.784317,24.166870L176.216690,24.778900L176.521362,25.463531L176.686615,26.194458L176.706085,26.943542L176.579056,27.682068L176.310379,28.381622L175.910385,29.015289L175.394455,29.558746L174.782425,29.991150L174.097809,30.295807L173.366882,30.461090L172.617767,30.480560L171.879257,30.353485L171.179718,30.084839L170.546036,29.684845L170.002563,29.168915L169.290848,28.346283L169.211761,28.251801L168.538681,27.421173L168.486237,27.354980L167.838928,26.519012L167.812820,26.484894L167.178375,25.646271L166.543930,24.807648L165.922699,24.005829L165.302078,23.241394L164.669418,22.513123L164.011719,21.818146L163.314957,21.152069L162.563797,20.509827L161.741364,19.886475L160.741791,19.191010L159.753754,18.547577L158.814087,17.983551L157.907898,17.487823L157.018326,17.048523L156.126862,16.653900L155.213821,16.292786L154.259552,15.955231L153.245377,15.632751L152.154480,15.317627L150.971924,15.002869L149.684708,14.681702L148.531876,14.421265L147.493073,14.224304L146.517044,14.075073L145.584183,13.966553L144.673477,13.892303L143.763855,13.846710L142.834351,13.824921L141.865814,13.822601L140.841187,13.835449L139.745575,13.858856L138.565872,13.887695L138.558502,13.887848L137.290344,13.916382L136.067154,13.944092L134.946274,13.977356L133.898285,14.019104L132.909012,14.071838L131.962997,14.137848L131.043823,14.219543L130.133881,14.319550L129.214905,14.440765L128.268326,14.586243L127.276077,14.759491L126.220779,14.964111L125.086075,15.203552L124.363480,15.367065L123.696991,15.529144L123.080627,15.691101L122.503494,15.855408L121.953659,16.024872L121.418655,16.202698L120.885223,16.392639L120.340729,16.598511L119.772995,16.824432L119.170990,17.073975L118.524597,17.350464L117.824707,17.656799L116.711868,18.153503L115.683640,18.624939L114.727112,19.078369L113.828583,19.521484L112.973694,19.962097L112.147034,20.408661L111.332657,20.870087L110.514282,21.355804L109.675873,21.875366L108.802078,22.438110L107.878319,23.053284L106.890869,23.729401L105.953415,24.385315L105.085815,25.006958L104.283226,25.599304L103.534286,26.171875L102.826736,26.734650L102.147667,27.298370L101.483467,27.874512L100.820404,28.475037L100.145164,29.111969L99.445076,29.797028L98.708160,30.541595L97.923355,31.356140L97.113228,32.218079L96.374252,33.028320L95.695892,33.798462L95.067162,34.540710L94.476540,35.267853L93.912003,35.993713L93.361465,36.732452L92.813171,37.498444L92.255798,38.305817L91.678749,39.167877L91.072098,40.097168L90.426353,41.105286L89.795837,42.102692L89.214462,43.037567L88.680519,43.916901L88.188347,44.753784L87.731628,45.561981L87.303413,46.356445L86.896278,47.153168L86.502579,47.968842L86.114899,48.820587L85.726242,49.725433L85.330261,50.699646L84.921089,51.758698L84.490448,52.916992L84.100464,54.007660L83.752731,55.031952L83.443390,56.005035L83.168083,56.943237L82.922211,57.864227L82.701065,58.786591L82.500206,59.729767L82.315613,60.712982L82.143814,61.754913L81.981781,62.873230L81.826721,64.084351L81.678413,65.370239L81.555977,66.573578L81.461205,67.698608L81.394203,68.761414L81.354927,69.779449L81.343292,70.771576L81.359497,71.757904L81.404167,72.759186L81.478455,73.796051L81.583954,74.888367L81.722450,76.054932L81.895760,77.312988L82.066063,78.374756L82.248825,79.333527L82.446655,80.225677L82.660347,81.070343L82.891441,81.887329L83.142044,82.696533L83.414589,83.516968L83.711205,84.366333L84.033340,85.260529L84.381584,86.213715L84.382065,86.215057L84.755592,87.238739L84.761612,87.255341L85.154396,88.347504L85.578621,89.510132L85.986565,90.574615L86.394096,91.593140L86.802254,92.575653L87.212059,93.531952L87.624573,94.471771L88.040749,95.404572L88.461327,96.339478L88.886787,97.285339L88.891663,97.296234L89.317291,98.250366L89.326752,98.271759L89.752701,99.242584L89.766144,99.273590L89.738358,100.463928L82.826828,101.570251L82.783585,101.118622L82.735413,100.658661L82.683678,100.185181L82.630005,99.693665L82.628082,99.675598L82.576378,99.180298L82.572861,99.144928L82.525093,98.642029L82.520569,98.590759L82.478699,98.076538L82.473953,98.011353L82.439957,97.481995L82.435791,97.405273L82.411621,96.856995L82.408813,96.771484L82.396446,96.200470L82.395554,96.108765L82.396942,95.511261L82.397079,95.486572L82.408974,94.134186L82.409889,92.890686L82.409409,91.685577L82.409485,91.660339L82.416672,90.500061L82.417480,90.441803L82.441612,89.316559L82.444679,89.224609L82.495003,88.119904L82.502625,87.996399L82.588356,86.897766L82.603027,86.747986L82.733429,85.640930L82.757042,85.472687L82.941368,84.342743L82.974625,84.165344L83.222122,82.997986L83.264153,82.820648L83.584068,81.601379L83.632759,81.431854L84.034332,80.146210L84.074890,80.023621L84.513901,78.768707L84.550171,78.669464L84.995911,77.500031L85.042961,77.382477L85.502731,76.286743L85.561836,76.153107L86.042923,75.119202L86.114510,74.973541L86.624199,73.989655L86.707298,73.837799L87.252884,72.892090L87.344933,72.740753L87.933716,71.821381L88.030685,71.677277L88.669952,70.772400L88.767052,70.640991L89.464096,69.738770L89.556580,69.623718L90.318695,68.712280L90.402695,68.615204L91.237160,67.682739L91.310081,67.603546L92.224182,66.638245L92.300941,66.559479L93.191833,65.671356L93.292221,65.574829L94.158028,64.772400L94.272530,64.670502L95.123024,63.943390L95.249245,63.840057L96.094154,63.178040L96.227844,63.077942L97.076912,62.470551L97.212158,62.378113L98.075150,61.815063L98.205132,61.733917L99.091789,61.204803L99.209999,61.137146L100.130081,60.631653L100.231308,60.578003L101.194550,60.085815L101.275558,60.045624L102.291725,59.556335L102.351372,59.528259L103.430199,59.031525L103.469215,59.013824L104.620461,58.499359L104.673470,58.476135L105.816780,57.985840L105.905960,57.948914L106.989471,57.516296L107.089966,57.477814L108.127289,57.097107L108.236771,57.058807L109.241486,56.724304L109.356155,56.688141L110.341866,56.394043L110.456810,56.361664L111.437126,56.102264L111.546921,56.074951L112.535423,55.844452L112.635010,55.822632L113.645294,55.615265L113.730621,55.598755L114.776291,55.408813L114.844879,55.397003L115.939529,55.218689L115.990753,55.210693L117.147995,55.038269L117.182465,55.033264L118.415894,54.860962L118.507080,54.849304L120.212524,54.652710L120.370193,54.637848L121.972641,54.520142L122.119370,54.512177L123.639618,54.459137L123.766190,54.456818L125.224976,54.454224L125.322510,54.455292L126.740616,54.488922L126.802185,54.490906L128.200378,54.546692L128.221756,54.547577L129.620819,54.611237L131.021881,54.667725L132.427017,54.702606L133.862396,54.703491L135.356247,54.658295L136.937759,54.554565L138.097672,54.452728L139.226288,54.342987L140.285904,54.227631L141.293015,54.105255L142.264801,53.974060L143.218903,53.832336L144.173096,53.678131L145.145096,53.509399L146.152283,53.324097L147.211197,53.120270L148.337738,52.896027L149.547180,52.649719L150.847244,52.385132L150.853134,52.383911L152.072876,52.137695L153.221100,51.903809L154.304993,51.676727L155.338486,51.449677L156.336945,51.215790L157.316940,50.968140L158.296555,50.699310L159.294571,50.401642L160.330124,50.067017L161.421875,49.687195L162.587738,49.253754L163.068527,49.060059L163.501877,48.869629L163.915955,48.673859L164.318192,48.471497L164.715881,48.261078L165.115723,48.041290L165.524231,47.810822L165.947174,47.569183L166.389725,47.316406L166.409348,47.305298L166.856491,47.053375L166.895096,47.031921L167.351410,46.781738L167.407867,46.751404L167.877945,46.503845L168.709793,46.183258L169.593262,46.064087L170.480316,46.152771L171.322723,46.444489L172.074631,46.923431L172.505035,47.274323L172.868790,47.556702L173.251587,47.845276L173.656372,48.145966L174.084778,48.464417L174.108398,48.482117L174.537140,48.805969L174.583023,48.841156L175.012421,49.175781L175.078110,49.228180L175.508514,49.579071L175.590363,49.647736L176.022064,50.020294L176.116028,50.104095L176.549377,50.503693L176.650848,50.600769L177.086166,51.032837L177.190826,51.140900L177.628448,51.610840L177.707886,51.698822L178.684555,52.815094L178.743942,52.884613L179.634186,53.952637L179.697464,54.030609L180.513474,55.063568L180.578308,55.148041L181.332291,56.159119L181.395920,56.247040L182.100052,57.249481L182.159668,57.336884L182.826157,58.343872L182.879242,58.426361L183.520248,59.451019L183.565063,59.524536L184.192810,60.580109L184.228485,60.641388L184.855148,61.741119L184.881653,61.788361L185.519424,62.945435L185.537292,62.978210L186.198395,64.205780L186.208649,64.224915L186.905243,65.536194L186.914581,65.553864L187.488464,66.647888L187.505020,66.679779L188.033798,67.711273L188.055542,67.754425L188.543976,68.737579L188.570587,68.792206L189.023392,69.741241L189.053894,69.806763L189.475830,70.735901L189.508743,70.810455L189.904556,71.733887L189.938126,71.814728L190.312546,72.746643L190.344986,72.830200L190.702789,73.784821L190.732620,73.867279L191.078537,74.858826L191.104782,74.936737L191.443588,75.979431L191.465805,76.050171L191.802216,77.158203L191.820435,77.220123L192.159195,78.407715L192.179733,78.482605L192.504364,79.714996L192.529022,79.814026L192.802094,80.975708L192.824326,81.076385L193.052948,82.182159L193.071854,82.279968L193.263214,83.344604L193.278244,83.434357L193.439423,84.472626L193.450516,84.549225L193.588699,85.575897L193.596176,85.635010L193.718445,86.664856L193.722870,86.703796L193.836411,87.751556L193.838303,87.769562L193.950211,88.850006L194.067398,89.976013L194.195358,91.146759L194.341339,92.380402L194.426514,93.093719L194.430099,93.124756L194.506439,93.811798L194.509537,93.840790L194.577881,94.501495L194.580490,94.527527L194.642105,95.166290L194.644196,95.188507L194.700470,95.809692L194.702026,95.827209L194.754303,96.435242L194.755325,96.447357L194.804916,97.046600L194.805435,97.052795L194.853683,97.647675L194.901947,98.242554L194.951035,98.835571L195.002289,99.431488L194.229279,100.110168L187.738617,98.811920L187.743530,98.796661L187.870926,98.405182L187.874390,98.394592L188.001007,98.009247L188.002792,98.003845L188.129044,97.621552L188.255295,97.239258L188.380142,96.859314L188.504074,96.478394L188.627640,96.093018L188.751495,95.699524L188.876297,95.294098L189.002686,94.872986L189.131378,94.432281L189.493515,93.178436L189.493958,93.176910L189.836990,91.991119L190.159042,90.872925L190.462128,89.808441L190.748886,88.781708L191.022186,87.776215L191.285110,86.774841L191.540894,85.759705L191.792847,84.712769L192.044205,83.615662L192.298050,82.450287L192.557434,81.198822L192.788345,80.062714L193.007507,78.983673L193.209671,77.972321L193.394608,77.015320L193.562302,76.098877L193.713181,75.207764L193.847824,74.325806L193.967072,73.435608L194.071686,72.519135L194.162155,71.558258L194.238739,70.534943L194.301361,69.432037L194.362274,68.128693L194.412354,66.891663L194.447174,65.735260L194.464218,64.644470L194.461075,63.602966L194.435547,62.593048L194.385345,61.595581L194.307938,60.590302L194.200256,59.556366L194.058868,58.473267L193.879959,57.321320L193.659576,56.082062L193.406464,54.748932L193.156021,53.481934L192.906967,52.305389L192.651718,51.206848L192.382874,50.172424L192.092865,49.185852L191.773544,48.228882L191.415833,47.281708L191.009506,46.323456L190.543472,45.333923L190.005951,44.293976L189.385315,43.186401L188.710175,42.041107L188.047760,40.963318L187.407516,39.979065L186.779373,39.078857L186.152557,38.251251L185.514893,37.482697L184.852448,36.757996L184.149323,36.061340L183.388092,35.377350L182.550720,34.692139L181.619583,33.993866L180.578262,33.272644L179.876770,32.832245L179.226822,32.472900L178.594284,32.165924L177.969437,31.901184L177.341705,31.669647L176.700455,31.463440L176.035736,31.275757L175.338989,31.100677L174.603134,30.932495L173.822601,30.765442L172.993683,30.593506L172.990524,30.592865L172.113586,30.410126L176.716019,27.256317L176.720001,27.804626L176.726639,28.352966L176.734711,28.906281L176.742889,29.469238L176.743011,29.478851L176.749847,30.046021L176.750031,30.064880L176.754105,30.640503L176.754196,30.667725L176.754181,31.255981L176.754028,31.290558L176.748535,31.895660L176.747955,31.936249L176.735596,32.562439L176.734451,32.607635L176.713898,33.259094L176.712067,33.307587L176.681931,33.988525L176.681610,33.995605L176.636215,34.980469L176.601303,35.878296L176.570023,36.743805L176.569702,36.752289L176.537506,37.591797L176.536224,37.621918L176.498550,38.436127L176.495758,38.488556L176.447693,39.289001L176.442566,39.362488L176.379181,40.160706L176.370834,40.251892L176.287186,41.059540L176.274979,41.163513L176.166153,41.992096L176.149887,42.103180L176.010971,42.964264L175.991058,43.076904L175.817078,43.982025L175.794418,44.091339L175.580475,45.052155L175.551147,45.174347L175.406967,45.734375L175.369049,45.871094L175.211563,46.400604L175.171631,46.526917L175.002731,47.030212L174.963211,47.142212L174.784821,47.623718L174.748535,47.717834L174.562531,48.181885L174.532272,48.255188L174.340576,48.706146L174.318848,48.756256L174.123352,49.198517L174.112000,49.223969L173.914597,49.661865L173.717209,50.099762L173.533051,50.516602L173.363083,50.917419L173.207336,51.308228L173.207336,51.308228L172.861740,51.973114L172.393051,52.557800L171.819275,53.039856L171.162521,53.400665L170.447983,53.626434L169.703125,53.708466L168.956573,53.643616L168.237015,53.434357L167.572128,53.088745L166.987442,52.620056L166.505417,52.046295L166.144577,51.389526L165.918808,50.674988L165.836777,49.930115L165.901642,49.183563L166.110901,48.464020L166.295044,48.004578z" />
				<polyline stroke="#000000" stroke-opacity="1" fill="none" stroke-linecap="round" stroke-width="7.64520264" points="86.483688,99.770294 86.483688,99.770294" />
				<polyline stroke="#000000" stroke-opacity="1" fill="none" stroke-linecap="round" stroke-width="9.86669922" points="115.403564,165.543396 116.241852,165.768005 117.059723,165.998047 117.863968,166.231689 118.661407,166.467102 119.458862,166.702576 120.263107,166.936218 121.080978,167.166260 121.919266,167.390839 122.784775,167.608215 123.684311,167.816498 124.624710,168.013916 125.612732,168.198669 126.894684,168.424622 128.098679,168.636017 129.240646,168.830688 130.336456,169.006470 131.401993,169.161255 132.453171,169.292847 133.505890,169.399109 134.576019,169.477936 135.679459,169.527100 136.832123,169.544556 138.049881,169.528015 139.348633,169.475464 140.835098,169.378784 142.225311,169.252289 143.537506,169.095947 144.789917,168.909851 146.000763,168.694092 147.188309,168.448608 148.370758,168.173523 149.566376,167.868896 150.793335,167.534760 152.069931,167.171112 153.414337,166.778076 154.844833,166.355621 155.213959,166.241577 155.564072,166.124084 155.897873,166.003632 156.218079,165.880676 156.527405,165.755737 156.828598,165.629333 157.124344,165.501892 157.417358,165.374023 157.710388,165.246094 158.006134,165.118713 158.307327,164.992279 158.616653,164.867340" />
				<polygon fill="#000000" stroke="none" fill-opacity="1" points="169.659134,49.886139 169.845123,49.422058 170.036819,48.971069 170.232315,48.528809 170.429718,48.090912 170.627106,47.653015 170.822617,47.210754 171.014297,46.759796 171.200302,46.295715 171.378708,45.814209 171.547577,45.310883 171.705078,44.781372 171.849258,44.221344 172.063202,43.260529 172.237167,42.355377 172.376099,41.494293 172.484924,40.665710 172.568573,39.858093 172.631973,39.059875 172.680023,38.259399 172.717712,37.445221 172.749908,36.605713 172.781601,35.729340 172.817657,34.804474 172.863083,33.819580 172.893204,33.138611 172.913742,32.487122 172.926102,31.860931 172.931580,31.255859 172.931595,30.667603 172.927521,30.091980 172.920700,29.524841 172.912506,28.961884 172.904327,28.398926 172.897491,27.831757 172.893402,27.256165 172.893433,26.667908 173.770386,26.850647 174.624512,27.027893 175.459702,27.207092 176.279785,27.395660 177.088638,27.601044 177.890167,27.830719 178.688217,28.092072 179.486649,28.392578 180.289368,28.739685 181.100235,29.140839 181.923080,29.603485 182.761810,30.135040 183.922333,30.942688 184.982986,31.743195 185.955688,32.545441 186.852402,33.358459 187.685043,34.191162 188.465591,35.052521 189.205963,35.951447 189.918106,36.896942 190.613968,37.897980 191.305511,38.963470 192.004639,40.102386 192.723343,41.323669 193.405746,42.546509 194.006104,43.714539 194.533173,44.841492 194.995697,45.941254 195.402466,47.027588 195.762207,48.114319 196.083694,49.215210 196.375671,50.344086 196.646896,51.514771 196.906128,52.741028 197.162109,54.036713 197.423615,55.415588 197.657837,56.738373 197.849899,57.983002 198.002823,59.165497 198.119629,60.301788 198.203339,61.407990 198.257019,62.499969 198.283676,63.593842 198.286316,64.705536 198.268021,65.851074 198.231812,67.046478 198.180679,68.307770 198.117691,69.650909 198.050476,70.822845 197.967651,71.919525 197.869278,72.955627 197.755478,73.945831 197.626312,74.904785 197.481903,75.847168 197.322342,76.787689 197.147720,77.740936 196.958099,78.721680 196.753601,79.744507 196.534332,80.824158 196.300354,81.975220 196.032913,83.264618 195.770081,84.470062 195.509155,85.607880 195.247467,86.694427 194.982254,87.746094 194.710861,88.779205 194.430542,89.810120 194.138596,90.855225 193.832336,91.930878 193.509033,93.053406 193.166000,94.239197 192.800491,95.504578 192.663681,95.972687 192.529526,96.419342 192.397629,96.847595 192.267593,97.260498 192.139084,97.661194 192.011703,98.052673 191.885056,98.438049 191.758804,98.820312 191.632553,99.202637 191.505936,99.587952 191.378555,99.979431 191.250015,100.380127 191.193741,99.758911 191.141464,99.150879 191.091873,98.551636 191.043594,97.956787 190.995346,97.361938 190.945755,96.762695 190.893478,96.154663 190.837189,95.533447 190.775543,94.894684 190.707214,94.233978 190.630875,93.546936 190.545181,92.829193 190.395355,91.561951 190.265335,90.371735 190.147934,89.243774 190.036041,88.163300 189.922531,87.115540 189.800247,86.085724 189.662079,85.059052 189.500900,84.020782 189.309540,82.956177 189.080902,81.850372 188.807846,80.688660 188.483231,79.456268 188.144470,78.268707 187.808075,77.160675 187.469269,76.117981 187.123367,75.126434 186.765549,74.171783 186.391113,73.239868 185.995300,72.316437 185.573364,71.387329 185.120575,70.438293 184.632141,69.455109 184.103348,68.423615 183.529449,67.329559 182.832840,66.018311 182.171738,64.790741 181.533951,63.633698 180.907272,62.533966 180.279510,61.478333 179.638504,60.453644 178.972031,59.446686 178.267899,58.444244 177.513916,57.433136 176.697922,56.400208 175.807648,55.332184 174.830994,54.215912 174.393356,53.745972 173.958038,53.313904 173.524689,52.914276 173.092987,52.541779 172.662598,52.190887 172.233200,51.856201 171.804459,51.532379 171.376053,51.213959 170.947647,50.895508 170.518906,50.571686 170.089508,50.237030 169.659134,49.886139 169.189056,50.133636 168.732758,50.383820 168.285614,50.635742 167.843048,50.888489 167.400497,51.141266 166.953369,51.393188 166.497055,51.643372 166.026993,51.890930 165.538559,52.134949 165.027237,52.374695 164.488358,52.609192 163.917404,52.837646 162.674957,53.298584 161.502136,53.705536 160.383896,54.065735 159.305344,54.386383 158.251511,54.674713 157.207413,54.937958 156.158112,55.183350 155.088623,55.418121 153.984039,55.649506 152.829330,55.884674 151.609604,56.130920 150.309845,56.395477 149.083694,56.645142 147.933334,56.873993 146.843231,57.083740 145.797867,57.275848 144.781708,57.451965 143.779221,57.613647 142.774902,57.762451 141.753220,57.900024 140.698639,58.027924 139.595642,58.147675 138.428711,58.260986 137.182312,58.369324 135.467361,58.479279 133.857162,58.526093 132.330887,58.524017 130.867783,58.487183 129.447098,58.429871 128.048050,58.366211 126.649857,58.310486 125.231750,58.276794 123.772964,58.279388 122.252731,58.332458 120.650269,58.450195 118.944824,58.646790 117.711395,58.819092 116.554138,58.991547 115.459488,59.169891 114.413803,59.359833 113.403519,59.567139 112.415016,59.797699 111.434700,60.057068 110.448990,60.351166 109.444275,60.685669 108.406944,61.066345 107.323433,61.498962 106.180115,61.989319 105.028870,62.503784 103.950050,63.000488 102.933891,63.489777 101.970650,63.981964 101.050575,64.487427 100.163918,65.016510 99.300919,65.579559 98.451851,66.186951 97.606949,66.848969 96.756470,67.576050 95.890656,68.378510 94.999756,69.266632 94.085648,70.231934 93.251190,71.164368 92.489082,72.075806 91.792038,72.978027 91.152771,73.882935 90.563980,74.802307 90.018387,75.748016 89.508690,76.731903 89.027603,77.765778 88.567833,78.861511 88.122086,80.030914 87.683075,81.285858 87.281502,82.571533 86.961601,83.790802 86.714104,84.958160 86.529770,86.088135 86.399376,87.195160 86.313637,88.293823 86.263329,89.398499 86.239204,90.523743 86.232002,91.684052 86.232491,92.893890 86.231415,94.167786 86.219536,95.520172 86.218147,96.117676 86.230515,96.688660 86.254684,97.236938 86.288689,97.766327 86.330559,98.280579 86.378326,98.783447 86.430016,99.278748 86.483688,99.770294 86.537361,100.261841 86.589050,100.757141 86.636818,101.260010 86.678696,101.774261 86.252228,100.778442 85.826271,99.807617 85.400642,98.853455 84.975182,97.907654 84.549728,96.961823 84.124100,96.007629 83.698135,95.036835 83.271667,94.041016 82.844528,93.011871 82.416542,91.941071 81.987541,90.820282 81.557365,89.641174 81.164581,88.549011 80.791039,87.525330 80.436752,86.555450 80.101662,85.624725 79.785744,84.718536 79.488976,83.822266 79.211304,82.921234 78.952728,82.000824 78.713203,81.046387 78.492699,80.043304 78.291191,78.976929 78.108650,77.832611 77.926155,76.502594 77.778648,75.251678 77.665260,74.064056 77.585121,72.923767 77.537323,71.814911 77.521019,70.721588 77.535332,69.627899 77.579369,68.517944 77.652252,67.375793 77.753128,66.185577 77.881096,64.931335 78.035278,63.597198 78.199059,62.322540 78.372719,61.129639 78.559456,60.003387 78.762466,58.928711 78.984978,57.890564 79.230133,56.873840 79.501167,55.863464 79.801254,54.844360 80.133583,53.801453 80.501381,52.719696 80.907806,51.583984 81.356079,50.379181 81.790054,49.257690 82.215309,48.213623 82.637383,47.233429 83.061813,46.303467 83.494156,45.410217 83.939957,44.540039 84.404762,43.679382 84.894089,42.814606 85.413521,41.932190 85.968575,41.018524 86.564812,40.059998 87.207756,39.043030 87.871689,38.006805 88.502930,37.040344 89.111275,36.132263 89.706497,35.271149 90.298416,34.445526 90.896797,33.644043 91.511452,32.855286 92.152153,32.067871 92.828720,31.270325 93.550911,30.451294 94.328529,29.599335 95.171379,28.703064 95.992538,27.851318 96.773369,27.063110 97.524643,26.328949 98.257133,25.639221 98.981583,24.984375 99.708771,24.354919 100.449463,23.741180 101.214409,23.133698 102.014374,22.522888 102.860146,21.899139 103.762459,21.252960 104.732086,20.574707 105.760895,19.870697 106.734070,19.223236 107.664703,18.624573 108.565948,18.067017 109.450920,17.542755 110.332741,17.044037 111.224548,16.563141 112.139465,16.092346 113.090607,15.623810 114.091110,15.149841 115.154099,14.662720 116.292709,14.154602 117.022430,13.835388 117.709473,13.541779 118.363251,13.271271 118.993149,13.021362 119.608521,12.789520 120.218781,12.573303 120.833313,12.370148 121.461502,12.177582 122.112732,11.993073 122.796387,11.814148 123.521851,11.638245 124.298508,11.462952 125.495590,11.210907 126.621521,10.993347 127.691025,10.807465 128.718811,10.650482 129.719589,10.519501 130.708069,10.411713 131.698944,10.324341 132.706955,10.254547 133.746780,10.199524 134.833145,10.156433 135.980759,10.122437 137.204315,10.094788 138.472488,10.066254 139.664490,10.037079 140.794952,10.013123 141.878479,10.000000 142.929718,10.003510 143.963272,10.029297 144.993729,10.083130 146.035721,10.170715 147.103882,10.297760 148.212799,10.470062 149.377121,10.693268 150.611420,10.973145 151.957825,11.309570 153.219971,11.646484 154.410889,11.992126 155.543564,12.354767 156.631012,12.742584 157.686249,13.163818 158.722260,13.626709 159.752090,14.139526 160.788712,14.710480 161.845169,15.347839 162.934418,16.059814 164.069504,16.854645 165.064545,17.618713 165.969437,18.401398 166.797073,19.200134 167.560303,20.012146 168.272018,20.834778 168.945099,21.665405 169.592422,22.501373 170.226868,23.339996 170.861298,24.178619 171.508636,25.014587 172.181717,25.845215 172.893433,26.667908" />
			</g>
		</g>
	</g>
</svg>
