<?xml version="1.0" encoding="UTF-8" standalone="no"?>
<!DOCTYPE svg PUBLIC "-//W3C//DTD SVG 1.1//EN" "http://www.w3.org/Graphics/SVG/1.1/DTD/svg11.dtd">
<svg version="1.1" xmlns="http://www.w3.org/2000/svg" xmlns:xlink="http://www.w3.org/1999/xlink" preserveAspectRatio="xMidYMid meet" viewBox="0 0 640 640" width="480" height="480"><defs><path d="M359.2 135.34C370.52 133.72 394.4 134.09 407.81 132.84C421.21 131.59 441.31 131.84 465.31 120.34C489.31 108.84 499.31 87.84 503.81 62.84C506.81 46.18 505.31 26.34 499.31 3.34C498.57 8.68 492.53 14.34 481.2 20.34C473.72 24.3 467.01 26.33 459.12 27.69C449.08 29.43 442.12 30.1 424.2 32.34C392.2 36.34 371.7 45.34 355.7 67.34C345.03 82.01 339.48 107.51 339.04 143.84C344.94 139.26 351.66 136.43 359.2 135.34Z" id="d5hJPmqCi"></path><linearGradient id="gradienta63uMTNkdh" gradientUnits="userSpaceOnUse" x1="505.31" y1="18.5" x2="413.08" y2="134.34"><stop style="stop-color: #75ff00;stop-opacity: 1" offset="0%"></stop><stop style="stop-color: #298415;stop-opacity: 1" offset="100%"></stop></linearGradient><path d="M399.66 89.34C383.46 96.7 363.25 111.7 339.04 134.34L339.04 125.34C364.56 102.85 384.16 88.69 397.83 82.84C411.5 77 438.78 68.89 479.66 58.51C442.54 71.71 415.87 81.99 399.66 89.34Z" id="a98Ts7JL"></path><linearGradient id="gradientd2l9mBdzau" gradientUnits="userSpaceOnUse" x1="409.35" y1="58.51" x2="409.35" y2="134.34"><stop style="stop-color: #28c516;stop-opacity: 1" offset="0%"></stop><stop style="stop-color: #0b3f09;stop-opacity: 1" offset="100%"></stop></linearGradient><path d="M329.88 187.28C332.69 174.91 335.44 166.54 338.47 142.3C341.5 118.06 342.29 87.12 338.47 71.63C334.65 56.15 328.33 44.12 313.69 39.36C299.05 34.59 273.36 42.81 282.41 57.57C291.45 72.33 313.94 71.28 320 104.62C322.87 120.39 324.23 153.12 315.19 181.78C306.16 210.45 327.06 199.65 329.88 187.28Z" id="a1HBjZHNTW"></path><linearGradient id="gradientksDanfLrx" gradientUnits="userSpaceOnUse" x1="310.78" y1="38" x2="310.78" y2="155.98"><stop style="stop-color: #7b1e1e;stop-opacity: 1" offset="0%"></stop><stop style="stop-color: #633a1e;stop-opacity: 1" offset="100%"></stop></linearGradient><path d="M473.51 149.85C526.05 161.01 556.83 187.75 581.11 259.02C605.4 330.29 567.1 481.6 492.51 571.35C450.86 621.48 400.09 640.56 340.21 628.59C320.29 624.61 299.78 624.52 279.82 628.32C223.93 638.97 183.81 629.29 159.46 599.27C113.69 542.85 14.17 370.6 66.37 239.32C89.52 181.12 150.22 156.79 205.53 154.32C233.13 153.08 267.72 161.33 309.31 179.06C330.03 187.9 353.67 186.65 373.34 175.68C414.14 152.94 447.52 144.33 473.51 149.85Z" id="b2OavPhCEm"></path><linearGradient id="gradiente40LOv3rm6" gradientUnits="userSpaceOnUse" x1="320" y1="148.23" x2="320" y2="632.51"><stop style="stop-color: #ff6c6c;stop-opacity: 1" offset="0%"></stop><stop style="stop-color: #c91313;stop-opacity: 1" offset="100%"></stop></linearGradient><path d="M530.36 384.81C556.63 358.6 551.57 314.99 539.45 281.66C527.33 248.33 500.42 207.87 456.48 197.87C412.54 187.87 368.82 201.87 362.72 246.36C359.74 268.16 374.26 290.61 406.3 313.69C421.35 324.54 433.21 339.25 440.61 356.27C445.19 366.77 446.76 370.39 451.13 380.42C458.37 397.07 476.09 406.58 493.97 403.42C508.35 400.88 520.48 394.67 530.36 384.81Z" id="k7yoePVJv"></path><linearGradient id="gradientb2mAZOtA7i" gradientUnits="userSpaceOnUse" x1="455.84" y1="194.8" x2="455.84" y2="404.02"><stop style="stop-color: #ff936a;stop-opacity: 0.7" offset="0%"></stop><stop style="stop-color: #ed2b26;stop-opacity: 0.7" offset="100%"></stop></linearGradient></defs><g><g><g><use xlink:href="#d5hJPmqCi" opacity="1" fill="url(#gradienta63uMTNkdh)"></use></g><g><use xlink:href="#a98Ts7JL" opacity="1" fill="url(#gradientd2l9mBdzau)"></use></g><g><use xlink:href="#a1HBjZHNTW" opacity="1" fill="url(#gradientksDanfLrx)"></use></g><g><use xlink:href="#b2OavPhCEm" opacity="1" fill="url(#gradiente40LOv3rm6)"></use></g><g><use xlink:href="#k7yoePVJv" opacity="1" fill="url(#gradientb2mAZOtA7i)"></use></g></g></g></svg>