<?xml version="1.0" encoding="UTF-8" standalone="no"?>
<!DOCTYPE svg PUBLIC "-//W3C//DTD SVG 1.1//EN" "http://www.w3.org/Graphics/SVG/1.1/DTD/svg11.dtd">
<svg version="1.1" xmlns="http://www.w3.org/2000/svg" xmlns:xlink="http://www.w3.org/1999/xlink" preserveAspectRatio="xMidYMid meet" viewBox="0 0 480 480" width="480" height="480"><defs><path d="M480 240C480 372.46 372.46 480 240 480C107.54 480 0 372.46 0 240C0 107.54 107.54 0 240 0C372.46 0 480 107.54 480 240Z" id="csX67jj5t"></path><radialGradient id="gradienta3a7nzzudP" gradientUnits="userSpaceOnUse" cx="240" cy="193.61" dx="184.93" dy="490.46" r="301.92"><stop style="stop-color: #ffffff;stop-opacity: 1" offset="0%"></stop><stop style="stop-color: #e8e8e8;stop-opacity: 1" offset="100%"></stop></radialGradient><clipPath id="clipafWkJ09LM"><use xlink:href="#csX67jj5t" opacity="1"></use></clipPath><path d="M162.61 260L269.22 277.69C271.89 290.49 273.56 298.5 274.23 301.7C278.09 320.21 280.63 338.96 281.83 357.83C282.07 361.52 282.41 366.8 283 376.13C283.01 376.22 282.96 376.31 282.89 376.37C277.8 379.97 279.66 378.66 278.82 379.25C264.63 389.31 249.21 397.5 232.93 403.61C227.11 405.79 212.57 411.26 189.29 420C178.62 411.02 171.94 405.41 169.27 403.17C155.3 391.42 142.89 377.94 132.34 363.05C130.43 360.35 125.65 353.6 118 342.81C123.43 331 126.83 323.62 128.18 320.67C128.18 320.67 152.47 275.99 152.47 275.99C153.83 273.86 157.21 268.53 162.61 260Z" id="dAmaZppB"></path><path d="M368.66 71.87C382.15 83.87 390.59 91.37 393.96 94.37C406.34 105.38 417.59 117.61 427.52 130.88C429.08 132.97 432.99 138.18 439.24 146.53C437.84 156.25 436.97 162.33 436.63 164.76C434.62 178.76 431.35 192.56 426.84 205.98C425.91 208.76 424.5 212.96 422.22 219.75C422.19 219.83 422.11 219.88 422.03 219.86C412 217.47 401.49 214.97 396.32 213.74C396.32 213.74 348.1 200 348.1 200C347.1 199.67 344.6 198.83 340.6 197.5L309.24 108.48C313.81 104.49 316.67 102 317.82 101C330.49 89.95 344.98 81.16 360.64 75.01C361.71 74.59 364.38 73.54 368.66 71.87Z" id="dgfnMTmuX"></path><path d="M133.16 156.44C138.87 149.97 142.44 145.92 143.86 144.31C143.86 144.31 177.36 108.48 177.36 108.48C180.78 105.03 189.33 96.41 203 82.62C199.5 75.7 197.31 71.38 196.44 69.65C190.14 57.2 181.83 45.88 171.84 36.14C170.99 35.31 171.52 35.83 167.67 32.07C167.6 32.01 167.51 31.98 167.42 32C157.82 34.56 147.8 37.24 142.86 38.56C127.3 42.71 112.27 48.62 98.05 56.18C95.08 57.76 87.66 61.7 75.78 68.02C71.58 80.53 68.95 88.36 67.9 91.49C63.7 103.97 61.03 116.92 59.93 130.04C59.67 133.09 59.03 140.73 58 152.96C62.35 153.56 65.06 153.94 66.15 154.1C82.64 156.4 99.3 157.34 115.95 156.9C118.24 156.84 123.98 156.69 133.16 156.44Z" id="bz8TMUnib"></path><path d="M10.54 232.61C15.38 251.48 18.41 263.28 19.63 268C22.24 278.15 25.93 288 30.63 297.38C32.46 301.01 37.02 310.08 44.31 324.6C43.11 331.31 42.36 335.51 42.06 337.19C40.82 344.17 40.5 351.29 41.11 358.36C41.26 359.99 41.61 364.06 42.18 370.58C35.35 358.71 31.08 351.29 29.37 348.33C12.19 318.49 3.15 284.66 3.15 250.23C3.15 247.88 3.15 242.01 3.15 232.61L10.54 232.61Z" id="kdqxnz8VG"></path><path d="M190.54 459.11C193 461.65 194.55 463.24 195.17 463.88C198.67 467.49 203.01 470.17 207.81 471.68C209.68 472.26 214.34 473.73 221.81 476.08C212.74 474.98 207.07 474.29 204.81 474.02C193.66 472.66 182.68 470.22 172.01 466.73C170.33 466.18 166.14 464.81 159.42 462.61C167.27 462.61 172.17 462.61 174.13 462.61C177.85 462.61 181.56 462.02 185.1 460.87C185.82 460.64 187.64 460.05 190.54 459.11Z" id="c5jvmdPXTI"></path><path d="M441.32 316.2L460.4 326.2C457.31 333.35 455.37 337.81 454.6 339.6C438.46 376.83 412.36 408.89 379.17 432.23C377.08 433.69 381.07 430.89 368.86 439.48C368.81 439.51 368.75 439.47 368.76 439.42C369.76 434.4 370.88 428.77 371.41 426.07C372.95 418.3 373.3 410.34 372.43 402.46C372.27 401 371.87 397.36 371.24 391.53C371.57 391.28 371.77 391.13 371.86 391.06C388.2 378.73 402.92 364.4 415.67 348.39C419.09 344.1 427.64 333.37 441.32 316.2Z" id="a13gX9baAZ"></path><path d="M464.43 161.82C462.03 160.07 460.52 158.97 459.92 158.53C454.19 154.36 447.73 151.29 440.87 149.49C440.39 149.36 439.18 149.04 437.24 148.53" id="i2QEZSDIPu"></path><path d="M164.92 262C155.06 241.54 148.89 228.76 146.42 223.64C137.93 206.05 133.31 186.85 132.87 167.32C132.82 165.15 132.7 159.71 132.5 151" id="e3iOGgcpKI"></path><path d="M311.74 109.06C298.22 104.33 289.77 101.38 286.39 100.2C266.59 93.27 246.17 88.26 225.41 85.23C221.82 84.7 212.85 83.39 198.5 81.3" id="c16miqXxto"></path><path d="M60.5 150.03C54.51 156.95 50.76 161.27 49.26 162.99C37.29 176.79 27.57 192.38 20.43 209.2C18.93 212.72 15.2 221.52 9.22 235.61" id="a5QVce5w8"></path><path d="M122 342.5C110.32 341.59 103.03 341.02 100.11 340.8C81.45 339.35 63.24 334.37 46.45 326.13C45.79 325.81 44.16 325.01 41.55 323.72" id="bkPIsdjtu"></path><path d="M190.62 461.11C190.13 455.77 189.83 452.44 189.71 451.11C188.98 443.12 188.98 435.09 189.7 427.1C189.82 425.76 190.13 422.39 190.62 417" id="a6lXmJ5E8t"></path><path d="M249.27 2.13C236.44 5.12 228.43 6.99 225.23 7.74C210.49 11.17 196.35 16.77 183.26 24.36C180.93 25.71 175.1 29.09 165.77 34.5" id="bvqwle4og"></path><path d="M355.16 32.85C357.31 37.84 358.65 40.95 359.19 42.2C362.19 49.16 364.58 56.37 366.33 63.75C366.66 65.14 367.48 68.61 368.8 74.16" id="b5KuWXDPXy"></path><path d="M344.81 193.61C338.54 201.78 334.62 206.9 333.05 208.94C317.2 229.61 299.67 248.94 280.64 266.72C278.73 268.51 273.95 272.97 266.31 280.11" id="a1H4yVIsQl"></path><path d="M376.31 393.11C367.14 392.31 361.41 391.82 359.11 391.62C334.38 389.48 310.03 384.14 286.66 375.75C285.68 375.4 283.23 374.51 279.31 373.11" id="a6bmSaJIs"></path><path d="M419.73 212.61C423.16 221.34 425.3 226.79 426.15 228.98C433.27 247.12 437.26 266.34 437.97 285.82C438.14 290.46 438.56 302.06 439.24 320.61" id="b4gOnzHud8"></path></defs><g><g><g><use xlink:href="#csX67jj5t" opacity="1" fill="url(#gradienta3a7nzzudP)"></use><g clip-path="url(#clipafWkJ09LM)"><use xlink:href="#csX67jj5t" opacity="1" fill-opacity="0" stroke="#000000" stroke-width="8" stroke-opacity="1"></use></g></g><g><use xlink:href="#dAmaZppB" opacity="1" fill="#000000" fill-opacity="1"></use></g><g><use xlink:href="#dgfnMTmuX" opacity="1" fill="#000000" fill-opacity="1"></use></g><g><use xlink:href="#bz8TMUnib" opacity="1" fill="#000000" fill-opacity="1"></use></g><g><use xlink:href="#kdqxnz8VG" opacity="1" fill="#000000" fill-opacity="1"></use></g><g><use xlink:href="#c5jvmdPXTI" opacity="1" fill="#000000" fill-opacity="1"></use></g><g><use xlink:href="#a13gX9baAZ" opacity="1" fill="#000000" fill-opacity="1"></use></g><g><g><use xlink:href="#i2QEZSDIPu" opacity="1" fill-opacity="0" stroke="#000000" stroke-width="4" stroke-opacity="1"></use></g></g><g><g><use xlink:href="#e3iOGgcpKI" opacity="1" fill-opacity="0" stroke="#000000" stroke-width="4" stroke-opacity="1"></use></g></g><g><g><use xlink:href="#c16miqXxto" opacity="1" fill-opacity="0" stroke="#000000" stroke-width="4" stroke-opacity="1"></use></g></g><g><g><use xlink:href="#a5QVce5w8" opacity="1" fill-opacity="0" stroke="#000000" stroke-width="4" stroke-opacity="1"></use></g></g><g><g><use xlink:href="#bkPIsdjtu" opacity="1" fill-opacity="0" stroke="#000000" stroke-width="4" stroke-opacity="1"></use></g></g><g><g><use xlink:href="#a6lXmJ5E8t" opacity="1" fill-opacity="0" stroke="#000000" stroke-width="4" stroke-opacity="1"></use></g></g><g><g><use xlink:href="#bvqwle4og" opacity="1" fill-opacity="0" stroke="#000000" stroke-width="4" stroke-opacity="1"></use></g></g><g><g><use xlink:href="#b5KuWXDPXy" opacity="1" fill-opacity="0" stroke="#000000" stroke-width="4" stroke-opacity="1"></use></g></g><g><g><use xlink:href="#a1H4yVIsQl" opacity="1" fill-opacity="0" stroke="#000000" stroke-width="4" stroke-opacity="1"></use></g></g><g><g><use xlink:href="#a6bmSaJIs" opacity="1" fill-opacity="0" stroke="#000000" stroke-width="4" stroke-opacity="1"></use></g></g><g><g><use xlink:href="#b4gOnzHud8" opacity="1" fill-opacity="0" stroke="#000000" stroke-width="4" stroke-opacity="1"></use></g></g></g></g></svg>