<?xml version="1.0" encoding="UTF-8"?>
<!-- Generator: Blender, SVG Export for Grease Pencil - v1.0 -->
<!DOCTYPE svg PUBLIC "-//W3C//DTD SVG 1.1//EN" "http://www.w3.org/Graphics/SVG/1.1/DTD/svg11.dtd">
<svg version="1.0" x="0px" y="0px" xmlns="http://www.w3.org/2000/svg" width="209px" height="209px" viewBox="0 0 209 209">
	<g id="blender_frame_1">
		<g id="blender_object_Gear">
			<!--Layer: Gear_Lines-->
			<g id="Gear_Lines">
				<polygon stroke="#000000" stroke-opacity="1" fill="none" stroke-linecap="round" stroke-width="41.2247314" points="161.594742,104.138306 160.501144,93.034393 157.262222,82.357178 152.002548,72.517029 144.924149,63.892029 136.299179,56.813629 126.459045,51.553955 115.781784,48.315063 104.677887,47.221436 93.573944,48.315063 82.896729,51.553955 73.056595,56.813629 64.431595,63.892029 57.353195,72.517029 52.093521,82.357178 48.854630,93.034393 47.761002,104.138306 48.854630,115.242249 52.093521,125.919495 57.353195,135.759613 64.431595,144.384583 73.056595,151.462982 82.896729,156.722656 93.573944,159.961578 104.677887,161.055176 115.781784,159.961578 126.459045,156.722656 136.299179,151.462982 144.924149,144.384583 152.002548,135.759613 157.262222,125.919495 160.501144,115.242249" />
				<polygon stroke="#000000" stroke-opacity="1" fill="none" stroke-linecap="round" stroke-width="23.3214722" points="76.141296,199.106842 66.771149,195.767975 57.784531,191.503235 67.477203,160.041931 57.364319,151.742523 49.064896,141.629639 17.603622,151.322327 13.338852,142.335693 10.000000,132.965576 39.100250,117.572845 37.817932,104.553406 39.100250,91.533966 10.000000,76.141266 13.338852,66.771118 17.603622,57.784485 49.064896,67.477173 57.364319,57.364288 67.477203,49.064850 57.784531,17.603607 66.771149,13.338806 76.141296,10.000000 91.533997,39.100220 104.553452,37.817902 117.572891,39.100220 132.965591,10.000000 142.335739,13.338806 151.322372,17.603607 141.629684,49.064850 151.742569,57.364288 160.041977,67.477173 191.503250,57.784485 195.768051,66.771118 199.106857,76.141266 170.006638,91.533966 171.288956,104.553406 170.006638,117.572845 199.106857,132.965576 195.768051,142.335693 191.503250,151.322327 160.041977,141.629639 151.742569,151.742523 141.629684,160.041931 151.322372,191.503235 142.335739,195.767975 132.965591,199.106842 117.572891,170.006592 104.553452,171.288940 91.533997,170.006592 76.295212,198.815857" />
			</g>
		</g>
	</g>
</svg>
