<?xml version="1.0" encoding="UTF-8" standalone="no"?>
<!DOCTYPE svg PUBLIC "-//W3C//DTD SVG 1.1//EN" "http://www.w3.org/Graphics/SVG/1.1/DTD/svg11.dtd">
<svg version="1.1" xmlns="http://www.w3.org/2000/svg" xmlns:xlink="http://www.w3.org/1999/xlink" preserveAspectRatio="xMidYMid meet" viewBox="0 0 640 640" width="640" height="640"><defs><path d="M378.61 640.26C361.1 620.62 350.04 600.59 345.43 580.17C338.53 549.54 336.99 461.73 345.43 440.1C348 433.54 359.63 412.17 378.61 398.96C387.25 392.95 400.74 385.19 419.09 375.66C431.93 368.99 445.29 363.38 459.04 358.86C473.85 354 509.38 342.33 527.13 336.5C527.99 336.22 527.74 334.94 526.84 335C516.68 335.75 491.29 337.62 450.67 340.6L441.17 266.37L429.6 343.61C412.29 351.71 401.46 356.77 397.13 358.79C376.9 368.25 358.2 380.68 341.64 395.68C337.31 399.6 319.96 415.3 319.96 415.3C319.88 415.38 319.16 402.73 317.8 377.34C317.8 377.34 315.17 346.13 315.17 346.13C314.54 340.64 312.97 326.92 310.44 304.97L408.6 235.36L526.72 204.2L414.23 218.63C402.32 174.56 394.87 147.02 391.89 136.01C391.74 135.42 390.87 135.56 390.9 136.17C391.55 147.16 393.18 174.65 395.79 218.63L301.54 279.05C289.85 245.77 282.55 224.97 279.62 216.65C275.72 205.53 276.13 193.34 280.79 182.51C285.54 171.46 297.04 144.72 302.91 131.06C303.17 130.45 302.36 129.96 301.95 130.48C295.63 138.31 279.83 157.88 254.55 189.2C209.74 165.42 181.74 150.55 170.53 144.6C169.98 144.31 169.47 145.06 169.95 145.47C185.32 158.36 218.89 186.51 232.07 197.57C241.76 205.69 249.34 216.02 254.17 227.69C264.85 253.43 272.97 280.53 278.55 308.97C285.39 343.87 288.5 380.65 287.87 419.31C274.33 400.38 265.86 388.56 262.48 383.83C253.82 371.72 244.22 360.32 233.77 349.71C230.41 346.29 222.01 337.76 208.56 324.1C206.23 282.15 204.77 255.93 204.19 245.44C204.15 244.83 203.28 244.76 203.15 245.36C201.23 254.53 196.44 277.44 188.78 314.09C150.1 297.98 125.93 287.91 116.27 283.88C115.79 283.68 115.43 284.34 115.85 284.63C140.05 301.77 159.1 315.91 173 327.04C204.87 352.58 220.15 371.55 228.81 381.5C247.8 403.29 250.38 427.75 254.55 442.86C264.16 477.64 264.77 558.76 257.55 586.17C252.74 604.45 242.1 622.48 225.64 640.26L378.61 640.26Z" id="bIRQiXuVf"></path><path d="M348.89 10.01C364.82 10.01 400.66 9.42 438.45 26.14C455.83 33.82 472.53 46.26 488.54 63.45C531.05 67.46 557.58 74.13 568.11 83.45C583.9 97.44 577.33 106.83 577.33 123.54C577.33 124.93 591.05 133.79 598.53 156.08C603.21 170.03 606.03 189.06 606.99 213.19C618.33 233.43 621.29 251.26 615.88 266.68C610.46 282.1 600.65 289.8 586.46 289.79C599.1 315.62 599.1 337.58 586.46 355.67C573.82 373.77 551.68 381.94 520.03 380.19C508.73 393.69 498.23 401.83 488.54 404.59C474.01 408.73 410.36 416.08 365.31 400.61C335.28 390.3 313.93 375.32 301.28 355.67C287.02 363.55 270.22 369.14 250.88 372.42C231.54 375.71 209.65 376.71 185.22 375.41C142.23 404.2 106.91 404.97 79.25 377.71C51.58 350.45 47.55 316.36 67.15 275.46C32.04 274.83 14.17 260.04 13.52 231.09C12.55 187.66 50.82 154.74 79.25 149.44C84.67 87.55 136.79 54.19 167 40.21C187.14 30.89 225.89 24.57 283.25 21.24C295.26 13.75 317.14 10.01 348.89 10.01Z" id="dlnsFWcId"></path><linearGradient id="gradientg5QpHKSaik" gradientUnits="userSpaceOnUse" x1="294.36" y1="-5.74" x2="408.54" y2="272.78"><stop style="stop-color: #bdff00;stop-opacity: 1" offset="0%"></stop><stop style="stop-color: #155c1d;stop-opacity: 1" offset="100%"></stop></linearGradient><path d="M169.67 228.22C198.72 220.52 206.17 213.56 233.03 197.69C259.88 181.82 312.07 147.49 386.89 130.26C504.72 103.14 587.82 129.98 598.56 145.47C605.72 155.8 608.54 178.37 607.02 213.19C618.37 233.43 621.33 251.26 615.91 266.68C610.5 282.1 600.69 289.8 586.5 289.79C599.14 315.62 599.14 337.58 586.5 355.67C573.86 373.77 551.71 381.94 520.06 380.19C508.76 393.69 498.27 401.83 488.58 404.59C474.05 408.73 410.4 416.08 365.35 400.61C335.31 390.3 313.97 375.32 301.31 355.67C287.06 363.55 270.26 369.14 250.92 372.42C231.57 375.71 209.69 376.71 185.25 375.41C142.27 404.2 106.94 404.97 79.28 377.71C55.55 354.32 50.32 324.8 63.6 289.14C66.91 280.27 73.05 272.73 81.07 267.69C110.49 249.22 140.02 236.06 169.67 228.22Z" id="cllwrGRky"></path><radialGradient id="gradientc3Vx5USkgK" gradientUnits="userSpaceOnUse" cx="366.34" cy="165.62" dx="286.03" dy="578.19" r="420.31"><stop style="stop-color: #d8f30a;stop-opacity: 1" offset="0%"></stop><stop style="stop-color: #1d8a50;stop-opacity: 1" offset="100%"></stop></radialGradient></defs><g><g><g><use xlink:href="#bIRQiXuVf" opacity="1" fill="#a26236" fill-opacity="1"></use><g><use xlink:href="#bIRQiXuVf" opacity="1" fill-opacity="0" stroke="#000000" stroke-width="1" stroke-opacity="1"></use></g></g><g><use xlink:href="#dlnsFWcId" opacity="1" fill="url(#gradientg5QpHKSaik)"></use></g><g><use xlink:href="#cllwrGRky" opacity="1" fill="url(#gradientc3Vx5USkgK)"></use></g></g></g></svg>